<svg width="101" height="100" viewBox="0 0 101 100" fill="none" xmlns="http://www.w3.org/2000/svg">
<circle cx="50.5" cy="50" r="50" fill="#DC777D"/>
<mask id="mask0_253_792" style="mask-type:alpha" maskUnits="userSpaceOnUse" x="0" y="0" width="101" height="100">
<circle cx="50.5" cy="50" r="50" fill="#D9D9D9"/>
</mask>
<g mask="url(#mask0_253_792)">
<path d="M79.2939 78.8899C81.3397 81.1424 84.5034 79.223 85.4867 76.9546C86.2637 75.17 86.4064 73.1158 86.676 71.2122C86.9853 69.0707 87.2628 66.9293 87.5165 64.7878C88.4443 56.896 89.5226 48.6473 87.6751 40.8031C87.2707 39.1058 85.5659 31.7613 82.4973 33.641C82.1009 33.8869 82.4656 34.5135 82.8621 34.2676C85.669 32.5544 87.5403 43.8012 87.6989 45.332C88.1112 49.3532 87.9289 53.4141 87.58 57.4353C87.1914 61.8214 86.676 66.1996 86.0576 70.5539C85.788 72.4654 85.6532 74.5117 84.9713 76.328C84.2576 78.2395 81.6806 80.4365 79.8172 78.3822C79.4921 78.0333 78.9847 78.5409 79.2939 78.8899Z" fill="#F4F4F4"/>
<path d="M0.0410974 58.9423C-1.75884 55.3097 -1.40995 51.2012 -0.379152 47.3941C0.619934 43.706 2.14235 40.0813 3.9978 36.7422C7.62146 30.2305 13.4891 24.4961 21.1725 23.5205C21.6324 23.465 21.6324 22.7353 21.1725 22.7987C13.2195 23.814 7.13778 29.6198 3.37138 36.3853C1.35735 40.002 -0.307788 43.9915 -1.28309 48.0128C-2.20288 51.7881 -2.34561 55.7618 -0.577383 59.3151C-0.379152 59.7275 0.247258 59.3547 0.0410974 58.9423Z" fill="#F4F4F4"/>
<path d="M144.203 65.1843C141.174 64.9781 137.994 64.7164 135.679 64.986C130.675 65.565 125.997 67.7303 121.137 69.039C116.141 70.3794 110.955 70.8236 105.801 71.2519C102.043 71.5691 98.2844 71.8864 94.518 71.8864C91.0688 71.8943 87.6196 71.6484 84.1862 71.3391C78.7388 70.8553 73.1883 70.3398 67.622 69.6497C55.0383 68.0952 42.4149 65.6682 30.9254 60.8141C28.1343 59.6323 25.3749 58.3712 22.6552 57.0308C9.84154 50.7174 -2.13163 42.6591 -12.8361 33.1334C-16.8642 29.5484 -20.7099 25.7651 -24.3573 21.7835L-24.3732 21.7677C-25.1027 20.9666 -24.2304 19.7293 -23.2472 20.1655L-17.895 22.537C-17.0465 22.9098 -16.0316 22.7908 -15.3497 22.1563C-14.525 21.387 -14.8105 20.4272 -15.1356 19.5865C-16.1981 16.8264 -17.673 14.2328 -18.6641 11.4489C-19.2192 9.87844 -19.6394 7.41176 -19.7108 5.05613C-19.7504 3.73158 -17.9584 3.34294 -17.4668 4.56438C-16.5391 6.86449 -14.0334 11.1237 -11.7339 14.09C-11.3533 14.5818 -10.608 14.0742 -10.9093 13.5269C-12.8678 10.0212 -15.0563 5.46856 -15.2149 2.93051C-15.2625 2.14529 -14.7074 1.42353 -13.9304 1.35215C-12.9392 1.25697 -12.511 2.35151 -12.2256 3.2319C-11.171 6.44413 -9.48204 9.5136 -6.80195 11.5202C-8.03892 9.60877 -9.37896 6.92795 -10.0529 4.73094C-10.4336 3.49364 -8.81598 2.6529 -8.0627 3.69192C-7.26978 4.78646 -6.5165 6.42034 -5.97731 7.36418C-2.90076 12.7258 1.16694 17.5005 5.95621 21.3552C8.90589 23.7347 12.1172 25.7572 15.3127 27.7797C21.2914 31.5471 28.2136 35.0449 35.2548 37.7019C39.267 39.201 43.3109 40.4383 47.2359 41.3028C52.6912 42.5004 58.2575 43.2619 63.8715 43.7536C72.443 44.5071 81.1096 44.6419 89.6257 44.7609C101.527 44.9274 113.77 44.9512 124.879 40.6048C127.194 39.7006 131.785 38.0906 135.917 37.0991C137.146 36.8057 137.732 38.5823 136.575 39.0978C133.348 40.5493 129.637 42.1118 126.576 43.2063C126.132 43.365 125.783 43.7377 125.704 44.2057C125.521 45.2923 127.218 45.0702 128.305 44.7926L141.618 41.398C143.021 41.041 143.949 42.8256 142.871 43.8012C142.252 44.3564 141.483 44.8243 140.761 45.1495C138.01 46.3868 133.681 47.8224 129.93 49.1866C128.717 49.6308 129.193 51.4788 130.461 51.2488C134.164 50.5905 139.564 49.0042 144.092 47.7669C145.503 47.3783 146.336 49.3135 145.107 50.1146C141.951 52.153 138.636 53.8027 135.171 55.2145C131.024 56.9118 131.849 60.362 134.767 60.8617C136.424 61.1472 137.978 61.2979 139.001 61.3059C140.484 61.3217 142.768 61.758 144.766 62.5432C146.209 63.1222 145.725 65.2874 144.203 65.1843Z" fill="#F6A460"/>
<path d="M37.38 47.87C39.0293 52.9461 44.1674 54.3976 48.0765 52.7082C52.1442 51.0426 55.316 47.2117 57.6154 43.0873C53.7063 42.6035 49.48 42.2942 45.6661 41.3028C42.9067 40.5889 40.0839 39.6134 37.261 38.4474C36.4047 41.5011 36.5712 44.8323 37.38 47.87Z" fill="#F6A460"/>
<path d="M68.1136 71.1963C67.9471 70.6887 67.7806 70.1732 67.6141 69.6497C66.1709 65.1209 64.8071 60.2827 64.4741 55.6031C64.1173 50.5905 63.9349 46.7199 63.8635 43.7536C62.8565 43.6663 58.6064 43.1905 57.6073 43.0794C54.9114 47.2038 53.4128 50.4953 48.6314 52.153C44.0404 53.8424 39.4256 52.9382 37.4908 47.8621C36.5393 44.8243 36.3411 41.4931 37.356 38.4475C36.6503 38.2016 35.9526 37.9478 35.2469 37.686C31.1395 41.1045 27.9361 45.6095 25.5573 50.3525C24.4631 52.5257 23.4957 54.7545 22.6473 57.0308C19.0315 66.6675 17.4457 77.0735 17.0334 87.2892C16.4625 101.479 17.0968 116.017 19.6024 130L107.443 126.621C90.6089 110.711 75.4085 93.6344 68.1136 71.1963Z" fill="#F4F4F4"/>
<path d="M49.0518 30.4685C47.3788 28.8663 47.4898 25.8524 49.2739 24.3454C50.2491 23.5205 51.5813 23.1398 52.4614 22.2277C54.4992 20.1179 53.1037 16.755 53.1433 13.8759C53.175 11.084 55.0067 8.63321 57.3062 6.92795C61.4849 3.8109 64.2363 5.53202 67.5825 4.35023C75.5672 1.53457 74.2272 -2.91496 77.4227 -6.26203C80.6182 -9.60116 85.5185 -10.8543 90.1967 -10.8623C93.6697 -10.8623 96.9287 -9.02217 100.402 -9.12528C104.454 -9.24425 104.779 -13.8048 112.518 -14.249C117.902 -14.5504 123.119 -11.6475 125.625 -7.02344C128.138 -2.39942 126.838 5.25442 122.453 8.33974C119.257 10.5843 112.779 11.5282 108.886 11.0523C104.81 10.5526 102.432 7.46729 99.0537 9.75154C95.1763 12.3689 95.0811 18.2699 91.3623 21.0856C88.4523 23.2905 84.3608 22.8701 80.7054 22.4418C77.0579 22.0135 72.8713 21.847 70.2229 24.3454C68.423 26.0506 67.5587 28.8266 65.2037 29.6674C61.9051 30.8412 58.0357 27.3197 54.9908 29.0329C54.1741 29.4929 53.5953 30.2702 52.8341 30.8174C52.0729 31.3647 50.9231 31.6344 50.2333 31.0157L49.0518 30.4685Z" fill="#4F3422"/>
<path d="M49.7258 25.5827C51.8588 23.9329 52.287 21.1966 52.0887 18.6427C51.8112 15.0101 50.717 11.1871 53.6032 8.26042C58.115 3.69191 65.505 4.96094 70.4767 1.18558C73.2043 -0.884524 74.0686 -4.31884 76.3523 -6.76965C78.6993 -9.29185 81.99 -10.894 85.4313 -11.1399C91.1482 -11.5444 99.1251 -8.26869 103.423 -13.7969C104.755 -15.518 105.492 -19.4679 102.495 -19.9676C101.567 -20.1183 100.441 -19.7455 100.061 -18.8175C99.6722 -17.8657 100.711 -17.2471 101.551 -17.5167C101.995 -17.6595 101.805 -18.3575 101.361 -18.2147C101.171 -18.3654 100.988 -18.524 100.798 -18.6747C100.996 -18.9523 101.258 -19.1268 101.583 -19.2141C101.932 -19.3251 102.352 -19.3092 102.693 -19.1823C103.55 -18.8651 103.898 -17.9054 103.906 -17.0647C103.922 -15.6449 103.098 -14.3204 102.059 -13.4083C99.9973 -11.6078 97.0635 -11.1557 94.423 -11.2588C91.1562 -11.3857 87.9052 -12.1948 84.6304 -11.7902C82.2278 -11.4889 79.9125 -10.5609 77.954 -9.14115C75.8686 -7.62624 74.473 -5.68304 73.2202 -3.45431C72.4669 -2.12183 71.6978 -0.797279 70.5322 0.210013C69.3825 1.20144 68.0107 1.88354 66.5913 2.39116C62.0082 4.0409 56.3785 4.13607 52.8737 7.97489C50.8756 10.1719 50.6932 12.9241 51.0262 15.7556C51.3751 18.7775 52.176 22.7908 49.369 24.9482C48.9963 25.2337 49.3532 25.8603 49.7258 25.5827Z" fill="#4F3422"/>
<path d="M60.6046 28.1604C62.9913 29.3342 65.822 29.1756 67.9867 27.5814C69.1603 26.7169 70.0721 25.4875 71.3567 24.7657C73.1566 23.7584 75.2182 24.0916 77.1292 24.5833C80.1502 25.3527 83.0206 26.1934 86.1764 25.7889C88.8486 25.4478 91.2115 24.274 93.0194 22.2594C94.9224 20.1338 96.2228 17.4133 98.5778 15.7239C101.432 13.6776 105.183 13.8759 108.458 14.55C114.19 15.716 121.224 18.6982 126.053 13.7252C127.353 12.3848 129.423 8.60146 126.965 7.42761C126.164 7.0469 125.101 7.08656 124.562 7.87177C124.054 8.61733 124.229 9.64048 125.014 10.0846C125.418 10.3147 125.783 9.68807 125.379 9.45806C124.284 8.83941 125.545 7.7528 126.378 7.97488C126.877 8.10971 127.187 8.4349 127.29 8.9901C127.393 9.57703 127.226 10.2829 127.036 10.8302C126.6 12.1389 125.656 13.2493 124.562 14.0662C122.318 15.7398 119.567 16.0174 116.855 15.6842C111.613 15.0339 106.396 12.2975 101.036 13.7728C96.318 15.0735 94.8907 19.7531 91.5287 22.7273C89.4909 24.5278 86.7949 25.2099 84.1228 25.1782C81.3951 25.1385 78.945 24.1788 76.3045 23.6395C73.6641 23.1001 71.4756 23.4888 69.4616 25.3051C68.3436 26.3044 67.3445 27.3831 65.8855 27.8828C64.26 28.438 62.5076 28.2873 60.9773 27.5338C60.5491 27.3276 60.1844 27.9542 60.6046 28.1604Z" fill="#4F3422"/>
<path d="M22.5364 60.4889C19.7532 57.6336 15.1146 58.0064 11.2134 58.8471C7.3122 59.6879 2.99076 60.7348 -0.450538 58.7202C-0.688416 57.7764 0.160014 56.8801 1.05602 56.4994C1.95995 56.1187 2.9749 56.0235 3.80747 55.508C6.5272 53.8107 5.34574 49.2422 7.55008 46.9103C9.32623 45.0385 12.7755 45.213 14.0679 42.9763C15.5983 40.3272 12.831 36.2822 15.0274 34.1566C15.5903 33.6093 16.3674 33.3555 17.0652 33.0144C20.7523 31.2299 22.6553 26.4551 21.2201 22.6163C22.9011 22.5608 24.4235 23.7029 25.383 25.083C26.3424 26.4631 26.8737 28.089 27.5635 29.6198C29.0066 32.8003 32.5193 35.5128 35.2469 37.694C35.6038 37.9795 34.676 38.3999 34.8346 38.8282C34.9853 39.2406 34.906 39.6927 34.8188 40.121C33.9545 44.5785 33.0743 49.0677 31.3616 53.2713C29.6489 57.475 27.0085 61.4169 23.25 63.9708L22.5364 60.4889Z" fill="#F4F4F4"/>
<path d="M62.0557 45.3558C67.4159 39.3596 74.9645 35.148 83.1237 33.6014C80.3326 35.8698 77.2878 38.733 77.716 42.1832C77.8428 43.1905 78.271 44.1819 78.1521 45.1971C77.7953 48.2507 72.8157 49.726 73.1408 52.7796C73.3549 54.81 75.9636 56.1901 75.8209 58.2285C75.6782 60.2272 72.895 61.6073 73.2835 63.5743C73.5293 64.8195 74.9566 65.5175 75.6464 66.6041C76.6614 68.1983 75.9319 70.2287 76.0746 72.0768C76.2649 74.6307 78.6516 78.4774 81.2841 79.0802C73.4421 79.3182 65.3305 73.6234 61.5244 67.1672C57.7105 60.711 58.0752 52.2561 62.4284 46.1092L62.0557 45.3558Z" fill="#F4F4F4"/>
<path d="M69.4614 74.6783C63.9823 71.1091 58.6221 67.1751 57.1949 60.3938C55.8469 54.001 58.527 47.3862 63.7999 43.5791C64.0775 43.3729 63.8079 42.9049 63.5224 43.1112C58.2733 46.9024 55.4742 53.3348 56.5209 59.7592C57.7103 67.072 63.348 71.355 69.1839 75.1462C69.4852 75.3366 69.7548 74.8686 69.4614 74.6783Z" fill="#4F3422"/>
<path d="M21.8068 60.6317C24.7406 52.3354 29.1493 44.3088 35.2151 37.8843C35.453 37.6305 35.0724 37.2419 34.8266 37.5036C28.6973 44.0074 24.249 52.1054 21.2835 60.4889C21.1645 60.8141 21.6878 60.9569 21.8068 60.6317Z" fill="#4F3422"/>
<path d="M17.7073 55.4604C18.2941 55.4286 18.8174 55.5873 19.3011 55.9204C19.5866 56.1187 19.8641 55.6507 19.5786 55.4524C19.0315 55.0717 18.3813 54.8814 17.7153 54.921C17.3585 54.9289 17.3584 55.4762 17.7073 55.4604Z" fill="#4F3422"/>
<path d="M19.2694 51.4074C19.8799 52.0023 20.5301 52.5416 21.22 53.0334C21.5054 53.2396 21.775 52.7637 21.4975 52.5654C20.8394 52.0975 20.2288 51.5819 19.6579 51.0188C19.3962 50.7808 19.0156 51.1616 19.2694 51.4074Z" fill="#4F3422"/>
<path d="M27.3255 40.2241C28.1343 40.581 28.951 40.93 29.7598 41.2869C30.0769 41.4218 30.3545 40.9538 30.0373 40.819C29.2285 40.4621 28.4118 40.1131 27.603 39.7562C27.2858 39.6213 27.0083 40.0893 27.3255 40.2241Z" fill="#4F3422"/>
<path d="M29.6567 38.6299C29.8866 39.3357 30.3545 39.9227 31.0047 40.2796C31.3139 40.4461 31.5835 39.9782 31.2822 39.8116C30.7589 39.5182 30.3703 39.0581 30.18 38.4871C30.0769 38.154 29.5536 38.2967 29.6567 38.6299Z" fill="#4F3422"/>
<path d="M30.8699 35.9252C31.2108 36.7898 31.7579 37.4957 32.5033 38.0429C32.7887 38.2492 33.0583 37.7812 32.7808 37.575C32.1623 37.115 31.6787 36.4963 31.4011 35.7825C31.2663 35.4573 30.7351 35.6001 30.8699 35.9252Z" fill="#4F3422"/>
<path d="M61.5084 47.6083C62.2458 47.4259 62.9832 47.2434 63.7207 47.061C64.0616 46.9738 63.9189 46.4503 63.5779 46.5375C62.8405 46.72 62.1031 46.9024 61.3657 47.0848C61.0247 47.1641 61.1674 47.6876 61.5084 47.6083Z" fill="#4F3422"/>
<path d="M60.4381 50.535C61.2549 50.4319 62.0478 50.4953 62.8407 50.7412C63.1737 50.8443 63.3165 50.3208 62.9834 50.2177C62.1509 49.956 61.3024 49.8846 60.4381 49.9877C60.0972 50.0353 60.0893 50.5826 60.4381 50.535Z" fill="#4F3422"/>
<path d="M58.7332 62.3211C59.2962 62.908 59.8591 63.495 60.4221 64.0898C60.6679 64.3436 61.0485 63.955 60.8106 63.7091C60.2477 63.1222 59.6847 62.5352 59.1217 61.9404C58.8759 61.6787 58.4953 62.0673 58.7332 62.3211Z" fill="#4F3422"/>
<path d="M58.876 60.941C59.6214 61.0758 60.3667 61.2106 61.1121 61.3534C61.4531 61.4169 61.6037 60.8934 61.2548 60.8299C60.5095 60.6951 59.7641 60.5603 59.0188 60.4175C58.6778 60.354 58.5272 60.8775 58.876 60.941Z" fill="#4F3422"/>
<path d="M58.5826 58.6171C59.2407 58.974 59.9464 59.1644 60.6838 59.1802C61.0327 59.1882 61.0327 58.6488 60.6838 58.633C60.0336 58.6171 59.4231 58.4505 58.8522 58.1412C58.5429 57.9826 58.2733 58.4505 58.5826 58.6171Z" fill="#4F3422"/>
<path d="M51.8666 22.3546C52.1838 18.254 48.9169 15.2718 48.1636 11.4409C47.3311 7.21346 50.7565 5.61924 53.5079 3.35878C56.1167 1.21729 56.751 -2.02667 56.8065 -5.29442C56.8303 -6.85691 56.529 -8.68907 55.2444 -9.74395C54.3643 -10.4657 52.9846 -10.6878 52.0727 -9.89465C51.2719 -9.19668 51.0895 -7.69764 52.0727 -7.0552C52.9529 -6.48413 54.1581 -6.96002 54.4277 -7.95145C54.5546 -8.40354 53.8489 -8.59389 53.73 -8.1418C53.4049 -6.95209 51.9459 -7.74523 52.16 -8.70493C52.4137 -9.83913 53.7062 -9.78361 54.4832 -9.33945C55.5933 -8.71287 55.9581 -7.36452 56.0612 -6.16688C56.2039 -4.4061 55.9105 -2.45496 55.4585 -0.741774C54.6735 2.24045 51.9379 3.45396 49.7574 5.29405C47.6086 7.11828 46.8553 9.5215 47.6086 12.2578C48.568 15.7239 51.4305 18.603 51.1371 22.3704C51.1054 22.8225 51.8269 22.8225 51.8666 22.3546Z" fill="#4F3422"/>
<path d="M56.1325 14.0583C56.7035 11.0998 58.8681 8.72835 61.7782 7.92728C62.2301 7.80037 62.0398 7.10241 61.5879 7.22931C58.4479 8.09383 56.0533 10.6636 55.4348 13.8679C55.3476 14.3279 56.0453 14.5183 56.1325 14.0583Z" fill="#251404"/>
<path d="M72.2052 6.0713C73.8783 5.02435 75.6069 3.91395 76.598 2.14524C77.1531 1.16174 77.5257 0.0910026 78.1521 -0.852838C78.8499 -1.89979 79.7142 -2.78811 80.6895 -3.57332C81.0543 -3.86678 80.5389 -4.37439 80.1741 -4.08886C78.5565 -2.79604 77.3671 -1.20975 76.5029 0.669998C75.48 2.90666 73.8783 4.16776 71.8325 5.44472C71.444 5.69059 71.8087 6.31718 72.2052 6.0713Z" fill="#251404"/>
<path d="M50.1855 44.0471L53.5158 22.2119C53.5158 22.2119 42.7162 24.4644 40.8131 32.5544L45.309 32.9669L40.5911 40.5573C38.8625 43.3412 40.1709 47.0214 43.2712 48.0842C43.3267 48.1001 43.3743 48.1239 43.4298 48.1397C46.4667 49.1629 49.7018 47.2117 50.1855 44.0471Z" fill="#F6A460"/>
<path d="M55.2681 32.1341C54.1501 32.7686 52.7308 32.372 52.0964 31.2537C51.4621 30.1354 51.8585 28.7156 52.9766 28.0811C54.0946 27.4466 55.5139 27.8432 56.1483 28.9615C56.7747 30.0798 56.3861 31.4996 55.2681 32.1341Z" fill="#F6A460"/>
<path d="M53.1114 30.524C53.9519 30.3653 54.7924 30.2146 55.6329 30.0719C55.9739 30.0164 55.8311 29.4929 55.4902 29.5484C54.6497 29.6912 53.8092 29.8419 52.9687 30.0005C52.6277 30.0639 52.7705 30.5874 53.1114 30.524Z" fill="#4F3422"/>
<path d="M45.3011 32.9669L40.8607 40.1289L48.6393 33.0382L45.3011 32.9669Z" fill="#4F3422"/>
<path d="M43.9372 28.3824C43.9372 28.3824 46.8473 29.1439 49.2974 29.3342C49.2974 29.3342 44.7302 31.8326 42.2642 30.9205L43.9372 28.3824Z" fill="white"/>
<path d="M48.2113 24.0281C46.7761 24.5278 45.3172 25.1544 44.0088 25.9237C43.8423 26.0189 43.8185 26.3044 44.0088 26.3917C44.548 26.6534 45.0793 26.9072 45.6185 27.169C45.9356 27.3197 46.2052 26.8517 45.896 26.701C45.3568 26.4393 44.8255 26.1855 44.2864 25.9237C44.2864 26.0824 44.2864 26.2331 44.2864 26.3917C45.555 25.6461 46.9664 25.0433 48.3541 24.5516C48.6871 24.4406 48.5444 23.9171 48.2113 24.0281Z" fill="#4F3422"/>
<path d="M49.1627 27.1294C49.7891 26.709 50.923 27.2642 51.2322 27.867C51.3908 28.1763 51.8586 27.9066 51.7 27.5894C51.256 26.7328 49.7494 26.0665 48.8852 26.6535C48.5997 26.8518 48.8772 27.3276 49.1627 27.1294Z" fill="#4F3422"/>
</g>
</svg>
