<svg width="16" height="16" viewBox="0 0 16 16" fill="none" xmlns="http://www.w3.org/2000/svg">
<path d="M15.3809 3.14109C15.8341 1.75498 15.7008 -0.83064 10.956 2.2881C6.13133 5.46015 1.12003 12.8705 1.49321 14.2299C1.78643 15.2962 6.10468 12.8971 8.42374 9.64512C8.61033 9.37856 10.7428 11.9908 10.4496 12.2574C8.37043 14.3366 1.6798 16.9755 0.26704 15.616C-1.35897 14.0433 4.71857 5.007 10.956 1.40845C12.662 0.422187 17.7533 -1.92353 15.3809 3.14109Z" fill="#FFC700"/>
<path d="M15.6208 12.6572L11.9156 12.2573L9.48995 15.0829L8.71693 11.431L5.27832 9.99158L8.53034 8.12567L8.85021 4.4205L11.5958 6.92616L15.221 6.07317L13.7016 9.45846L15.6208 12.6572Z" fill="#FFC700"/>
</svg>
