<svg width="10" height="14" viewBox="0 0 10 14" fill="none" xmlns="http://www.w3.org/2000/svg">
<path d="M4.5 8.8H3.43665C1.90773 8.8 1.14327 8.8 0.854031 8.30299C0.564788 7.80597 0.942438 7.14131 1.69774 5.81198L4.06527 1.64512C4.44025 0.985157 4.62774 0.655175 4.81387 0.70436C5 0.753545 5 1.13307 5 1.89213V4.7C5 4.9357 5 5.05355 5.07322 5.12678C5.14645 5.2 5.2643 5.2 5.5 5.2H6.56335C8.09227 5.2 8.85673 5.2 9.14597 5.69701C9.43521 6.19403 9.05756 6.85869 8.30226 8.18802L5.93473 12.3549C5.55975 13.0148 5.37226 13.3448 5.18613 13.2956C5 13.2465 5 12.8669 5 12.1079V9.3C5 9.0643 5 8.94645 4.92678 8.87322C4.85355 8.8 4.7357 8.8 4.5 8.8Z" fill="#FFC700"/>
</svg>
