<svg width="27" height="30" viewBox="0 0 27 30" fill="none" xmlns="http://www.w3.org/2000/svg">
<path d="M20.6828 17.5339C23.4701 16.752 24.8514 15.2619 24.7676 13.3204C24.6619 10.8699 22.8777 8.03329 18.7963 7.33075C18.7466 7.32223 18.7538 7.27627 18.8064 7.26106C20.0635 6.89825 20.6924 6.44762 20.7361 5.44193C20.8267 3.34241 15.6799 0.964336 11.4033 0.779856C7.12658 0.595375 5.3218 3.09104 5.23128 5.19078C5.17227 6.55906 6.47658 8.11636 8.53834 8.74596C8.6884 8.79181 8.66176 8.86474 8.59951 8.8901C5.4573 10.1735 3.10889 11.986 3.1815 13.6703C3.24062 15.0394 4.24911 16.1076 6.08809 16.8563C6.14268 16.8785 6.15908 16.9534 6.11215 16.9697C2.50625 18.2013 0.603516 20.86 0.603516 23.2221C0.603516 26.6372 4.59747 29.152 11.5537 29.152C20.9528 29.152 26.6034 26.0645 26.6034 22.6492C26.6034 20.4885 24.5966 18.8223 20.6761 17.7054C20.5736 17.676 20.5786 17.5632 20.6828 17.5339ZM22.5837 10.817C22.1664 11.3729 20.5354 10.1335 16.8157 9.92276C13.3478 9.7263 9.88256 10.5277 9.71502 10.542C9.23149 10.583 9.32643 10.3804 9.53917 10.263C17.5536 5.84217 22.8997 10.3963 22.5837 10.817ZM6.78491 3.55569C6.53235 3.21899 10.8771 -0.473533 17.3509 3.28588C17.4213 3.32698 17.5023 3.4135 17.199 3.37682C17.0671 3.36097 14.0894 2.58183 11.3268 2.85154C8.44416 3.13279 7.11352 3.99338 6.78491 3.55569ZM20.325 20.8029C20.1019 20.7599 16.0353 19.6428 11.3573 19.9644C7.22971 20.248 3.5442 22.0444 2.88892 21.2051C2.17192 20.2868 8.45268 15.4264 19.6492 20.172C20.2097 20.4093 21.0806 20.949 20.325 20.8029Z" fill="white"/>
</svg>
