<svg width="34" height="33" viewBox="0 0 34 33" fill="none" xmlns="http://www.w3.org/2000/svg">
<path d="M26.3379 7.51271L21.6542 2.82767C21.5009 2.67305 21.3185 2.55032 21.1175 2.46657C20.9165 2.38282 20.701 2.3397 20.4833 2.3397C20.2656 2.3397 20.05 2.38282 19.849 2.46657C19.6481 2.55032 19.4657 2.67305 19.3124 2.82767C19.0052 3.13675 18.8328 3.55486 18.8328 3.99068C18.8328 4.4265 19.0052 4.84461 19.3124 5.15369L22.8086 8.65097L9.45023 22.0132L5.95396 18.5159C5.64497 18.2087 5.22698 18.0362 4.79129 18.0362C4.3556 18.0362 3.93761 18.2087 3.62861 18.5159C3.47404 18.6693 3.35135 18.8518 3.26762 19.0528C3.18389 19.2538 3.14079 19.4694 3.14079 19.6872C3.14079 19.905 3.18389 20.1206 3.26762 20.3216C3.35135 20.5227 3.47404 20.7051 3.62861 20.8585L8.26282 25.494L12.897 30.1296C13.0498 30.2854 13.2319 30.4094 13.4329 30.4944C13.6339 30.5793 13.8497 30.6236 14.0679 30.6245C14.3955 30.6264 14.7162 30.5306 14.9892 30.3495C15.2622 30.1684 15.475 29.91 15.6007 29.6074C15.7263 29.3048 15.7589 28.9716 15.6945 28.6503C15.6301 28.3291 15.4715 28.0343 15.2389 27.8035L11.7921 24.3557L25.1505 10.9935L28.6467 14.4908C28.8005 14.6435 28.9828 14.7644 29.1833 14.8467C29.3838 14.9289 29.5985 14.9709 29.8152 14.9701C30.0319 14.9693 30.2464 14.9259 30.4463 14.8422C30.6462 14.7586 30.8277 14.6363 30.9803 14.4825C31.133 14.3287 31.2539 14.1463 31.3361 13.9458C31.4184 13.7452 31.4603 13.5304 31.4595 13.3137C31.4587 13.0969 31.4153 12.8824 31.3317 12.6825C31.248 12.4825 31.1259 12.301 30.9721 12.1483L26.3379 7.51271ZM3.62861 25.5105C3.31806 25.1999 2.89687 25.0254 2.45769 25.0254C2.01851 25.0254 1.59732 25.1999 1.28677 25.5105C0.976222 25.8211 0.801758 26.2425 0.801758 26.6818C0.801758 27.1211 0.976222 27.5424 1.28677 27.853L5.95396 32.5216C6.10806 32.6745 6.29082 32.7954 6.49175 32.8775C6.69268 32.9596 6.90784 33.0012 7.12488 33C7.34193 33.0012 7.55708 32.9596 7.75802 32.8775C7.95895 32.7954 8.1417 32.6745 8.2958 32.5216C8.45038 32.3682 8.57307 32.1858 8.6568 31.9847C8.74052 31.7837 8.78363 31.5681 8.78363 31.3503C8.78363 31.1325 8.74052 30.9169 8.6568 30.7159C8.57307 30.5149 8.45038 30.3324 8.2958 30.1791L3.62861 25.5105ZM33.3139 5.15369L28.6467 0.485151C28.493 0.331339 28.3104 0.209329 28.1095 0.126087C27.9086 0.0428442 27.6933 0 27.4758 0C27.2584 0 27.043 0.0428442 26.8421 0.126087C26.6412 0.209329 26.4587 0.331339 26.3049 0.485151C26.1511 0.638963 26.0292 0.821565 25.9459 1.02253C25.8627 1.2235 25.8199 1.43889 25.8199 1.65641C25.8199 1.87393 25.8627 2.08933 25.9459 2.29029C26.0292 2.49126 26.1511 2.67386 26.3049 2.82767L30.9721 7.49621C31.1254 7.65083 31.3078 7.77356 31.5088 7.85731C31.7097 7.94106 31.9253 7.98418 32.143 7.98418C32.3607 7.98418 32.5763 7.94106 32.7772 7.85731C32.9782 7.77356 33.1606 7.65083 33.3139 7.49621C33.4685 7.34285 33.5912 7.1604 33.6749 6.95937C33.7587 6.75835 33.8018 6.54273 33.8018 6.32495C33.8018 6.10718 33.7587 5.89156 33.6749 5.69053C33.5912 5.48951 33.4685 5.30705 33.3139 5.15369Z" fill="#B9638C"/>
</svg>
