<svg width="33" height="33" viewBox="0 0 33 33" fill="none" xmlns="http://www.w3.org/2000/svg">
<path d="M33 21.5392C33 19.2912 31.7802 17.1934 29.5652 15.6318C27.8676 14.4351 25.7339 13.6655 23.4246 13.3949C23.5017 12.853 23.5432 12.2997 23.5432 11.7359C23.5432 5.25383 18.2734 0 11.7716 0C5.26982 0 0 5.25383 0 11.7359C0 17.743 4.52989 22.6956 10.3704 23.3855C11.1786 28.8256 15.8788 33 21.5593 33C27.3246 33 33 28.812 33 21.5392ZM31.7058 21.5392C31.7058 25.3793 27.1542 28.5036 21.5596 28.5036C15.9649 28.5036 11.4132 25.3793 11.4132 21.5392C11.4132 17.6991 15.9649 14.5748 21.5596 14.5748C27.1542 14.5748 31.7058 17.6991 31.7058 21.5392ZM6.20284 5.79562C5.5752 6.42134 4.85564 6.71679 4.59422 6.45627C4.3328 6.19562 4.62915 5.47826 5.2568 4.85255C5.88315 4.22813 6.604 3.93267 6.86413 4.19319C7.12555 4.45384 6.8292 5.1712 6.20284 5.79562ZM21.0329 20.4938C21.0318 20.494 21.0309 20.4943 21.0299 20.4945C20.9587 20.5123 20.8835 20.4953 20.8251 20.4512L17.2062 17.7192C16.7099 17.3445 16.8372 16.5746 17.4246 16.3689C18.3289 16.0521 19.326 15.836 20.3823 15.7431C20.835 15.7032 21.2242 16.0621 21.2242 16.5152V20.2543C21.224 20.3687 21.1442 20.4661 21.0329 20.4938ZM20.0939 22.0328C20.0944 22.0336 20.0949 22.0342 20.0955 22.035C20.1451 22.1041 20.1334 22.1992 20.0654 22.2505L15.8747 25.4143C15.5997 25.6218 15.2189 25.6251 14.9427 25.4193C14.0213 24.7329 13.3406 23.9024 12.9878 22.9851C12.7941 22.4815 13.1755 21.9414 13.7165 21.9414H19.9128C19.9843 21.9415 20.0523 21.9746 20.0939 22.0328ZM20.0933 21.0673C20.0927 21.0681 20.0922 21.0688 20.0917 21.0695C20.0476 21.1317 19.9753 21.1673 19.8989 21.1673H13.7045C13.1656 21.1673 12.7854 20.6314 12.974 20.1281C13.321 19.202 14.0018 18.3633 14.9272 17.6705C15.2036 17.4636 15.5853 17.4664 15.8608 17.6743L20.0619 20.8461C20.1315 20.8988 20.1439 20.9963 20.0933 21.0673ZM23.182 21.0695C23.1815 21.0687 23.181 21.0679 23.1804 21.0673C23.1298 20.9963 23.142 20.8988 23.2118 20.8462L27.3366 17.7322C27.6148 17.5222 28.0011 17.5209 28.2771 17.7338C29.1608 18.415 29.8109 19.2324 30.1467 20.1317C30.3341 20.6338 29.9525 21.1673 29.4151 21.1673H23.375C23.2984 21.1674 23.2262 21.1317 23.182 21.0695ZM22.2281 20.4904C22.2269 20.4902 22.2258 20.4899 22.2246 20.4895C22.0943 20.4576 22.0006 20.3445 22.0006 20.2108V16.5237C22.0006 16.0682 22.3939 15.7081 22.8488 15.7521C23.9149 15.8552 24.9191 16.0843 25.8261 16.4154C26.399 16.6247 26.5049 17.3889 26.0186 17.7562L22.4641 20.4396C22.3967 20.4904 22.3101 20.5107 22.2281 20.4904ZM30.1329 22.9818C29.7927 23.8693 29.1458 24.676 28.2706 25.3494C27.9916 25.564 27.6033 25.5684 27.3225 25.3564L23.2084 22.2505C23.1405 22.1992 23.1287 22.1041 23.1784 22.035C23.1789 22.0342 23.1794 22.0336 23.1799 22.0328C23.2214 21.9746 23.2895 21.9415 23.361 21.9415H29.4031C29.9426 21.9415 30.3255 22.4793 30.1329 22.9818ZM22.2246 22.6096C22.2258 22.6094 22.2269 22.6091 22.2281 22.6087C22.3101 22.5885 22.3967 22.6087 22.464 22.6595L25.9996 25.3288C26.4936 25.7017 26.37 26.4666 25.7874 26.6769C24.8905 27.0006 23.8997 27.2247 22.8485 27.3263C22.3937 27.3703 22.0006 27.0102 22.0006 26.5547V22.8882C22.0006 22.7545 22.0943 22.6416 22.2246 22.6096ZM21.0299 22.6046C21.0309 22.6049 21.0318 22.6051 21.0329 22.6054C21.1442 22.6331 21.224 22.7304 21.224 22.8449V26.5633C21.224 27.0163 20.835 27.3753 20.3824 27.3355C19.3337 27.2433 18.3432 27.0297 17.4442 26.7166C16.856 26.5118 16.7282 25.7409 17.2248 25.3659L20.8251 22.6479C20.8836 22.6038 20.9589 22.5868 21.0299 22.6046Z" fill="#C3F2A6"/>
</svg>
