<svg width="33" height="29" viewBox="0 0 33 29" fill="none" xmlns="http://www.w3.org/2000/svg">
<g clip-path="url(#clip0_432_215)">
<path d="M31.1145 24.5907C30.668 24.1477 29.6239 22.3762 29.6239 22.3762C29.6239 22.3762 29.7964 22.1877 29.6239 21.5531C29.3996 20.7309 28.4306 20.7938 28.2073 20.6044C27.9831 20.4145 26.045 17.4093 25.8958 17.0611C25.7467 16.7128 24.1059 12.7592 24.1059 12.7592C23.5548 10.7028 22.5391 9.84871 21.1977 9.59556C19.8673 9.34504 19.147 9.40574 18.5503 8.96277C18.1778 8.68638 18.1911 8.48103 18.1911 7.64721C18.1911 7.64721 18.5929 7.32308 18.8861 6.87491C19.221 6.36222 19.3854 5.62219 19.3854 5.62219C19.7212 5.50811 19.7253 5.36603 19.8704 4.91316C20.0713 4.28639 20.0571 3.85676 19.5203 3.85676C19.6472 1.81287 18.4387 0.770203 16.4996 0.770203C14.5615 0.770203 13.3529 1.81287 13.4798 3.85682C12.943 3.85682 12.9278 4.28644 13.1297 4.91322C13.2748 5.36609 13.2788 5.50816 13.6137 5.62224C13.6137 5.62224 13.7781 6.36227 14.114 6.87497C14.4073 7.32308 14.8091 7.64726 14.8091 7.64726C14.8091 8.48108 14.8212 8.68644 14.4488 8.96283C13.8532 9.4058 13.1317 9.34509 11.8025 9.59562C10.46 9.84871 9.44528 10.7028 8.89433 12.7593C8.89433 12.7593 7.25355 16.7129 7.10441 17.0611C6.95526 17.4094 5.01606 20.4146 4.79286 20.6044C4.56959 20.7938 3.59957 20.731 3.37631 21.5532C3.20383 22.1877 3.37631 22.3763 3.37631 22.3763C3.37631 22.3763 2.33217 24.1477 1.88467 24.5907C1.43724 25.0332 2.25811 25.3497 2.77967 24.7801C2.84051 24.8572 3.04753 24.9127 3.28195 24.9394C1.46257 26.6484 2.49962 28.8749 5.31545 28.7664C7.62383 28.6772 16.4996 27.3109 16.4996 27.3109C16.4996 27.3109 25.3753 28.6772 27.6848 28.7664C30.5006 28.8749 31.5377 26.6484 29.7173 24.9393C29.9527 24.9127 30.1597 24.8571 30.2205 24.7801C30.7421 25.3496 31.562 25.0332 31.1145 24.5907ZM11.8025 21.7619C11.8025 21.7619 7.98206 22.7259 5.60258 23.6341C6.09269 22.8601 6.65684 21.8063 6.65684 21.8063L9.04348 18.8963L10.9451 15.3843C10.9451 15.3843 11.5417 17.2828 11.7274 17.5673C11.9141 17.8518 11.8025 21.7619 11.8025 21.7619ZM21.1977 21.7619C21.1977 21.7619 21.086 17.8519 21.2717 17.5673C21.4584 17.2828 22.0551 15.3843 22.0551 15.3843L23.9567 18.8963L26.3423 21.8063C26.3423 21.8063 26.9075 22.8601 27.3976 23.6341C25.0181 22.7258 21.1977 21.7619 21.1977 21.7619Z" fill="white"/>
</g>
<defs>
<clipPath id="clip0_432_215">
<rect width="33" height="28" fill="white" transform="translate(0 0.770203)"/>
</clipPath>
</defs>
</svg>
