<svg width="32" height="34" viewBox="0 0 32 34" fill="none" xmlns="http://www.w3.org/2000/svg">
<path d="M19.4789 3.1627H9.94191C9.28191 3.1627 8.75391 2.6347 8.75391 1.9747C8.75391 1.3147 9.28191 0.770203 9.94191 0.770203H19.4789C20.1389 0.770203 20.6669 1.2982 20.6669 1.9582C20.6669 2.6182 20.1389 3.1627 19.4789 3.1627Z" fill="white"/>
<path d="M18.0108 30.4208V25.5698C18.0108 22.5833 20.0238 20.5703 23.0103 20.5703H27.8613C28.2408 20.5703 28.6038 20.6033 28.9503 20.6693C28.9833 20.2733 29.0163 19.8773 29.0163 19.4648C29.0163 11.5613 22.5978 5.14276 14.7108 5.14276C6.82377 5.14276 0.405273 11.5613 0.405273 19.4648C0.405273 27.3518 6.82377 33.7703 14.7108 33.7703C16.1133 33.7703 17.4498 33.5393 18.7368 33.1763C18.2748 32.4008 18.0108 31.4768 18.0108 30.4208ZM15.9483 18.9203C15.9483 19.5968 15.3873 20.1578 14.7108 20.1578C14.0343 20.1578 13.4733 19.5968 13.4733 18.9203V10.6703C13.4733 9.99376 14.0343 9.43276 14.7108 9.43276C15.3873 9.43276 15.9483 9.99376 15.9483 10.6703V18.9203Z" fill="white"/>
<path d="M27.8607 22.2202H23.0262C20.9142 22.2202 19.6602 23.4742 19.6602 25.5697V30.4207C19.6602 32.5162 20.9142 33.7702 23.0262 33.7702H27.8607C29.9562 33.7702 31.2102 32.5162 31.2102 30.4207V25.5697C31.2102 23.4742 29.9562 22.2202 27.8607 22.2202ZM24.4782 30.5692C24.4782 31.0972 24.0492 31.5262 23.5047 31.5262C22.9767 31.5262 22.5477 31.0972 22.5477 30.5692V25.4212C22.5477 24.8932 22.9767 24.4642 23.5047 24.4642C24.0492 24.4642 24.4782 24.8932 24.4782 25.4212V30.5692ZM28.3227 30.5692C28.3227 31.0972 27.8937 31.5262 27.3657 31.5262C26.8377 31.5262 26.3922 31.0972 26.3922 30.5692V25.4212C26.3922 24.8932 26.8377 24.4642 27.3657 24.4642C27.8937 24.4642 28.3227 24.8932 28.3227 25.4212V30.5692Z" fill="white"/>
</svg>
