<svg width="33" height="33" viewBox="0 0 33 33" fill="none" xmlns="http://www.w3.org/2000/svg">
<path d="M23.4135 0H9.5865C3.5805 0 0 3.5805 0 9.5865V23.397C0 29.4195 3.5805 33 9.5865 33H23.397C29.403 33 32.9835 29.4195 32.9835 23.4135V9.5865C33 3.5805 29.4195 0 23.4135 0ZM26.4 17.7375H17.7375V26.4C17.7375 27.0765 17.1765 27.6375 16.5 27.6375C15.8235 27.6375 15.2625 27.0765 15.2625 26.4V17.7375H6.6C5.9235 17.7375 5.3625 17.1765 5.3625 16.5C5.3625 15.8235 5.9235 15.2625 6.6 15.2625H15.2625V6.6C15.2625 5.9235 15.8235 5.3625 16.5 5.3625C17.1765 5.3625 17.7375 5.9235 17.7375 6.6V15.2625H26.4C27.0765 15.2625 27.6375 15.8235 27.6375 16.5C27.6375 17.1765 27.0765 17.7375 26.4 17.7375Z" fill="white"/>
</svg>
