<svg width="34" height="32" viewBox="0 0 34 32" fill="none" xmlns="http://www.w3.org/2000/svg">
<path opacity="0.4" d="M21.4432 31.1816H12.4269C11.8107 31.1816 11.2998 30.6707 11.2998 30.0546C11.2998 29.4385 11.8107 28.9276 12.4269 28.9276H21.4432C22.0594 28.9276 22.5703 29.4385 22.5703 30.0546C22.5703 30.6707 22.0594 31.1816 21.4432 31.1816Z" fill="#F5977A"/>
<path opacity="0.4" d="M25.9518 26.6734H7.91904C7.30292 26.6734 6.79199 26.1625 6.79199 25.5464C6.79199 24.9303 7.30292 24.4193 7.91904 24.4193H25.9518C26.5679 24.4193 27.0789 24.9303 27.0789 25.5464C27.0789 26.1625 26.5679 26.6734 25.9518 26.6734Z" fill="#F5977A"/>
<path opacity="0.4" d="M28.9569 22.1653H4.91318C4.29706 22.1653 3.78613 21.6543 3.78613 21.0382C3.78613 20.4221 4.29706 19.9112 4.91318 19.9112H28.9569C29.573 19.9112 30.0839 20.4221 30.0839 21.0382C30.0839 21.6543 29.573 22.1653 28.9569 22.1653Z" fill="#F5977A"/>
<path d="M31.9626 18.0327H31.8424C31.0159 18.0327 30.3396 17.3565 30.3396 16.53C30.3396 15.7035 31.0159 15.0273 31.8424 15.0273C32.6689 15.0273 33.4053 15.7035 33.4053 16.53C33.4053 17.3565 32.7891 18.0327 31.9626 18.0327ZM2.02825 18.0327H1.908C1.0815 18.0327 0.405273 17.3565 0.405273 16.53C0.405273 15.7035 1.0815 15.0273 1.908 15.0273C2.73451 15.0273 3.47081 15.7035 3.47081 16.53C3.47081 17.3565 2.85475 18.0327 2.02825 18.0327ZM27.4695 7.4986C27.0788 7.4986 26.703 7.34832 26.4025 7.0628C25.8164 6.47673 25.8164 5.53001 26.4025 4.94394L26.5979 4.7486C27.1839 4.16254 28.1307 4.16254 28.7168 4.7486C29.3028 5.33467 29.3028 6.2814 28.7168 6.86746L28.5214 7.0628C28.2359 7.34832 27.8602 7.4986 27.4695 7.4986ZM6.40115 7.4986C6.01044 7.4986 5.63482 7.34832 5.33427 7.0628L5.13891 6.86746C4.55285 6.2814 4.55285 5.33467 5.13891 4.7486C5.72498 4.16254 6.67166 4.16254 7.25772 4.7486L7.45308 4.94394C8.03915 5.53001 8.03915 6.47673 7.45308 7.0628C7.16757 7.34832 6.77684 7.4986 6.40115 7.4986ZM16.9353 3.06553C16.1088 3.06553 15.4326 2.44942 15.4326 1.62292V1.5027C15.4326 0.676198 16.1088 -3.05176e-05 16.9353 -3.05176e-05C17.7618 -3.05176e-05 18.438 0.676198 18.438 1.5027C18.438 2.3292 17.7618 3.06553 16.9353 3.06553Z" fill="#F5977A"/>
<path d="M26.6738 16.9057C27.0945 16.9057 27.4552 16.545 27.4251 16.1243C27.0194 10.6844 22.4812 6.38657 16.9361 6.38657C11.391 6.38657 6.8528 10.6693 6.44707 16.1243C6.41701 16.545 6.77767 16.9057 7.19843 16.9057H26.6738Z" fill="#F5977A"/>
</svg>
