<svg width="34" height="35" viewBox="0 0 34 35" fill="none" xmlns="http://www.w3.org/2000/svg">
<path d="M11.803 28.9443C11.803 30.3746 12.0244 31.7708 12.433 33.0648C5.89476 30.8003 0.957015 24.7898 0.446213 17.7578C-0.064589 10.2831 4.24317 3.3021 11.2071 0.373509C13.0119 -0.375667 13.9314 0.169188 14.323 0.560803C14.6976 0.93539 15.2254 1.83781 14.4762 3.55751C13.71 5.32829 13.3354 7.20122 13.3354 9.14227C13.3525 12.6157 14.7146 15.8338 16.9281 18.3026C13.8122 20.7885 11.803 24.6366 11.803 28.9443Z" fill="#6D75C1"/>
<path opacity="0.4" d="M32.5924 26.765C29.2211 31.3451 23.8747 34.0354 18.1707 34.0354C17.8983 34.0354 17.6259 34.0183 17.3534 34.0013C15.6508 33.9332 13.9992 33.6097 12.4327 33.0648C12.0241 31.7708 11.8027 30.3746 11.8027 28.9444C11.8027 24.6366 13.8119 20.7886 16.9278 18.3027C19.4307 21.1121 23.0233 22.9339 26.9906 23.1042C28.0633 23.1553 29.1359 23.0702 30.1916 22.8829C32.0986 22.5423 32.8648 23.2575 33.1372 23.7172C33.4267 24.1769 33.7332 25.1815 32.5924 26.765Z" fill="#6D75C1"/>
</svg>
