<svg width="33" height="34" viewBox="0 0 33 34" fill="none" xmlns="http://www.w3.org/2000/svg">
<path fill-rule="evenodd" clip-rule="evenodd" d="M23.0953 4.07532H10.9903C10.5529 4.07532 10.1334 3.90157 9.82417 3.59228C9.51488 3.283 9.34113 2.86353 9.34113 2.42613C9.34113 1.98874 9.51488 1.56927 9.82417 1.25999C10.1334 0.950703 10.5529 0.77695 10.9903 0.77695H23.0953C24.4075 0.77695 25.6659 1.29821 26.5938 2.22606C27.5216 3.1539 28.0429 4.41233 28.0429 5.7245V17.8295C28.0429 18.2669 27.8691 18.6864 27.5598 18.9957C27.2506 19.3049 26.8311 19.4787 26.3937 19.4787C25.9563 19.4787 25.5368 19.3049 25.2275 18.9957C24.9183 18.6864 24.7445 18.2669 24.7445 17.8295V5.7245C24.7445 5.28711 24.5708 4.86764 24.2615 4.55835C23.9522 4.24907 23.5327 4.07532 23.0953 4.07532ZM2.82685 1.25521L32.5122 30.9405C32.6667 31.0938 32.7894 31.2762 32.8732 31.4772C32.9569 31.6782 33 31.8937 33 32.1115C33 32.3292 32.9569 32.5447 32.8732 32.7457C32.7894 32.9467 32.6667 33.1291 32.5122 33.2824C32.3589 33.437 32.1765 33.5596 31.9755 33.6434C31.7745 33.7271 31.559 33.7702 31.3413 33.7702C31.1235 33.7702 30.908 33.7271 30.707 33.6434C30.506 33.5596 30.3236 33.437 30.1703 33.2824L27.6471 30.7426C27.2683 31.6369 26.6348 32.3999 25.8254 32.9366C25.0159 33.4733 24.0665 33.7598 23.0953 33.7606H9.90186C8.58968 33.7606 7.33125 33.2394 6.40341 32.3115C5.47556 31.3837 4.9543 30.1253 4.9543 28.8131V8.04985L0.485011 3.59706C0.174463 3.28651 0 2.86532 0 2.42613C0 1.98695 0.174463 1.56576 0.485011 1.25521C0.795559 0.944666 1.21675 0.770203 1.65593 0.770203C2.09511 0.770203 2.51631 0.944666 2.82685 1.25521ZM15.3277 26.6856C15.4811 26.8402 15.6635 26.9629 15.8644 27.0466C16.0654 27.1304 16.281 27.1735 16.4987 27.1735C16.7164 27.1735 16.9319 27.1304 17.1329 27.0466C17.3339 26.9629 17.5163 26.8402 17.6696 26.6856C17.8153 26.5253 17.9324 26.3413 18.0159 26.1414C18.1032 25.944 18.1482 25.7305 18.1482 25.5147C18.1482 25.2989 18.1032 25.0854 18.0159 24.888C17.9324 24.6882 17.8153 24.5041 17.6696 24.3438C17.5163 24.1892 17.3339 24.0665 17.1329 23.9828C16.9319 23.8991 16.7164 23.856 16.4987 23.856C16.281 23.856 16.0654 23.8991 15.8644 23.9828C15.6635 24.0665 15.4811 24.1892 15.3277 24.3438C15.1821 24.5041 15.0649 24.6882 14.9814 24.888C14.8942 25.0854 14.8491 25.2989 14.8491 25.5147C14.8491 25.7305 14.8942 25.944 14.9814 26.1414C15.0649 26.3413 15.1821 26.5253 15.3277 26.6856Z" fill="white"/>
</svg>
