<svg width="33" height="29" viewBox="0 0 33 29" fill="none" xmlns="http://www.w3.org/2000/svg">
<path d="M15.4547 10.3067C15.4548 8.22062 16.276 0.770203 18.8518 0.770203C21.4276 0.770203 22.0995 8.48139 22.0995 10.3067C22.0995 12.1321 21.2783 14.1437 18.8518 14.1437C16.4253 14.1437 15.4547 12.3929 15.4547 10.3067Z" fill="white"/>
<path d="M22.9208 14.858C22.9208 13.6261 23.4099 9.22643 24.9438 9.22643C26.4777 9.22643 26.8778 13.7801 26.8778 14.858C26.8778 15.936 26.3888 17.1239 24.9438 17.1239C23.4988 17.1239 22.9208 16.0899 22.9208 14.858Z" fill="white"/>
<path d="M8.06335 13.4601C8.06335 11.7517 8.75543 5.65023 10.926 5.65023C13.0967 5.65023 13.6629 11.9652 13.6629 13.4601C13.6629 14.955 12.9708 16.6023 10.926 16.6023C8.88126 16.6023 8.06335 15.1685 8.06335 13.4601Z" fill="white"/>
<path d="M18.2919 13.2497H19.3371V18.465H18.2919V13.2497Z" fill="white"/>
<path d="M24.638 16.6023H25.2353V19.657H24.638V16.6023Z" fill="white"/>
<path d="M10.5271 15.7828H11.2738V19.359H10.5271V15.7828Z" fill="white"/>
<path d="M25.6319 27.6834C30.0734 26.7021 33 25.0254 33 23.1218C33 20.0974 25.6127 17.6457 16.5 17.6457C7.3873 17.6457 0 20.0974 0 23.1218C0 25.8874 6.17753 28.1742 14.2029 28.5452C9.35945 25.7243 4.60629 20.9908 17.6946 20.4397C17.5894 20.5042 17.483 20.5689 17.3763 20.6337C14.5819 22.3319 11.5788 24.1569 25.6319 27.6834Z" fill="white"/>
</svg>
