<svg width="32" height="34" viewBox="0 0 32 34" fill="none" xmlns="http://www.w3.org/2000/svg">
<path d="M24.2209 10.0707C24.108 10.0546 23.9952 10.0546 23.8824 10.0707C21.384 9.99009 19.4014 7.94302 19.4014 5.4285C19.4014 2.86563 21.4807 0.770203 24.0597 0.770203C26.6225 0.770203 28.718 2.84951 28.718 5.4285C28.7019 7.94302 26.7193 9.99009 24.2209 10.0707Z" fill="white"/>
<path d="M29.4793 21.2416C27.674 22.4505 25.1434 22.9018 22.8062 22.5955C23.4187 21.2738 23.7411 19.807 23.7572 18.2596C23.7572 16.6478 23.4026 15.1165 22.7256 13.7786C25.1112 13.4562 27.6418 13.9076 29.4632 15.1165C32.01 16.7928 32.01 19.5491 29.4793 21.2416Z" fill="white"/>
<path d="M5.28275 10.0707C5.39558 10.0546 5.50842 10.0546 5.62125 10.0707C8.11964 9.99009 10.1022 7.94302 10.1022 5.4285C10.1022 2.84951 8.02293 0.770203 5.44394 0.770203C2.88107 0.770203 0.801758 2.84951 0.801758 5.4285C0.801758 7.94302 2.78436 9.99009 5.28275 10.0707Z" fill="white"/>
<path d="M8.14382 18.2474C8.14382 19.8109 8.48231 21.2938 9.09482 22.6316C6.82209 22.8734 4.45264 22.3899 2.71182 21.2454C0.16507 19.553 0.16507 16.7967 2.71182 15.1042C4.43652 13.9437 6.87045 13.4762 9.1593 13.7341C8.49843 15.0881 8.14382 16.6194 8.14382 18.2474Z" fill="white"/>
<path d="M15.5034 23.1268C15.3744 23.1107 15.2294 23.1107 15.0843 23.1268C12.1185 23.0301 9.74902 20.5962 9.74902 17.5981C9.76514 14.5356 12.2313 12.0533 15.31 12.0533C18.3725 12.0533 20.8548 14.5356 20.8548 17.5981C20.8387 20.5962 18.4854 23.0301 15.5034 23.1268Z" fill="white"/>
<path d="M10.2649 26.4644C7.83097 28.0924 7.83097 30.7681 10.2649 32.38C13.0373 34.2336 17.5828 34.2336 20.3552 32.38C22.7891 30.752 22.7891 28.0763 20.3552 26.4644C17.5989 24.6107 13.0534 24.6107 10.2649 26.4644Z" fill="white"/>
</svg>
