<svg width="28" height="27" viewBox="0 0 28 27" fill="none" xmlns="http://www.w3.org/2000/svg">
<path opacity="0.4" d="M13.9053 4.28749V26.3287C13.6715 26.3287 13.424 26.2875 13.2315 26.1775L13.1765 26.15C10.5365 24.7062 5.93027 23.1937 2.94652 22.795L2.54777 22.74C1.22777 22.575 0.155273 21.3375 0.155273 20.0175V3.40748C0.155273 1.77123 1.48902 0.533735 3.12527 0.671235C6.01277 0.904985 10.3853 2.36249 12.8328 3.88874L13.1765 4.09498C13.3828 4.21873 13.644 4.28749 13.9053 4.28749Z" fill="#F9B171"/>
<path d="M27.6553 3.4212V20.0174C27.6553 21.3374 26.5828 22.5749 25.2628 22.7399L24.809 22.7949C21.8115 23.1937 17.1915 24.7199 14.5515 26.1774C14.3728 26.2874 14.1528 26.3287 13.9053 26.3287V4.28745C14.1665 4.28745 14.4278 4.2187 14.634 4.09495L14.8678 3.9437C17.3153 2.4037 21.7015 0.932448 24.589 0.684948H24.6715C26.3078 0.547448 27.6553 1.7712 27.6553 3.4212Z" fill="#F9B171"/>
<path d="M8.06152 9.70493H4.96777C4.40402 9.70493 3.93652 9.23743 3.93652 8.67368C3.93652 8.10993 4.40402 7.64243 4.96777 7.64243H8.06152C8.62527 7.64243 9.09277 8.10993 9.09277 8.67368C9.09277 9.23743 8.62527 9.70493 8.06152 9.70493Z" fill="#F9B171"/>
<path d="M9.09277 13.8299H4.96777C4.40402 13.8299 3.93652 13.3624 3.93652 12.7987C3.93652 12.2349 4.40402 11.7674 4.96777 11.7674H9.09277C9.65652 11.7674 10.124 12.2349 10.124 12.7987C10.124 13.3624 9.65652 13.8299 9.09277 13.8299Z" fill="#F9B171"/>
</svg>
