<svg width="30" height="21" viewBox="0 0 30 21" fill="none" xmlns="http://www.w3.org/2000/svg">
<path d="M20.5127 3.69909V15.8866C20.5127 16.8809 19.7029 17.7931 18.7087 17.9161L18.3909 17.9571C16.7099 18.1826 14.3421 18.8797 12.4355 19.6792C11.7693 19.9559 11.0312 19.4537 11.0312 18.7259V4.46785C11.0312 4.0886 11.2465 3.74009 11.5848 3.55559C13.4606 2.54081 16.2999 1.6388 18.2269 1.47479H18.2884C19.5184 1.47479 20.5127 2.46906 20.5127 3.69909Z" fill="white"/>
<path opacity="0.4" d="M8.93818 3.55559C7.0624 2.54081 4.22309 1.6388 2.29605 1.47479H2.2243C0.99427 1.47479 0 2.46906 0 3.69909V15.8866C0 16.8809 0.809767 17.7931 1.80404 17.9161L2.12179 17.9571C3.80283 18.1826 6.17063 18.8797 8.07717 19.6792C8.74343 19.9559 9.48145 19.4537 9.48145 18.7259V4.46785C9.48145 4.07835 9.27644 3.74009 8.93818 3.55559ZM3.08531 6.6614H5.39161C5.81187 6.6614 6.16038 7.00991 6.16038 7.43016C6.16038 7.86067 5.81187 8.19893 5.39161 8.19893H3.08531C2.66505 8.19893 2.31655 7.86067 2.31655 7.43016C2.31655 7.00991 2.66505 6.6614 3.08531 6.6614ZM6.16038 11.274H3.08531C2.66505 11.274 2.31655 10.9357 2.31655 10.5052C2.31655 10.085 2.66505 9.73646 3.08531 9.73646H6.16038C6.58064 9.73646 6.92914 10.085 6.92914 10.5052C6.92914 10.9357 6.58064 11.274 6.16038 11.274Z" fill="white"/>
<path d="M22.9997 17.451L22.9997 16.6185C22.9997 16.3423 23.2236 16.1185 23.4997 16.1185L28.5576 16.1185C28.8338 16.1185 29.0576 16.3423 29.0576 16.6185L29.0576 17.451C29.0576 19.1115 27.6943 20.4748 26.0236 20.4748C24.363 20.4748 22.9997 19.1115 22.9997 17.451Z" fill="white"/>
<path d="M29.0576 4.16672C29.0576 3.70546 28.8629 2.99819 28.6169 2.60869L27.7866 1.21466C26.8128 -0.404877 25.2343 -0.404877 24.2708 1.21466L23.4303 2.60869C23.1945 2.99819 22.9997 3.70546 22.9997 4.16672L22.9997 14.0809C22.9997 14.3571 23.2236 14.5809 23.4997 14.5809L28.5576 14.5809C28.8338 14.5809 29.0576 14.3571 29.0576 14.0809L29.0576 4.16672Z" fill="white"/>
</svg>
