<svg width="375" height="508" viewBox="0 0 375 508" fill="none" xmlns="http://www.w3.org/2000/svg">
<g clip-path="url(#clip0_293_2077)">
<rect width="375" height="508" fill="#FFEBC2"/>
<path d="M218.882 0C199.926 2.9141 180.854 5.56852 161.466 7.38623C106.934 12.6662 55.8656 27.6118 5.72001 51.3574C-66.5554 85.4898 -133.81 127.499 -209 152.803V310.741C-130.002 271.213 -71.6623 204.449 -3.97443 146.34C118.36 40.7974 279.386 53.1174 428.986 16.1862C446.095 11.8007 462.483 6.26098 478.41 0L218.882 0Z" fill="#FFF4E0"/>
<path d="M406.134 104.129C326.934 139.3 247.734 166.565 165.88 193.831C93.72 218.442 35.64 263.308 -26.8256 311.664C-82.7705 354.222 -138.744 400.761 -209 406.877V528H-171.203C-149.189 492.742 -111.998 469.228 -73.48 454.138C-38.28 440.952 -3.97442 428.632 29.4656 409.301C38.2656 404.915 45.3056 397.875 54.1056 391.701C98.1056 363.57 136.826 339.824 180.826 311.664C206.36 295.824 229.24 281.773 256.506 274.733C340.12 251.882 406.971 207.016 480.92 164.805C513.177 146.455 547.713 136.818 583 133.298V74.7857C522.439 72.8237 462.31 78.7673 406.134 104.129Z" fill="#FFF4E0"/>
<path d="M420.214 395.221C367.414 425.112 307.574 424.246 252.149 443.578C225.749 453.243 192.136 459.648 158.638 485.327C142.827 497.445 133.796 513.545 120.668 528H583V325.802C576.306 326.321 569.555 327.158 562.746 328.37C508.214 337.17 466.84 369.715 420.214 395.221Z" fill="#FFF4E0"/>
<path d="M309.148 409.591C317.289 418.556 329.881 410.917 333.794 401.889C336.886 394.787 337.454 386.612 338.527 379.036C339.758 370.513 340.862 361.99 341.872 353.468C345.564 322.06 349.856 289.232 342.503 258.013C340.894 251.258 334.109 222.029 321.897 229.51C320.319 230.488 321.771 232.982 323.348 232.003C334.52 225.185 341.967 269.945 342.598 276.037C344.239 292.041 343.513 308.203 342.125 324.206C340.578 341.662 338.527 359.086 336.066 376.416C334.993 384.023 334.456 392.167 331.743 399.396C328.902 407.003 318.646 415.747 311.231 407.571C309.937 406.182 307.917 408.203 309.148 409.591Z" fill="#FFCE5C"/>
<path d="M-6.2635 330.204C-13.4269 315.747 -12.0384 299.396 -7.93601 284.244C-3.95984 269.566 2.09909 255.141 9.48341 241.852C23.9049 215.936 47.257 193.115 77.8356 189.232C79.6659 189.011 79.6659 186.107 77.8356 186.36C46.1841 190.4 21.9799 213.506 6.9904 240.431C-1.02505 254.825 -7.652 270.703 -11.5335 286.707C-15.1941 301.732 -15.7621 317.546 -8.72493 331.688C-7.93601 333.329 -5.44302 331.845 -6.2635 330.204Z" fill="#FFCE5C"/>
<path d="M567.473 355.046C555.418 354.225 542.764 353.184 533.549 354.257C513.637 356.561 495.018 365.179 475.674 370.387C455.793 375.722 435.155 377.489 414.643 379.194C399.685 380.456 384.727 381.719 369.737 381.719C356.01 381.751 342.283 380.772 328.618 379.541C306.939 377.615 284.849 375.564 262.696 372.818C212.615 366.631 162.377 356.972 116.651 337.653C105.543 332.95 94.5609 327.931 83.7369 322.597C32.7409 297.47 -14.91 265.4 -57.5118 227.49C-73.5427 213.222 -88.8478 198.165 -103.364 182.319L-103.427 182.256C-106.33 179.068 -102.859 174.144 -98.946 175.88L-77.6451 185.318C-74.2685 186.802 -70.2292 186.328 -67.5154 183.803C-64.2334 180.741 -65.3695 176.922 -66.6633 173.576C-70.8919 162.591 -76.7615 152.269 -80.7061 141.189C-82.9151 134.939 -84.5876 125.122 -84.8716 115.747C-85.0294 110.476 -77.8976 108.929 -75.941 113.79C-72.2489 122.944 -62.2769 139.895 -53.1254 151.701C-51.6107 153.658 -48.6443 151.637 -49.8435 149.459C-57.638 135.507 -66.3477 117.389 -66.9789 107.288C-67.1682 104.163 -64.9592 101.29 -61.8667 101.006C-57.9221 100.627 -56.218 104.984 -55.0819 108.487C-50.8849 121.271 -44.1632 133.487 -33.497 141.473C-38.4199 133.866 -43.753 123.197 -46.4353 114.453C-47.9501 109.529 -41.5125 106.183 -38.5146 110.318C-35.3589 114.674 -32.361 121.177 -30.2151 124.933C-17.971 146.271 -1.78233 165.274 17.278 180.615C29.0172 190.084 41.7977 198.134 54.5152 206.183C78.3091 221.176 105.858 235.097 133.881 245.671C149.849 251.637 165.943 256.561 181.563 260.002C203.274 264.769 225.427 267.799 247.77 269.756C281.883 272.755 316.374 273.291 350.266 273.765C397.633 274.428 446.357 274.522 490.568 257.224C499.783 253.626 518.055 247.218 534.496 243.272C539.387 242.104 541.722 249.175 537.115 251.227C524.271 257.003 509.503 263.222 497.322 267.578C495.554 268.209 494.166 269.693 493.85 271.555C493.125 275.88 499.878 274.996 504.201 273.891L557.185 260.381C562.771 258.96 566.463 266.063 562.171 269.945C559.71 272.155 556.649 274.017 553.777 275.311C542.827 280.236 525.597 285.949 510.67 291.378C505.842 293.146 507.735 300.501 512.784 299.585C527.522 296.965 549.012 290.652 567.031 285.728C572.648 284.181 575.961 291.883 571.07 295.071C558.51 303.184 545.32 309.75 531.529 315.368C515.025 322.123 518.307 335.854 529.92 337.843C536.515 338.979 542.7 339.579 546.771 339.611C552.672 339.674 561.761 341.41 569.713 344.535C575.457 346.839 573.532 355.456 567.473 355.046Z" fill="#F6A460"/>
<path d="M142.338 286.138C148.902 306.34 169.351 312.117 184.908 305.393C201.097 298.765 213.72 283.518 222.871 267.104C207.314 265.179 190.494 263.948 175.315 260.002C164.333 257.161 153.099 253.279 141.865 248.638C138.457 260.791 139.119 274.049 142.338 286.138Z" fill="#F6A460"/>
<path d="M264.653 378.973C263.99 376.953 263.327 374.901 262.664 372.817C256.921 354.794 251.493 335.539 250.168 316.915C248.748 296.965 248.022 281.561 247.738 269.756C243.73 269.409 226.816 267.515 222.84 267.073C212.11 283.487 206.146 296.587 187.117 303.184C168.846 309.907 150.48 306.309 142.78 286.107C138.993 274.017 138.204 260.76 142.243 248.638C139.435 247.66 136.658 246.65 133.849 245.608C117.503 259.213 104.754 277.142 95.2866 296.018C90.9317 304.667 87.0818 313.537 83.7052 322.597C69.3153 360.949 63.0039 402.363 61.3629 443.019C59.0908 499.49 61.6154 557.35 71.5874 613L421.175 599.553C354.179 536.233 293.685 468.272 264.653 378.973Z" fill="#FFCE5C"/>
<path d="M188.79 216.884C182.131 210.507 182.573 198.512 189.673 192.515C193.555 189.232 198.856 187.717 202.359 184.087C210.469 175.69 204.915 162.307 205.073 150.848C205.199 139.737 212.489 129.984 221.641 123.197C238.271 110.792 249.221 117.641 262.538 112.938C294.316 101.732 288.983 84.024 301.7 70.7033C314.418 57.4142 333.92 52.4269 352.539 52.3953C366.36 52.3953 379.33 59.7185 393.152 59.3082C409.278 58.8347 410.572 40.6845 441.371 38.9168C462.798 37.7173 483.563 49.2703 493.535 67.673C503.538 86.0758 498.363 116.537 480.912 128.816C468.195 137.749 442.413 141.505 426.918 139.611C410.698 137.622 401.231 125.343 387.788 134.434C372.356 144.851 371.978 168.336 357.177 179.541C345.596 188.317 329.313 186.644 314.765 184.939C300.249 183.235 283.587 182.572 273.047 192.515C265.883 199.302 262.444 210.349 253.071 213.695C239.944 218.367 224.544 204.352 212.426 211.17C209.176 213.001 206.872 216.094 203.842 218.272C200.813 220.45 196.237 221.524 193.492 219.062L188.79 216.884Z" fill="#4F3422"/>
<path d="M191.472 197.439C199.961 190.873 201.665 179.983 200.876 169.819C199.772 155.362 195.417 140.148 206.903 128.5C224.859 110.318 254.27 115.369 274.056 100.343C284.912 92.1047 288.352 78.4368 297.44 68.6831C306.781 58.6452 319.877 52.269 333.573 51.2904C356.325 49.6806 388.072 62.7172 405.175 40.716C410.477 33.8662 413.412 18.1466 401.483 16.1579C397.791 15.5582 393.31 17.0418 391.795 20.7349C390.249 24.5228 394.383 26.9849 397.728 25.9117C399.495 25.3435 398.738 22.5657 396.971 23.1339C396.213 22.5342 395.487 21.9029 394.73 21.3031C395.519 20.1983 396.56 19.5039 397.854 19.1567C399.243 18.7147 400.915 18.7779 402.272 19.2829C405.68 20.5455 407.069 24.365 407.1 27.7109C407.163 33.3612 403.882 38.6326 399.748 42.2627C391.543 49.4281 379.867 51.2273 369.358 50.8169C356.357 50.3119 343.419 47.0922 330.386 48.702C320.824 49.9015 311.609 53.5947 303.815 59.245C295.515 65.274 289.961 73.0075 284.975 81.8775C281.977 87.1805 278.916 92.452 274.277 96.4608C269.702 100.406 264.242 103.121 258.594 105.141C240.354 111.707 217.948 112.086 204 127.363C196.048 136.107 195.322 147.06 196.647 158.329C198.036 170.356 201.223 186.328 190.052 194.914C188.569 196.05 189.989 198.544 191.472 197.439Z" fill="#4F3422"/>
<path d="M234.768 207.698C244.267 212.37 255.533 211.738 264.148 205.394C268.818 201.953 272.447 197.06 277.559 194.188C284.723 190.179 292.928 191.505 300.533 193.462C312.556 196.524 323.98 199.87 336.539 198.26C347.174 196.903 356.578 192.231 363.773 184.213C371.346 175.754 376.522 164.927 385.894 158.203C397.255 150.059 412.181 150.848 425.214 153.531C448.03 158.172 476.021 170.04 495.239 150.249C500.414 144.914 508.651 129.857 498.868 125.186C495.681 123.67 491.452 123.828 489.306 126.953C487.286 129.92 487.981 133.992 491.105 135.76C492.714 136.675 494.166 134.182 492.557 133.266C488.202 130.804 493.219 126.48 496.533 127.364C498.521 127.9 499.751 129.194 500.162 131.404C500.572 133.74 499.909 136.549 499.152 138.727C497.416 143.936 493.661 148.355 489.306 151.606C480.376 158.266 469.425 159.371 458.633 158.045C437.774 155.457 417.009 144.567 395.677 150.438C376.9 155.615 371.22 174.238 357.84 186.076C349.73 193.241 339.001 195.956 328.366 195.829C317.51 195.672 307.759 191.852 297.251 189.706C286.742 187.559 278.033 189.106 270.017 196.334C265.568 200.312 261.592 204.605 255.785 206.593C249.316 208.803 242.342 208.203 236.251 205.204C234.547 204.384 233.096 206.877 234.768 207.698Z" fill="#4F3422"/>
<path d="M83.2635 336.359C72.187 324.996 53.7262 326.479 38.2002 329.825C22.6742 333.171 5.47573 337.338 -8.21996 329.32C-9.16667 325.564 -5.79008 321.997 -2.22415 320.482C1.37333 318.967 5.41261 318.588 8.72609 316.536C19.5501 309.781 14.8481 291.599 23.6209 282.319C30.6897 274.87 44.417 275.564 49.5607 266.663C55.6512 256.12 44.6378 240.021 53.3791 231.562C55.6196 229.384 58.7122 228.374 61.4892 227.016C76.1632 219.914 83.7369 200.911 78.0251 185.634C84.7151 185.413 90.774 189.958 94.5924 195.451C98.4108 200.943 100.525 207.414 103.271 213.506C109.014 226.164 122.994 236.959 133.849 245.64C135.269 246.776 131.577 248.449 132.208 250.154C132.808 251.795 132.492 253.594 132.145 255.299C128.705 273.039 125.203 290.905 118.386 307.635C111.57 324.364 101.062 340.053 86.1036 350.217L83.2635 336.359Z" fill="#FFCE5C"/>
<path d="M240.543 276.132C261.875 252.269 291.918 235.507 324.39 229.352C313.282 238.38 301.164 249.775 302.868 263.506C303.373 267.515 305.077 271.461 304.604 275.501C303.183 287.654 283.366 293.525 284.66 305.678C285.512 313.758 295.894 319.251 295.326 327.363C294.758 335.318 283.681 340.81 285.228 348.638C286.206 353.594 291.886 356.372 294.632 360.696C298.671 367.041 295.768 375.122 296.336 382.477C297.093 392.641 306.592 407.95 317.069 410.349C285.859 411.296 253.576 388.632 238.429 362.938C223.25 337.243 224.701 303.594 242.026 279.131L240.543 276.132Z" fill="#FFCE5C"/>
<path d="M270.017 392.83C248.211 378.626 226.879 362.969 221.199 335.98C215.834 310.539 226.5 284.213 247.486 269.061C248.59 268.241 247.517 266.378 246.381 267.199C225.491 282.287 214.351 307.887 218.516 333.455C223.25 362.559 245.687 379.604 268.913 394.692C270.112 395.45 271.185 393.588 270.017 392.83Z" fill="#4F3422"/>
<path d="M80.3602 336.927C92.0363 303.91 109.582 271.966 133.723 246.397C134.67 245.387 133.155 243.841 132.177 244.882C107.783 270.766 90.0798 302.994 78.2775 336.359C77.8041 337.654 79.8869 338.222 80.3602 336.927Z" fill="#4F3422"/>
<path d="M64.0453 316.347C66.3805 316.22 68.4633 316.852 70.3882 318.177C71.5243 318.967 72.6288 317.104 71.4927 316.315C69.3153 314.8 66.7276 314.042 64.0768 314.2C62.6568 314.232 62.6568 316.41 64.0453 316.347Z" fill="#4F3422"/>
<path d="M70.2621 300.217C72.6919 302.584 75.2796 304.731 78.0251 306.688C79.1611 307.508 80.2341 305.614 79.1296 304.825C76.5103 302.963 74.0805 300.911 71.8084 298.67C70.767 297.723 69.2522 299.238 70.2621 300.217Z" fill="#4F3422"/>
<path d="M102.324 255.709C105.543 257.13 108.793 258.518 112.012 259.939C113.274 260.476 114.379 258.613 113.116 258.077C109.898 256.656 106.647 255.267 103.429 253.847C102.166 253.31 101.062 255.173 102.324 255.709Z" fill="#4F3422"/>
<path d="M111.602 249.364C112.517 252.174 114.379 254.51 116.966 255.93C118.197 256.593 119.27 254.731 118.071 254.068C115.988 252.9 114.442 251.069 113.684 248.796C113.274 247.471 111.191 248.039 111.602 249.364Z" fill="#4F3422"/>
<path d="M116.43 238.601C117.787 242.041 119.964 244.851 122.93 247.029C124.066 247.849 125.139 245.987 124.035 245.166C121.573 243.335 119.649 240.873 118.544 238.032C118.008 236.738 115.893 237.306 116.43 238.601Z" fill="#4F3422"/>
<path d="M238.366 285.097C241.3 284.371 244.235 283.645 247.17 282.919C248.527 282.571 247.959 280.488 246.602 280.835C243.667 281.561 240.732 282.287 237.798 283.013C236.441 283.329 237.009 285.412 238.366 285.097Z" fill="#4F3422"/>
<path d="M234.106 296.745C237.356 296.334 240.512 296.587 243.667 297.565C244.993 297.976 245.561 295.892 244.235 295.482C240.922 294.44 237.545 294.156 234.106 294.566C232.749 294.756 232.717 296.934 234.106 296.745Z" fill="#4F3422"/>
<path d="M227.321 343.651C229.561 345.987 231.802 348.323 234.042 350.69C235.021 351.7 236.535 350.153 235.589 349.175C233.348 346.839 231.108 344.503 228.867 342.136C227.889 341.094 226.374 342.641 227.321 343.651Z" fill="#4F3422"/>
<path d="M227.889 338.158C230.855 338.695 233.822 339.232 236.788 339.8C238.145 340.052 238.744 337.969 237.356 337.717C234.39 337.18 231.423 336.643 228.457 336.075C227.1 335.823 226.5 337.906 227.889 338.158Z" fill="#4F3422"/>
<path d="M226.721 328.91C229.34 330.33 232.149 331.088 235.084 331.151C236.472 331.183 236.472 329.036 235.084 328.973C232.496 328.91 230.066 328.247 227.794 327.016C226.563 326.385 225.49 328.247 226.721 328.91Z" fill="#4F3422"/>
<path d="M199.993 184.592C201.255 168.273 188.253 156.404 185.255 141.158C181.942 124.333 195.575 117.989 206.525 108.992C216.907 100.47 219.432 87.5593 219.652 74.5543C219.747 68.3359 218.548 61.0442 213.436 56.846C209.933 53.9735 204.442 53.0897 200.813 56.2462C197.626 59.024 196.9 64.9899 200.813 67.5467C204.316 69.8194 209.112 67.9255 210.185 63.9798C210.69 62.1806 207.882 61.423 207.408 63.2222C206.115 67.9571 200.308 64.8005 201.16 60.9811C202.17 56.4672 207.314 56.6882 210.406 58.4558C214.824 60.9495 216.276 66.3157 216.686 71.0821C217.254 78.0896 216.087 85.8548 214.288 92.6729C211.164 104.542 200.277 109.371 191.598 116.694C183.046 123.954 180.049 133.519 183.046 144.409C186.865 158.203 198.257 169.661 197.089 184.655C196.963 186.454 199.835 186.454 199.993 184.592Z" fill="#4F3422"/>
<path d="M216.97 151.574C219.242 139.8 227.857 130.362 239.439 127.174C241.237 126.669 240.48 123.891 238.681 124.396C226.185 127.837 216.654 138.064 214.193 150.817C213.846 152.647 216.623 153.405 216.97 151.574Z" fill="#251404"/>
<path d="M280.936 119.788C287.594 115.621 294.474 111.202 298.418 104.163C300.627 100.249 302.111 95.9874 304.604 92.2311C307.381 88.0644 310.82 84.5291 314.702 81.4041C316.153 80.2362 314.102 78.216 312.651 79.3523C306.213 84.4975 301.479 90.8106 298.04 98.2917C293.969 107.193 287.594 112.212 279.453 117.294C277.906 118.273 279.358 120.766 280.936 119.788Z" fill="#251404"/>
<path d="M332.595 72.1236C344.428 62.9696 359.734 67.6413 372.483 71.9027C374.25 72.5024 375.007 69.6931 373.24 69.1249C359.229 64.4848 343.324 60.1918 330.543 70.1034C329.06 71.2082 331.143 73.2284 332.595 72.1236Z" fill="#251404"/>
<path d="M193.302 270.924L206.556 184.024C206.556 184.024 163.576 192.988 156.002 225.185L173.895 226.827L155.118 257.035C148.239 268.114 153.446 282.761 165.785 286.991C166.006 287.054 166.195 287.148 166.416 287.212C178.502 291.284 191.377 283.518 193.302 270.924Z" fill="#F6A460"/>
<path d="M213.53 223.512C209.081 226.038 203.432 224.459 200.908 220.009C198.383 215.558 199.961 209.908 204.41 207.382C208.86 204.857 214.509 206.435 217.033 210.886C219.526 215.337 217.98 220.987 213.53 223.512Z" fill="#F6A460"/>
<path d="M204.947 217.105C208.292 216.473 211.637 215.873 214.982 215.305C216.339 215.084 215.771 213.001 214.414 213.222C211.069 213.79 207.724 214.39 204.379 215.021C203.022 215.274 203.59 217.357 204.947 217.105Z" fill="#4F3422"/>
<path d="M173.863 226.827L156.191 255.33L187.149 227.111L173.863 226.827Z" fill="#4F3422"/>
<path d="M168.435 208.582C168.435 208.582 180.017 211.612 189.768 212.37C189.768 212.37 171.591 222.313 161.777 218.683L168.435 208.582Z" fill="white"/>
<path d="M185.445 191.252C179.733 193.241 173.926 195.735 168.719 198.796C168.057 199.175 167.962 200.312 168.719 200.659C170.865 201.701 172.98 202.711 175.125 203.752C176.388 204.352 177.461 202.49 176.23 201.89C174.084 200.848 171.97 199.838 169.824 198.796C169.824 199.428 169.824 200.028 169.824 200.659C174.873 197.692 180.49 195.293 186.013 193.336C187.338 192.894 186.77 190.81 185.445 191.252Z" fill="#4F3422"/>
<path d="M189.232 203.594C191.725 201.921 196.237 204.131 197.468 206.53C198.099 207.761 199.961 206.688 199.33 205.425C197.563 202.016 191.567 199.365 188.127 201.7C186.991 202.49 188.096 204.384 189.232 203.594Z" fill="#4F3422"/>
</g>
<defs>
<clipPath id="clip0_293_2077">
<rect width="375" height="508" fill="white"/>
</clipPath>
</defs>
</svg>
