<svg width="375" height="508" viewBox="0 0 375 508" fill="none" xmlns="http://www.w3.org/2000/svg">
<g clip-path="url(#clip0_293_2078)">
<rect width="375" height="508" fill="#DDD1FF"/>
<g opacity="0.48" clip-path="url(#clip1_293_2078)">
<path d="M184.073 -21.3568C88.1487 2.4022 -2.37859 74.8769 -54.2151 169.495C-67.7096 194.14 -78.93 221.106 -79.622 248.105C-80.2998 275.08 -68.4327 284.499 -45.8108 292.847C-15.7405 303.968 71.0546 286.964 102.44 288.021C119.452 288.58 175.386 282.944 177.497 300.966C178.885 313.013 169.511 319.887 161.045 329.462C139.416 353.896 116.682 364.724 106.919 395.782C100.589 415.853 105.783 437.085 116.788 452.019C127.778 466.977 143.89 476.474 160.611 483.593C203.127 501.705 251.063 506.207 298.902 505.583C358.139 504.812 420.386 495.671 474.99 461.804C489.541 452.784 504.941 439.444 506.848 422.247C508.949 403.341 493.942 390.354 480.339 380.583C458.266 364.719 436.179 348.879 414.084 333.003C400.754 323.421 386.152 311.156 387.055 292.696C387.833 277.252 399.512 263.487 411.506 253.348C430.523 237.254 453.165 229.233 473.982 217.298C491.831 207.094 521.899 184.835 520.691 160.314C520.442 155.198 518.366 150.651 515.685 146.796C502.93 128.381 477.491 121.299 456.819 116.19C430.008 109.551 402.131 106.131 373.836 105.981C342.082 105.816 308.907 109.641 280.105 98.7652C270.629 95.1792 261.023 88.9179 259.321 78.0228C256.159 57.8011 280.617 41.2403 286.969 20.4668C294.636 -4.6183 272.685 -25.5793 249.873 -28.9669C227.069 -32.3175 212.307 -27.1568 184.073 -21.3568Z" fill="#F6F1FF"/>
</g>
<path d="M214.252 162.777C221.053 149.101 231.381 137.662 244.297 129.553C245.566 128.765 244.399 126.757 243.13 127.545C229.884 135.857 219.226 147.576 212.247 161.608C211.562 162.955 213.567 164.125 214.252 162.777Z" fill="white"/>
<path d="M292.206 340.848C294.642 307.191 272.007 273.967 243.383 259.859C240.363 258.384 237.166 261.511 238.257 264.866C239.095 267.408 240.668 269.874 242.343 271.908C244.576 274.628 248.864 278.67 251.326 282.61C252.595 284.644 250.818 287.262 248.611 286.601C230.365 281.059 213.719 271.196 213.719 271.196C205.471 265.273 195.346 260.037 187.886 258.537C184.181 257.8 181.567 262.223 183.775 265.502C187.049 270.383 191.286 275.975 194.128 277.119C189.586 276.407 185.171 271.476 180.273 273.128C178.243 273.814 176.721 275.772 176.695 278.085C176.619 284.898 188.419 285.686 190.956 291.888C187.861 291.075 181.288 289.88 178.218 289.016C178.142 288.99 178.065 288.965 177.964 288.94C171.468 287.186 168.499 297.201 174.69 299.972L205.142 313.623C208.72 315.224 207.248 320.969 203.416 320.334L184.815 317.258C182.532 316.927 180.248 318.198 179.436 320.512C177.862 324.909 183.039 327.451 186.871 328.951C197.25 333.019 205.471 343.034 207.882 354.6C208.339 356.787 219.657 525.733 219.784 527.893C222.474 569.583 281.041 593.859 303.753 549.196L292.206 340.848Z" fill="#F6A460"/>
<path d="M236.075 317.233C241.988 321.504 249.728 325.546 253.483 332.002C257.061 338.154 257.67 345.602 258.254 352.517C258.381 353.991 260.69 354.016 260.563 352.517C259.954 345.17 259.244 337.341 255.463 330.833C251.479 323.969 243.46 319.75 237.217 315.225C236.05 314.335 234.883 316.343 236.075 317.233Z" fill="#4F3422"/>
<path d="M250.693 264.918C247.699 264.536 245.237 262.579 243.791 259.961C243.055 258.664 241.05 259.834 241.786 261.13C243.664 264.511 246.861 266.748 250.693 267.231C252.19 267.434 252.165 265.096 250.693 264.918Z" fill="#4F3422"/>
<path d="M218.87 289.88C209.583 284.287 200.295 278.695 191.008 273.102C189.713 272.34 188.546 274.348 189.84 275.11C199.128 280.703 208.416 286.295 217.703 291.888C218.972 292.651 220.165 290.642 218.87 289.88Z" fill="#4F3422"/>
<path d="M214.76 301.776C205.675 298.268 196.87 294.176 188.318 289.524C186.998 288.812 185.831 290.82 187.151 291.532C195.88 296.286 204.888 300.455 214.151 304.013C215.546 304.547 216.13 302.31 214.76 301.776Z" fill="#4F3422"/>
<path d="M238.918 289.833C236.862 291.943 235.34 294.384 234.248 297.104C233.69 298.502 235.949 299.086 236.482 297.714C237.42 295.375 238.791 293.265 240.567 291.46C241.607 290.418 239.958 288.766 238.918 289.833Z" fill="white"/>
<path d="M228.336 302.133C226.611 304.116 224.911 306.099 223.185 308.056C222.221 309.174 223.845 310.827 224.835 309.708C226.56 307.725 228.26 305.743 229.986 303.785C230.95 302.641 229.301 300.989 228.336 302.133Z" fill="white"/>
<path d="M211.664 325.773C211.055 327.832 210.116 329.714 208.848 331.468C207.959 332.688 209.989 333.832 210.852 332.637C212.223 330.73 213.238 328.62 213.897 326.383C214.329 324.96 212.096 324.35 211.664 325.773Z" fill="white"/>
<path d="M180.679 350.608C195.651 322.773 189.028 285.685 169.97 262.628C167.966 260.188 164.007 261.662 163.677 264.942C163.423 267.433 163.829 270.153 164.464 272.542C165.327 275.72 167.433 280.829 168.042 285.151C168.346 287.388 165.834 288.938 164.21 287.515C150.735 275.771 140.281 260.925 140.281 260.925C135.484 252.689 128.836 244.326 123.05 240.182C120.183 238.123 116.224 240.894 116.859 244.554C117.797 249.994 119.269 256.4 121.274 258.459C117.671 256.121 115.793 250.198 110.971 249.715C108.967 249.511 106.911 250.63 106.023 252.562C103.333 258.358 113.128 263.569 112.925 269.848C110.591 267.967 105.439 264.433 103.13 262.501C103.079 262.45 103.003 262.4 102.953 262.349C98.0804 258.358 91.6857 265.78 95.9234 270.534L116.706 293.921C119.142 296.666 115.691 301.013 112.672 299.005L97.9535 289.243C96.1264 288.074 93.6904 288.303 92.1171 289.955C89.0973 293.107 92.5484 297.276 95.2383 300.022C102.572 307.495 105.744 319.214 103.359 330.018C102.902 332.077 0.52316 556.115 -0.187365 557.997C-13.865 594.653 40.2365 619.158 76.7524 589.696L180.679 350.608Z" fill="#4F3422"/>
<path d="M141.627 308.792C145.078 314.791 150.255 321.35 150.914 328.391C151.549 334.975 149.189 341.559 147.057 347.66C146.55 349.084 148.808 349.694 149.29 348.27C151.65 341.534 154.086 334.34 153.097 327.12C152.107 320.053 147.108 313.673 143.631 307.623C142.896 306.326 140.891 307.496 141.627 308.792Z" fill="#4F3422"/>
<path d="M174.438 269.746C172.052 268.271 170.606 265.78 170.352 262.984C170.225 261.51 167.891 261.484 168.043 262.984C168.348 266.594 170.149 269.822 173.27 271.754C174.539 272.542 175.707 270.534 174.438 269.746Z" fill="#4F3422"/>
<path d="M137.644 278.894C131.833 270.556 126.047 262.193 120.236 253.855C119.399 252.635 117.368 253.804 118.231 255.025C124.042 263.362 129.828 271.726 135.639 280.064C136.477 281.284 138.481 280.14 137.644 278.894Z" fill="#4F3422"/>
<path d="M129.573 287.439C123.153 280.957 117.19 274.094 111.658 266.823C110.769 265.654 108.739 266.798 109.653 267.993C115.286 275.416 121.377 282.457 127.924 289.066C128.989 290.159 130.639 288.507 129.573 287.439Z" fill="#4F3422"/>
<path d="M154.745 286.426C152.182 287.443 149.899 288.892 147.894 290.824C146.828 291.866 148.452 293.518 149.543 292.476C151.218 290.849 153.172 289.527 155.354 288.688C156.75 288.129 156.141 285.867 154.745 286.426Z" fill="white"/>
<path d="M140.713 292.981C138.48 294.024 136.272 295.04 134.039 296.083C132.694 296.718 133.861 298.726 135.206 298.091C137.439 297.049 139.647 296.032 141.88 294.99C143.225 294.354 142.058 292.346 140.713 292.981Z" fill="white"/>
<path d="M117.62 306.634C116.301 308.159 114.803 309.43 113.053 310.447C111.758 311.184 112.926 313.192 114.22 312.455C116.123 311.362 117.823 309.964 119.244 308.286C120.234 307.142 118.584 305.49 117.62 306.634Z" fill="white"/>
<path d="M96.6095 341.126C92.0926 339.983 87.9309 342.626 86.0024 346.77C83.8962 351.345 85.4948 356.455 87.8548 360.598C93.8181 371.097 103.334 380.376 112.85 387.62C122.62 395.094 133.76 400.814 145.687 403.864C150.559 405.11 156.598 406.304 160.887 402.873C164.82 399.746 165.226 394.382 165.429 389.73C165.505 388.23 163.171 388.23 163.12 389.73C162.866 395.424 161.876 401.983 154.974 402.72C150.381 403.203 145.357 401.474 141.043 400.076C132.44 397.255 124.345 393.01 116.986 387.773C109.551 382.511 102.877 376.207 97.0409 369.216C93.7928 365.327 90.164 361.056 88.3369 356.252C86.3323 350.964 88.4131 341.406 96.0005 343.338C97.4469 343.745 98.0559 341.508 96.6095 341.126Z" fill="#ED7E1C"/>
<path d="M94.9606 349.821C87.5254 349.796 75.9286 353.533 78.8469 363.396C80.0142 367.285 83.4399 370.056 86.6626 372.217C91.3064 375.318 96.3309 377.987 101.431 380.275C121.072 389.096 143.784 392.629 165.1 388.969C169.185 388.282 173.88 386.808 175.732 382.69C177.229 379.385 176.417 375.42 173.195 373.564C171.9 372.827 170.733 374.835 172.027 375.572C175.199 377.403 174.438 381.724 172.002 383.834C170.099 385.512 167.46 386.147 165.023 386.605C159.923 387.545 154.619 387.876 149.443 387.952C139.343 388.079 129.243 386.808 119.499 384.215C109.729 381.622 100.34 377.708 91.6363 372.547C87.6777 370.183 82.0442 367.158 80.9277 362.252C79.1006 354.168 89.2764 352.109 94.9606 352.135C96.4577 352.16 96.4577 349.821 94.9606 349.821Z" fill="#ED7E1C"/>
<path d="M310.325 122.818C308.042 119.412 305.682 116.412 303.296 113.794C263.685 62.3429 207.731 116.361 191.49 155.153C188.902 151.06 185.882 146.917 185.171 145.773C179.005 135.757 172.331 126.326 163.78 118.547C155.735 111.226 146.372 105.125 136.374 101.516C122.29 94.6268 106.582 92.2373 91.4329 98.1094C71.2337 105.939 59.51 126.402 62.7074 149.433C67.1228 181.336 86.2562 210.544 103.461 236.066C124.371 267.13 182.583 314.437 182.583 314.437C183.471 313.979 184.334 313.522 185.222 313.039C186.212 313.878 186.745 314.335 186.745 314.335C218.592 298.422 249.601 271.654 273.48 241.074C294.821 213.747 332.91 156.449 310.325 122.818Z" fill="#C2B1FF"/>
<path d="M371.558 448.3C368.97 444.055 307.712 342.755 305.149 338.509C292.334 317.411 282.971 294.71 273.911 271.73C264.751 248.47 269.699 220.762 286.599 202.739C287.361 201.926 290.507 200.451 291.598 200.197C293.857 199.689 295.938 202.104 295.963 204.417C295.988 206.73 294.644 208.84 293.273 210.696C290.989 213.822 288.477 216.898 287.259 220.584C286.041 224.27 286.447 228.795 289.365 231.337C293.578 231.617 295.506 226.253 296.166 222.084C298.577 207.01 300.556 191.3 305.073 176.709C306.139 173.277 310.453 169.769 313.752 171.167C315.832 172.057 316.416 174.7 316.67 176.963C318.167 190.588 316.238 204.112 315.046 217.788C315.528 206.578 318.091 195.621 318.573 184.411C318.7 181.386 318.395 177.243 319.766 174.548C321.136 171.853 324.105 169.718 327.049 170.277C329.688 170.786 331.565 173.277 332.2 175.87C332.86 178.463 332.987 182.225 332.707 184.894C331.388 197.096 331.134 209.425 331.946 221.677C332.098 211.84 333.19 202.027 335.245 192.418C335.93 189.266 337.021 185.708 339.94 184.36C343.441 182.759 347.654 185.453 349.176 188.961C350.724 192.469 350.344 196.486 350.141 200.324C348.466 230.269 350.521 278.772 463.038 425.879L371.558 448.3Z" fill="#4F3422"/>
<path d="M325.906 170.56C324.536 175.924 326.211 181.542 330.449 185.152C331.591 186.118 333.24 184.491 332.098 183.499C328.495 180.398 326.972 175.797 328.165 171.171C328.52 169.722 326.287 169.111 325.906 170.56Z" fill="white"/>
<path d="M311.39 171.88C308.98 176.736 310.35 182.404 314.638 185.709C315.831 186.624 316.973 184.591 315.806 183.701C312.583 181.21 311.619 176.685 313.395 173.05C314.055 171.702 312.05 170.533 311.39 171.88Z" fill="white"/>
<path d="M341.487 183.953C340.624 187.308 340.928 190.74 342.425 193.892C343.187 195.494 344.253 196.994 345.547 198.214C346.409 199.053 348.922 199.942 349.353 200.807C349.48 200.273 349.632 199.739 349.759 199.205C349.683 199.256 349.581 199.307 349.505 199.358C350.038 199.485 350.571 199.637 351.104 199.764C351.053 199.714 351.028 199.637 350.977 199.586C350.14 198.366 348.11 199.536 348.972 200.756C349.023 200.807 349.049 200.883 349.099 200.934C349.455 201.442 350.114 201.696 350.698 201.34C350.774 201.29 350.876 201.239 350.952 201.188C351.51 200.857 351.662 200.171 351.358 199.586C350.977 198.824 350.393 198.697 349.683 198.29C348.008 197.299 346.587 196.129 345.496 194.502C343.491 191.554 342.882 187.969 343.745 184.512C344.1 183.114 341.867 182.504 341.487 183.953Z" fill="white"/>
<path d="M331.769 202.716C331.743 210.012 332.226 217.257 333.215 224.502C333.418 225.976 335.651 225.341 335.448 223.892C334.509 216.876 334.053 209.834 334.078 202.742C334.103 201.217 331.769 201.217 331.769 202.716Z" fill="white"/>
<path d="M315.806 191.756C314.944 203.576 314.081 215.397 313.193 227.217C313.091 228.717 315.4 228.692 315.527 227.217C316.39 215.397 317.253 203.576 318.141 191.756C318.243 190.281 315.908 190.281 315.806 191.756Z" fill="white"/>
<path d="M346.917 233.674C344.329 233.775 341.867 234.284 339.457 235.25C338.086 235.784 338.695 238.046 340.066 237.487C342.273 236.597 344.532 236.089 346.892 235.987C348.414 235.936 348.414 233.597 346.917 233.674Z" fill="white"/>
<path d="M329.384 236.521C326.846 237.055 324.308 237.284 321.72 237.207C320.223 237.156 320.223 239.495 321.72 239.521C324.511 239.597 327.277 239.343 329.993 238.758C331.439 238.453 330.83 236.216 329.384 236.521Z" fill="white"/>
<path d="M311.036 236.703C308.016 236.983 304.996 237.263 301.977 237.542C300.505 237.669 300.479 240.008 301.977 239.855C304.996 239.576 308.016 239.296 311.036 239.017C312.508 238.889 312.508 236.576 311.036 236.703Z" fill="white"/>
<path d="M279.367 244.251C277.337 245.242 275.155 245.802 272.896 245.903C271.399 245.979 271.399 248.293 272.896 248.216C275.586 248.089 278.124 247.428 280.534 246.234C281.879 245.598 280.712 243.59 279.367 244.251Z" fill="white"/>
<path d="M282.818 209.324C288.147 211.688 293.908 206.985 292.157 201.24C291.725 199.817 289.467 200.427 289.924 201.85C291.015 205.46 287.589 208.917 284.011 207.316C282.641 206.731 281.448 208.714 282.818 209.324Z" fill="white"/>
<path d="M415.985 528.696L315.604 367.284L397.898 318.63L510.201 485.096L415.985 528.696Z" fill="#C2B1FF"/>
<path d="M298.831 310.623C299.44 314.284 296.953 317.766 293.299 318.376C289.645 318.986 286.168 316.495 285.559 312.835C284.95 309.174 287.437 305.692 291.091 305.081C294.745 304.471 298.222 306.963 298.831 310.623Z" fill="white"/>
<path d="M312.533 307.777C313.142 311.438 310.655 314.92 307.001 315.531C303.347 316.141 299.871 313.649 299.262 309.989C298.653 306.328 301.14 302.846 304.794 302.236C308.473 301.626 311.924 304.091 312.533 307.777Z" fill="white"/>
<path d="M334.914 298.627C335.523 302.288 333.036 305.77 329.382 306.38C325.728 306.99 322.252 304.499 321.643 300.839C321.034 297.178 323.52 293.695 327.174 293.085C330.854 292.475 334.305 294.966 334.914 298.627Z" fill="white"/>
<path d="M354.151 290.515C354.76 294.175 352.273 297.658 348.619 298.268C344.964 298.878 341.488 296.387 340.879 292.726C340.27 289.066 342.757 285.583 346.411 284.973C350.09 284.363 353.541 286.829 354.151 290.515Z" fill="white"/>
<path d="M370.67 279.28C371.279 282.94 368.792 286.423 365.138 287.033C361.484 287.643 358.007 285.152 357.398 281.491C356.789 277.831 359.276 274.348 362.93 273.738C366.584 273.128 370.061 275.619 370.67 279.28Z" fill="white"/>
<path d="M8.12396 448.3C10.7123 444.055 71.9698 342.755 74.5327 338.509C87.3476 317.411 96.7113 294.71 105.77 271.73C114.931 248.47 109.983 220.762 93.0825 202.739C92.3212 201.926 89.1746 200.451 88.0835 200.197C85.825 199.689 83.7442 202.104 83.7188 204.417C83.6934 206.73 85.0383 208.84 86.4086 210.696C88.6925 213.822 91.2047 216.898 92.4227 220.584C93.6408 224.27 93.2348 228.795 90.3165 231.337C86.1041 231.617 84.1756 226.253 83.5158 222.084C81.1051 207.01 79.1258 191.3 74.6088 176.709C73.5431 173.277 69.2292 169.769 65.9303 171.167C63.8495 172.057 63.2658 174.7 63.0121 176.963C61.5149 190.588 63.4435 204.112 64.6361 217.788C64.154 206.578 61.591 195.621 61.1089 184.411C60.982 181.386 61.2865 177.243 59.9162 174.548C58.5459 171.853 55.5769 169.718 52.6333 170.277C49.9942 170.786 48.1164 173.277 47.482 175.87C46.8222 178.463 46.6954 182.225 46.9745 184.894C48.294 197.096 48.5478 209.425 47.7358 221.677C47.5835 211.84 46.4923 202.027 44.4369 192.418C43.7517 189.266 42.6606 185.708 39.7424 184.36C36.2405 182.759 32.0281 185.453 30.5055 188.961C28.9576 192.469 29.3382 196.486 29.5412 200.324C31.216 230.269 29.1606 278.772 -83.3562 425.879L8.12396 448.3Z" fill="#C0A091"/>
<path d="M51.5416 171.171C52.7343 175.797 51.2117 180.398 47.6084 183.499C46.4664 184.465 48.1159 186.118 49.2578 185.152C53.4956 181.542 55.1704 175.924 53.8001 170.56C53.4194 169.111 51.161 169.722 51.5416 171.171Z" fill="#4F3422"/>
<path d="M66.2846 173.05C68.0863 176.659 67.0966 181.21 63.8739 183.701C62.7066 184.591 63.8739 186.624 65.0412 185.709C69.3043 182.404 70.6746 176.736 68.2893 171.88C67.6295 170.533 65.6248 171.702 66.2846 173.05Z" fill="#4F3422"/>
<path d="M35.9361 184.565C36.8242 188.022 36.1899 191.581 34.1852 194.555C33.1955 196.03 31.8759 197.224 30.3534 198.139C29.5414 198.622 28.7547 198.775 28.2979 199.639C28.0188 200.198 28.1457 200.885 28.704 201.241C28.7801 201.292 28.8816 201.342 28.9577 201.393C29.516 201.749 30.2011 201.495 30.5564 200.986C30.6072 200.936 30.6325 200.859 30.6833 200.809C31.5461 199.588 29.516 198.419 28.6786 199.639C28.6278 199.69 28.6025 199.766 28.5517 199.817C29.0846 199.69 29.6175 199.538 30.1504 199.41C30.0743 199.36 29.9728 199.309 29.8966 199.258C30.0235 199.792 30.1758 200.326 30.3026 200.859C30.734 199.995 33.2209 199.105 34.109 198.267C35.4032 197.046 36.469 195.547 37.2303 193.945C38.7274 190.793 39.032 187.361 38.1692 184.006C37.8139 182.506 35.5808 183.116 35.9361 184.565Z" fill="#4F3422"/>
<path d="M45.6045 202.714C45.6299 209.806 45.1985 216.848 44.2342 223.864C44.0312 225.338 46.2643 225.948 46.4673 224.474C47.4316 217.254 47.9391 210.01 47.9137 202.689C47.9137 201.214 45.5792 201.214 45.6045 202.714Z" fill="#4F3422"/>
<path d="M61.565 191.756C62.4278 203.576 63.2906 215.397 64.1787 227.217C64.2802 228.692 66.6148 228.717 66.4879 227.217C65.6252 215.397 64.7624 203.576 63.8742 191.756C63.7727 190.281 61.4635 190.281 61.565 191.756Z" fill="#4F3422"/>
<path d="M32.7635 235.987C35.1235 236.089 37.4073 236.597 39.615 237.487C41.0107 238.046 41.5943 235.784 40.224 235.25C37.8133 234.284 35.3519 233.775 32.7635 233.674C31.2663 233.597 31.2663 235.936 32.7635 235.987Z" fill="white"/>
<path d="M49.6886 238.758C52.4292 239.343 55.1698 239.597 57.9612 239.521C59.4584 239.47 59.4584 237.156 57.9612 237.207C55.3728 237.284 52.8352 237.08 50.2977 236.521C48.8512 236.216 48.2422 238.453 49.6886 238.758Z" fill="white"/>
<path d="M68.6444 239.04C71.6641 239.32 74.6838 239.599 77.7036 239.879C79.2008 240.006 79.1754 237.693 77.7036 237.566C74.6838 237.286 71.6641 237.007 68.6444 236.727C67.1726 236.574 67.1726 238.888 68.6444 239.04Z" fill="white"/>
<path d="M99.1225 246.26C101.533 247.455 104.071 248.116 106.761 248.243C108.258 248.319 108.258 245.98 106.761 245.93C104.502 245.828 102.32 245.269 100.29 244.277C98.9702 243.591 97.7776 245.599 99.1225 246.26Z" fill="white"/>
<path d="M95.6952 207.314C92.0918 208.916 88.6661 205.459 89.7826 201.849C90.214 200.425 87.9809 199.79 87.5495 201.239C85.7986 206.984 91.5589 211.686 96.8878 209.322C98.2328 208.712 97.0401 206.73 95.6952 207.314Z" fill="#4F3422"/>
<path d="M64.0773 367.284L-18.2167 318.63L-33.6453 340.669C-6.01091 357.497 21.1667 375.012 48.9533 391.357L64.0773 367.284Z" fill="white"/>
<path d="M-33.6198 340.697L-121.248 463.546L-33.6198 520.176L48.9789 391.385C21.1923 375.039 -6.01077 357.525 -33.6198 340.697Z" fill="#C2B1FF"/>
<path d="M32.1808 395.35C32.1808 397.943 30.0746 400.053 27.4863 400.053C24.8979 400.053 22.7917 397.943 22.7917 395.35C22.7917 392.757 24.8979 390.647 27.4863 390.647C30.0746 390.647 32.1808 392.757 32.1808 395.35Z" fill="#4F3422"/>
<path d="M22.7912 412.993C22.7912 415.586 20.685 417.696 18.0966 417.696C15.5083 417.696 13.4021 415.586 13.4021 412.993C13.4021 410.4 15.5083 408.29 18.0966 408.29C20.685 408.29 22.7912 410.4 22.7912 412.993Z" fill="#4F3422"/>
<path d="M214.175 155.532C220.367 141.576 229.756 129.451 241.733 119.994C242.9 119.079 241.251 117.427 240.084 118.342C227.979 127.9 218.413 140.229 212.17 154.337C211.561 155.71 213.566 156.905 214.175 155.532Z" fill="white"/>
<path d="M253.966 112.725C258.102 110.869 262.416 109.624 266.882 108.937C268.354 108.708 267.72 106.471 266.273 106.7C261.579 107.412 257.113 108.785 252.799 110.742C251.429 111.327 252.596 113.335 253.966 112.725Z" fill="white"/>
<path d="M89.8343 121.063C99.4771 111.429 112.723 106.599 126.299 107.718C127.797 107.845 127.771 105.506 126.299 105.404C112.165 104.235 98.2337 109.37 88.1849 119.411C87.1444 120.479 88.7939 122.105 89.8343 121.063Z" fill="white"/>
</g>
<defs>
<clipPath id="clip0_293_2078">
<rect width="375" height="508" fill="white"/>
</clipPath>
<clipPath id="clip1_293_2078">
<rect width="680.504" height="493.194" fill="white" transform="translate(81.5967 -130) rotate(30)"/>
</clipPath>
</defs>
</svg>
