<svg width="375" height="508" viewBox="0 0 375 508" fill="none" xmlns="http://www.w3.org/2000/svg">
<g clip-path="url(#clip0_293_2074)">
<rect width="375" height="508" fill="#FFC89E"/>
<path opacity="0.48" d="M135.806 489.935C73.8496 486.523 12.3987 475.433 -46.6303 457.067C-63.0243 451.949 -79.4715 446.164 -93.3638 436.354C-107.256 426.544 -118.487 412.096 -120.669 395.542C-121.601 388.398 -120.696 380.668 -116.252 374.857C-107.496 363.367 -89.7976 363.981 -75.3464 366.62C-39.8971 373.071 -5.45902 384.746 26.3709 401.14C-24.6208 379.442 -74.202 343.961 -89.5581 292.06C-91.5275 285.422 -92.8848 278.438 -91.9533 271.587C-89.3718 252.874 -69.518 239.759 -50.0635 238.533C-30.6355 237.307 -11.8995 245.33 4.97351 254.714C34.0356 270.894 60.3565 291.713 82.499 316.078C33.4501 291.9 4.46786 240.425 -8.22684 188.498C-9.77043 182.233 -11.1011 175.622 -9.47769 169.358C-6.04453 156.243 9.79058 149.072 23.6297 150.565C37.4688 152.057 49.5779 160.028 60.596 168.238C99.9309 197.534 134.875 234.534 151.854 279.771C115.952 242.265 104.695 184.259 124.043 136.436C129.312 123.401 137.11 110.686 149.246 103.089C161.408 95.4913 178.627 94.3717 189.645 103.355C198.322 110.446 201.489 121.908 203.804 132.704C214.157 181.3 216.073 231.629 209.473 280.917C208.541 238.319 223.658 195.482 251.336 162.24C265.627 145.073 283.246 130.545 302.86 119.376C331.603 103.035 364.87 132.225 350.685 161.441C350.578 161.654 350.498 161.841 350.392 162.054C329.394 204.945 298.069 243.064 259.639 272.494C283.246 236.107 316.885 205.878 356.087 185.832C371.204 178.101 389.328 171.81 404.95 178.421C425.229 187.005 430.632 214.248 422.062 234.108C413.493 253.967 395.183 268.069 377.618 281.237C348.422 303.149 319.254 325.061 290.059 346.973C332.933 314.345 378.336 280.571 432.096 272.201C442.794 270.521 454.957 270.308 463.074 277.212C472.708 285.422 472.309 300.857 465.709 311.6C459.108 322.342 447.878 329.486 437.019 336.257C401.277 358.569 365.535 380.881 329.819 403.193C369.5 377.496 415.143 350.572 461.663 360.355C476.461 363.474 491.79 372.004 495.276 386.292C499.322 402.9 485.722 418.707 471.484 428.837C439.042 451.949 399.175 462.398 360.319 472.395C287.69 491.081 210.511 509.741 138.76 488.682L135.806 489.935Z" fill="#FFEEE2"/>
<path d="M121.196 357.932C114.541 356.43 108.865 355.27 107.612 355.179C93.9585 354.132 80.0775 355.588 67.0399 359.912C-4.5531 383.76 2.35319 478.401 15.1857 537.133C15.6643 539.295 19.3796 558.66 21.0207 558.728C21.0207 558.728 51.1987 560.048 92.7733 561.868C93.571 492.919 97.1723 423.764 121.196 357.932Z" fill="#ED7E1C"/>
<path d="M235.253 390.382C228.62 396.753 221.349 402.533 213.44 407.244C198.009 416.437 176.72 421.102 159.284 419.145C133.527 416.278 135.1 383.214 146.246 364.85C146.77 364.008 132.57 360.458 121.174 357.909C97.1725 423.764 93.5712 492.919 92.7734 561.868C125.96 563.324 166.395 565.077 204.573 566.761C219.252 506.435 233.68 446.133 240.814 384.26C238.17 387.241 235.982 389.699 235.253 390.382Z" fill="white"/>
<path d="M368.524 441.195C368.569 425.516 365.88 408.745 360.045 394.159C343.018 351.606 286.036 333.97 253.122 370.061C252.575 370.675 245.897 378.435 240.814 384.238C233.68 446.133 219.252 506.435 204.573 566.738C272.314 569.696 332.875 572.336 332.898 572.336C333.263 572.336 341.24 550.126 342.243 547.828C346.642 537.702 350.563 527.371 353.982 516.857C360.364 497.219 365.606 476.443 367.749 455.872C368.227 451.116 368.501 446.201 368.524 441.195Z" fill="#ED7E1C"/>
<path d="M117.709 278.265C118.666 280.859 119.624 283.43 120.604 286.024C121.06 287.276 123.088 286.73 122.61 285.478C121.652 282.884 120.695 280.313 119.715 277.719C119.259 276.467 117.253 276.99 117.709 278.265Z" fill="#4F3422"/>
<path d="M138.382 401.213C140.707 416.551 155.637 420.692 169.267 420.26C186.498 419.691 203.206 414.116 217.543 404.672C224.403 400.144 230.74 394.842 236.575 389.085C238.489 387.196 251.914 369.811 253.1 370.061C234.364 366.215 214.83 365.419 196.254 365.168C178.111 364.941 161.654 364.44 146.246 364.873C139.681 375.75 136.399 388.061 138.382 401.213Z" fill="#F6A460"/>
<path d="M259.869 473.03C256.587 498.494 250.023 523.411 240.336 547.214C239.834 548.465 241.84 548.989 242.341 547.76C252.097 523.798 258.638 498.699 261.943 473.03C262.126 471.711 260.029 471.711 259.869 473.03Z" fill="#4F3422"/>
<path d="M131.476 381.097C126.849 394.136 126.803 408.29 131.362 421.375C131.795 422.626 133.824 422.103 133.368 420.829C128.923 408.063 128.969 394.409 133.482 381.666C133.915 380.369 131.909 379.846 131.476 381.097Z" fill="#4F3422"/>
<path d="M143.534 430.636C156.617 435.779 172.185 433.913 185.496 430.75C199.924 427.314 214.716 421.443 225.885 411.476C226.888 410.589 225.406 409.11 224.403 409.997C213.508 419.736 198.989 425.403 184.926 428.748C171.957 431.82 156.822 433.663 144.081 428.634C142.85 428.133 142.303 430.136 143.534 430.636Z" fill="#4F3422"/>
<path d="M103.965 299.382C103.554 295.149 100.409 291.645 96.762 289.779C93.1152 287.89 88.9896 287.367 84.9552 286.866C75.7696 285.706 66.6068 284.545 57.4212 283.408C51.3583 282.634 44.999 281.746 40.1441 277.878C35.2892 274.009 32.8275 266.113 36.634 261.13C41.6712 254.553 53.2729 257.398 57.9911 250.571C61.5696 245.406 58.6065 237.828 53.8883 233.778C49.1701 229.727 43.1072 227.861 37.9332 224.47C30.3431 219.487 24.8727 211.067 23.2544 201.851C22.9581 200.213 22.7986 198.484 23.3 196.891C24.4625 193.25 28.8615 191.725 32.44 192.522C36.0413 193.318 39.05 195.753 42.0587 197.96C47.0504 201.601 53.2501 204.832 59.0395 202.853C64.6694 200.941 67.8605 194.774 69.5699 188.881C71.2794 182.964 72.1227 176.593 75.4733 171.518C79.0974 165.989 85.5934 162.643 91.9983 163.03C98.4031 163.394 104.512 167.468 107.566 173.384C110.256 178.641 110.529 184.807 111.714 190.656C112.877 196.481 115.521 202.671 120.763 204.992C124.615 206.698 129.014 205.947 133.208 205.879C137.402 205.811 142.189 206.858 144.263 210.681C145.471 212.933 145.448 215.664 145.288 218.235C144.514 230.114 141.459 241.697 140.32 253.552C139.157 265.385 140.16 278.106 146.656 287.89L103.965 299.382Z" fill="#4F3422"/>
<path d="M223.105 365.669L134.234 271.711C121.698 275.602 108.296 271.552 99.2243 262.495C91.11 285.569 82.8133 325.005 105.333 355.338L127.397 333.674C127.397 333.674 136.058 360.822 144.605 387.492C152.606 412.454 183.239 421.602 203.662 405.15C203.936 404.922 204.209 404.718 204.46 404.49C221.372 390.791 238.057 381.484 223.105 365.669Z" fill="#F6A460"/>
<path d="M134.234 271.711L107.384 243.335C107.384 243.335 103.327 250.821 99.2241 262.495C108.319 271.574 121.698 275.602 134.234 271.711Z" fill="#F6A460"/>
<path d="M167.079 277.969C165.438 286.616 157.119 292.305 148.457 290.666C139.796 289.028 134.098 280.722 135.739 272.075C137.38 263.428 145.699 257.739 154.361 259.377C163.022 260.993 168.72 269.322 167.079 277.969Z" fill="#F6A460"/>
<path d="M148.343 281.837C151.238 276.763 154.155 271.711 157.141 266.682C157.825 265.522 156.024 264.475 155.34 265.635C152.355 270.642 149.437 275.716 146.542 280.791C145.881 281.974 147.682 283.021 148.343 281.837Z" fill="#4F3422"/>
<path d="M127.396 333.674L145.22 388.538L142.531 316.608L127.396 333.674Z" fill="#4F3422"/>
<path d="M94.1868 279.516C90.5171 289.028 87.3716 299.313 85.6622 309.349C85.5026 310.282 86.3459 310.896 87.1893 310.532C90.9046 308.871 94.6426 307.21 98.3579 305.548C99.5887 305.002 98.5174 303.205 97.3094 303.751C93.5941 305.412 89.8561 307.073 86.1408 308.734C86.6423 309.121 87.1665 309.508 87.6679 309.917C89.3774 299.859 92.5229 289.574 96.1926 280.085C96.694 278.833 94.6654 278.287 94.1868 279.516Z" fill="#4F3422"/>
<path d="M115.954 277.149C117.116 280.449 118.302 283.749 119.464 287.048C119.92 288.3 121.926 287.754 121.47 286.502C120.307 283.202 119.122 279.903 117.96 276.603C117.527 275.352 115.498 275.898 115.954 277.149Z" fill="#4F3422"/>
<path d="M118.211 289.187C120.262 288.027 122.314 286.843 124.388 285.683C125.55 285.023 124.502 283.225 123.339 283.885C121.288 285.046 119.237 286.229 117.162 287.39C115.977 288.049 117.026 289.847 118.211 289.187Z" fill="#4F3422"/>
<path d="M108.729 267.911C113.242 272.758 119.35 275.352 125.983 275.238C127.328 275.215 127.328 273.122 125.983 273.167C119.875 273.281 114.381 270.937 110.21 266.454C109.276 265.453 107.794 266.932 108.729 267.911Z" fill="#4F3422"/>
<path d="M101.162 329.806C101.162 329.806 102.028 318.246 105.356 313.468C111.008 305.344 113.265 304.843 118.302 301.908C120.399 300.679 123.316 300.201 125.755 300.269C128.171 300.315 130.747 302.158 130.679 304.57C130.633 306.937 128.331 308.552 126.257 309.69C117.094 314.787 106.723 319.452 101.868 328.759L101.162 329.806Z" fill="#4F3422"/>
<path d="M132.342 299.564C133.733 302.59 133.687 305.981 132.274 309.007C131.704 310.213 133.505 311.26 134.075 310.054C135.853 306.299 135.853 302.294 134.143 298.517C133.573 297.311 131.795 298.358 132.342 299.564Z" fill="#4F3422"/>
<path d="M45.3867 450.639C43.1985 479.857 44.908 510.031 50.4923 538.817C50.743 540.136 52.7488 539.568 52.4981 538.27C46.9366 509.689 45.2955 479.675 47.4608 450.639C47.5748 449.296 45.4778 449.296 45.3867 450.639Z" fill="#4F3422"/>
<path d="M161.244 315.106C160.856 315.197 164.343 322.433 166.782 327.735C167.466 329.192 168.104 330.739 169.358 331.763C170.589 332.787 172.549 333.219 174.19 332.309C176.31 331.149 176.925 328.281 176.082 326.37C175.216 324.459 173.347 323.275 171.546 322.183C168.173 320.112 161.244 315.106 161.244 315.106Z" fill="#C2B1FF"/>
<path d="M222.534 323.366C222.147 323.457 225.634 330.694 228.073 335.996C228.757 337.452 229.395 338.999 230.648 340.023C231.879 341.047 233.839 341.48 235.481 340.569C237.6 339.409 238.216 336.542 237.372 334.63C236.506 332.719 234.637 331.535 232.837 330.443C229.486 328.372 222.534 323.366 222.534 323.366Z" fill="#C2B1FF"/>
<path d="M64.9659 317.063C64.7152 316.767 59.7007 323.025 55.9855 327.508C54.9598 328.759 53.8657 330.011 53.4554 331.558C53.0679 333.129 53.5466 335.063 55.0509 336.155C57.0339 337.566 59.8831 336.86 61.2279 335.268C62.5726 333.675 62.8462 331.467 63.0513 329.374C63.4616 325.46 64.9659 317.063 64.9659 317.063Z" fill="#C2B1FF"/>
<path d="M126.826 283.339C126.439 283.317 127.669 291.258 128.467 297.016C128.695 298.608 128.877 300.27 129.766 301.612C130.655 302.955 132.41 303.91 134.234 303.524C136.604 303.023 138.017 300.452 137.767 298.381C137.493 296.31 136.057 294.626 134.644 293.056C132.023 290.143 126.826 283.339 126.826 283.339Z" fill="#C2B1FF"/>
<path d="M140.73 260.425C137.516 249.729 141.482 240.058 149.118 232.481C154.907 226.723 162.679 221.74 166.509 214.299C169.837 207.859 166.121 201.533 159.899 198.734C156.047 197.005 151.739 196.845 147.613 196.504C144.308 196.231 140.092 196.686 141.117 191.976C141.687 189.359 143.032 186.401 146.086 186.127C147.408 186.014 147.431 183.92 146.086 184.057C142.895 184.33 140.912 186.401 139.772 189.29C138.792 191.748 137.676 195.958 140.616 197.505C142.257 198.37 144.582 198.347 146.382 198.507C149.642 198.802 152.947 198.871 156.115 199.667C161.859 201.101 167.671 205.879 165.118 212.365C163.249 217.075 158.736 220.921 155.067 224.243C151.443 227.52 147.636 230.683 144.491 234.46C138.2 241.993 135.898 251.527 138.747 260.993C139.089 262.245 141.117 261.699 140.73 260.425Z" fill="#4F3422"/>
<path d="M47.0505 262.814C50.4923 262.518 52.8171 260.493 54.9597 257.921C57.3985 255.031 60.0197 251.686 60.4528 247.818C61.2278 240.718 54.1163 236.326 47.8255 236.053C40.9192 235.78 30.5939 238.283 26.1949 244.132C24.5538 246.316 23.3229 249.707 25.0324 252.233C26.3772 254.235 29.044 254.804 30.9814 253.348C32.0299 252.551 31.0042 250.731 29.9329 251.55C26.4 254.212 26.4911 247.545 27.3801 246.089C28.1322 244.882 29.2035 243.836 30.3432 243.016C31.8931 241.901 33.6938 241.128 35.4944 240.491C40.3038 238.761 46.2071 237.168 51.2444 238.67C56.4412 240.195 59.8602 245.019 57.6037 250.321C55.9398 254.258 51.7003 260.356 47.0505 260.743C45.7285 260.857 45.7285 262.928 47.0505 262.814Z" fill="#4F3422"/>
<rect x="245" y="300" width="116" height="116" rx="58" fill="white"/>
<g filter="url(#filter0_ddddd_293_2074)">
<rect x="255" y="310" width="96" height="96" rx="48" fill="#C0A091"/>
<path fill-rule="evenodd" clip-rule="evenodd" d="M327 338C329.209 338 331 339.791 331 342L331 354C331 356.209 329.209 358 327 358C324.791 358 323 356.209 323 354L323 342C323 339.791 324.791 338 327 338Z" fill="#4F3422"/>
<path fill-rule="evenodd" clip-rule="evenodd" d="M279 338C281.209 338 283 339.791 283 342L283 354C283 356.209 281.209 358 279 358C276.791 358 275 356.209 275 354L275 342C275 339.791 276.791 338 279 338Z" fill="#4F3422"/>
<path fill-rule="evenodd" clip-rule="evenodd" d="M275 374C275 371.791 276.791 370 279 370H327C329.209 370 331 371.791 331 374C331 376.209 329.209 378 327 378H279C276.791 378 275 376.209 275 374Z" fill="#4F3422"/>
</g>
<rect x="189" y="186" width="80" height="80" rx="40" fill="white"/>
<g filter="url(#filter1_ddddd_293_2074)">
<rect x="197" y="194" width="64" height="64" rx="32" fill="#C2B1FF"/>
<path fill-rule="evenodd" clip-rule="evenodd" d="M237.781 210.781C238.822 209.74 240.511 209.74 241.552 210.781L249.552 218.781C250.594 219.822 250.594 221.511 249.552 222.552C248.511 223.594 246.822 223.594 245.781 222.552L237.781 214.552C236.74 213.511 236.74 211.822 237.781 210.781Z" fill="#3C357C"/>
<path fill-rule="evenodd" clip-rule="evenodd" d="M249.552 210.781C250.594 211.822 250.594 213.511 249.552 214.552L241.552 222.552C240.511 223.594 238.823 223.594 237.781 222.552C236.74 221.511 236.74 219.822 237.781 218.781L245.781 210.781C246.823 209.74 248.511 209.74 249.552 210.781Z" fill="#3C357C"/>
<path fill-rule="evenodd" clip-rule="evenodd" d="M208.448 210.781C209.489 209.74 211.177 209.74 212.219 210.781L220.219 218.781C221.26 219.822 221.26 221.511 220.219 222.552C219.177 223.594 217.489 223.594 216.448 222.552L208.448 214.552C207.406 213.511 207.406 211.822 208.448 210.781Z" fill="#3C357C"/>
<path fill-rule="evenodd" clip-rule="evenodd" d="M220.219 210.781C221.26 211.822 221.26 213.511 220.219 214.552L212.219 222.552C211.178 223.594 209.489 223.594 208.448 222.552C207.406 221.511 207.406 219.822 208.448 218.781L216.448 210.781C217.489 209.74 219.178 209.74 220.219 210.781Z" fill="#3C357C"/>
<path fill-rule="evenodd" clip-rule="evenodd" d="M219.259 231.973C222.054 229.829 225.477 228.667 228.999 228.667C232.522 228.667 235.945 229.829 238.74 231.973C241.534 234.117 243.543 237.124 244.454 240.526C244.835 241.948 243.991 243.41 242.569 243.792C241.146 244.173 239.684 243.329 239.303 241.906C238.695 239.638 237.356 237.634 235.493 236.204C233.63 234.775 231.348 234 228.999 234C226.651 234 224.369 234.775 222.506 236.204C220.643 237.634 219.304 239.638 218.696 241.906C218.315 243.329 216.853 244.173 215.43 243.792C214.008 243.41 213.163 241.948 213.545 240.526C214.456 237.124 216.465 234.117 219.259 231.973Z" fill="#3C357C"/>
</g>
</g>
<defs>
<filter id="filter0_ddddd_293_2074" x="238.2" y="306.8" width="129.6" height="158.4" filterUnits="userSpaceOnUse" color-interpolation-filters="sRGB">
<feFlood flood-opacity="0" result="BackgroundImageFix"/>
<feColorMatrix in="SourceAlpha" type="matrix" values="0 0 0 0 0 0 0 0 0 0 0 0 0 0 0 0 0 0 127 0" result="hardAlpha"/>
<feOffset/>
<feColorMatrix type="matrix" values="0 0 0 0 1 0 0 0 0 0.807843 0 0 0 0 0.360784 0 0 0 0.1 0"/>
<feBlend mode="normal" in2="BackgroundImageFix" result="effect1_dropShadow_293_2074"/>
<feColorMatrix in="SourceAlpha" type="matrix" values="0 0 0 0 0 0 0 0 0 0 0 0 0 0 0 0 0 0 127 0" result="hardAlpha"/>
<feOffset dy="2.4"/>
<feGaussianBlur stdDeviation="2.8"/>
<feColorMatrix type="matrix" values="0 0 0 0 1 0 0 0 0 0.807843 0 0 0 0 0.360784 0 0 0 0.1 0"/>
<feBlend mode="normal" in2="effect1_dropShadow_293_2074" result="effect2_dropShadow_293_2074"/>
<feColorMatrix in="SourceAlpha" type="matrix" values="0 0 0 0 0 0 0 0 0 0 0 0 0 0 0 0 0 0 127 0" result="hardAlpha"/>
<feOffset dy="10.4"/>
<feGaussianBlur stdDeviation="5.2"/>
<feColorMatrix type="matrix" values="0 0 0 0 1 0 0 0 0 0.807843 0 0 0 0 0.360784 0 0 0 0.09 0"/>
<feBlend mode="normal" in2="effect2_dropShadow_293_2074" result="effect3_dropShadow_293_2074"/>
<feColorMatrix in="SourceAlpha" type="matrix" values="0 0 0 0 0 0 0 0 0 0 0 0 0 0 0 0 0 0 127 0" result="hardAlpha"/>
<feOffset dy="24"/>
<feGaussianBlur stdDeviation="7.2"/>
<feColorMatrix type="matrix" values="0 0 0 0 1 0 0 0 0 0.807843 0 0 0 0 0.360784 0 0 0 0.05 0"/>
<feBlend mode="normal" in2="effect3_dropShadow_293_2074" result="effect4_dropShadow_293_2074"/>
<feColorMatrix in="SourceAlpha" type="matrix" values="0 0 0 0 0 0 0 0 0 0 0 0 0 0 0 0 0 0 127 0" result="hardAlpha"/>
<feOffset dy="42.4"/>
<feGaussianBlur stdDeviation="8.4"/>
<feColorMatrix type="matrix" values="0 0 0 0 1 0 0 0 0 0.807843 0 0 0 0 0.360784 0 0 0 0.01 0"/>
<feBlend mode="normal" in2="effect4_dropShadow_293_2074" result="effect5_dropShadow_293_2074"/>
<feBlend mode="normal" in="SourceGraphic" in2="effect5_dropShadow_293_2074" result="shape"/>
</filter>
<filter id="filter1_ddddd_293_2074" x="185.8" y="191.867" width="86.4" height="105.6" filterUnits="userSpaceOnUse" color-interpolation-filters="sRGB">
<feFlood flood-opacity="0" result="BackgroundImageFix"/>
<feColorMatrix in="SourceAlpha" type="matrix" values="0 0 0 0 0 0 0 0 0 0 0 0 0 0 0 0 0 0 127 0" result="hardAlpha"/>
<feOffset/>
<feColorMatrix type="matrix" values="0 0 0 0 1 0 0 0 0 0.807843 0 0 0 0 0.360784 0 0 0 0.1 0"/>
<feBlend mode="normal" in2="BackgroundImageFix" result="effect1_dropShadow_293_2074"/>
<feColorMatrix in="SourceAlpha" type="matrix" values="0 0 0 0 0 0 0 0 0 0 0 0 0 0 0 0 0 0 127 0" result="hardAlpha"/>
<feOffset dy="1.6"/>
<feGaussianBlur stdDeviation="1.86667"/>
<feColorMatrix type="matrix" values="0 0 0 0 1 0 0 0 0 0.807843 0 0 0 0 0.360784 0 0 0 0.1 0"/>
<feBlend mode="normal" in2="effect1_dropShadow_293_2074" result="effect2_dropShadow_293_2074"/>
<feColorMatrix in="SourceAlpha" type="matrix" values="0 0 0 0 0 0 0 0 0 0 0 0 0 0 0 0 0 0 127 0" result="hardAlpha"/>
<feOffset dy="6.93333"/>
<feGaussianBlur stdDeviation="3.46667"/>
<feColorMatrix type="matrix" values="0 0 0 0 1 0 0 0 0 0.807843 0 0 0 0 0.360784 0 0 0 0.09 0"/>
<feBlend mode="normal" in2="effect2_dropShadow_293_2074" result="effect3_dropShadow_293_2074"/>
<feColorMatrix in="SourceAlpha" type="matrix" values="0 0 0 0 0 0 0 0 0 0 0 0 0 0 0 0 0 0 127 0" result="hardAlpha"/>
<feOffset dy="16"/>
<feGaussianBlur stdDeviation="4.8"/>
<feColorMatrix type="matrix" values="0 0 0 0 1 0 0 0 0 0.807843 0 0 0 0 0.360784 0 0 0 0.05 0"/>
<feBlend mode="normal" in2="effect3_dropShadow_293_2074" result="effect4_dropShadow_293_2074"/>
<feColorMatrix in="SourceAlpha" type="matrix" values="0 0 0 0 0 0 0 0 0 0 0 0 0 0 0 0 0 0 127 0" result="hardAlpha"/>
<feOffset dy="28.2667"/>
<feGaussianBlur stdDeviation="5.6"/>
<feColorMatrix type="matrix" values="0 0 0 0 1 0 0 0 0 0.807843 0 0 0 0 0.360784 0 0 0 0.01 0"/>
<feBlend mode="normal" in2="effect4_dropShadow_293_2074" result="effect5_dropShadow_293_2074"/>
<feBlend mode="normal" in="SourceGraphic" in2="effect5_dropShadow_293_2074" result="shape"/>
</filter>
<clipPath id="clip0_293_2074">
<rect width="375" height="508" fill="white"/>
</clipPath>
</defs>
</svg>
