<svg width="375" height="508" viewBox="0 0 375 508" fill="none" xmlns="http://www.w3.org/2000/svg">
<g clip-path="url(#clip0_293_2075)">
<rect width="375" height="508" fill="#E1E1E0"/>
<g clip-path="url(#clip1_293_2075)">
<path d="M181.074 -21.3568C85.1489 2.4022 -5.37834 74.8769 -57.2148 169.495C-70.7093 194.14 -81.9298 221.106 -82.6217 248.105C-83.2996 275.08 -71.4325 284.499 -48.8106 292.847C-18.7402 303.968 68.0549 286.964 99.4403 288.021C116.452 288.58 172.386 282.944 174.497 300.966C175.886 313.013 166.511 319.887 158.045 329.462C136.416 353.896 113.682 364.724 103.919 395.782C97.5897 415.853 102.784 437.085 113.788 452.019C124.778 466.977 140.89 476.474 157.611 483.593C200.128 501.705 248.063 506.207 295.903 505.583C355.139 504.812 417.386 495.671 471.99 461.804C486.541 452.784 501.941 439.444 503.849 422.247C505.949 403.341 490.942 390.354 477.339 380.583C455.266 364.719 433.179 348.879 411.085 333.003C397.754 323.421 383.152 311.156 384.056 292.696C384.834 277.252 396.513 263.487 408.507 253.348C427.524 237.254 450.165 229.233 470.982 217.298C488.831 207.094 518.9 184.835 517.691 160.314C517.442 155.198 515.366 150.651 512.686 146.796C499.93 128.381 474.491 121.299 453.819 116.19C427.008 109.551 399.131 106.131 370.836 105.981C339.083 105.816 305.907 109.641 277.106 98.7652C267.629 95.1792 258.023 88.9179 256.322 78.0228C253.159 57.8011 277.617 41.2403 283.969 20.4668C291.636 -4.6183 269.685 -25.5793 246.873 -28.9669C224.069 -32.3175 209.308 -27.1568 181.074 -21.3568Z" fill="#F5F5F5"/>
</g>
<path d="M193.801 243.957C193.783 244.42 194.166 244.855 194.639 244.855C195.115 244.855 195.522 244.503 195.537 244.017C195.555 243.554 195.173 243.118 194.7 243.118C194.224 243.118 193.816 243.471 193.801 243.957Z" fill="#3C214E"/>
<path d="M195.237 239.719C195.232 239.853 195.343 239.981 195.484 239.981C195.622 239.981 195.74 239.878 195.745 239.734C195.75 239.601 195.64 239.472 195.499 239.472C195.36 239.472 195.242 239.576 195.237 239.719Z" fill="#3C214E"/>
<path d="M200.29 252.956C200.273 253.47 200.698 253.955 201.224 253.955C201.75 253.955 202.205 253.562 202.223 253.022C202.24 252.508 201.815 252.023 201.289 252.023C200.763 252.023 200.307 252.416 200.29 252.956Z" fill="#3C214E"/>
<path d="M201.125 248.629C201.115 248.858 201.303 249.072 201.538 249.072C201.772 249.072 201.973 248.899 201.98 248.66C201.991 248.43 201.802 248.216 201.568 248.216C201.334 248.216 201.133 248.39 201.125 248.629Z" fill="#3C214E"/>
<path d="M201.674 243.492C201.663 243.736 201.865 243.965 202.116 243.965C202.366 243.965 202.582 243.779 202.59 243.522C202.6 243.278 202.399 243.049 202.147 243.049C201.898 243.049 201.681 243.236 201.674 243.492Z" fill="#3C214E"/>
<path d="M205.186 259.47C205.173 259.818 205.46 260.147 205.817 260.147C206.175 260.147 206.482 259.881 206.494 259.515C206.507 259.168 206.22 258.839 205.863 258.839C205.506 258.839 205.199 259.106 205.186 259.47Z" fill="#3C214E"/>
<path d="M187.191 258.658C187.174 259.171 187.599 259.657 188.125 259.657C188.651 259.657 189.107 259.264 189.124 258.724C189.142 258.21 188.716 257.724 188.191 257.724C187.664 257.724 187.209 258.117 187.191 258.658Z" fill="#3C214E"/>
<path d="M196.526 259.462C196.516 259.807 196.801 260.134 197.153 260.134C197.507 260.134 197.812 259.87 197.825 259.507C197.835 259.162 197.551 258.835 197.198 258.835C196.843 258.835 196.539 259.1 196.526 259.462Z" fill="#3C214E"/>
<path d="M198.306 266.17C198.301 266.314 198.417 266.448 198.563 266.448C198.709 266.448 198.835 266.339 198.84 266.19C198.845 266.047 198.729 265.914 198.583 265.914C198.437 265.914 198.311 266.022 198.306 266.17Z" fill="#3C214E"/>
<path d="M198.008 266.464C198.008 266.989 198.448 267.43 198.974 267.43C199.5 267.43 199.941 266.989 199.941 266.464C199.941 265.938 199.5 265.497 198.974 265.497C198.448 265.497 198.008 265.938 198.008 266.464Z" fill="#3C214E"/>
<path d="M202.056 264.678C202.056 264.992 202.315 265.252 202.63 265.252C202.945 265.252 203.204 264.992 203.204 264.678C203.204 264.363 202.945 264.104 202.63 264.104C202.315 264.104 202.056 264.363 202.056 264.678Z" fill="#3C214E"/>
<path d="M201.582 272.051C201.582 272.506 201.962 272.886 202.417 272.886C202.873 272.886 203.253 272.506 203.253 272.051C203.253 271.595 202.873 271.215 202.417 271.215C201.962 271.215 201.582 271.595 201.582 272.051Z" fill="#3C214E"/>
<path d="M202.699 276.687C202.699 276.874 202.853 277.027 203.039 277.027C203.225 277.027 203.379 276.874 203.379 276.687C203.379 276.501 203.225 276.348 203.039 276.348C202.853 276.348 202.699 276.501 202.699 276.687Z" fill="#3C214E"/>
<path d="M194.694 272.009C194.694 272.294 194.93 272.531 195.215 272.531C195.499 272.531 195.736 272.294 195.736 272.009C195.736 271.725 195.499 271.488 195.215 271.488C194.93 271.488 194.694 271.725 194.694 272.009Z" fill="#3C214E"/>
<path d="M178.187 203.422C177.712 203.489 177.249 203.766 176.954 204.161C176.67 204.539 176.532 205.035 176.546 205.641C176.554 205.885 176.59 206.152 176.657 206.479C176.73 206.824 176.838 207.151 176.934 207.426C177.327 208.523 177.901 209.537 178.454 210.481C179.33 211.971 180.397 213.481 181.623 214.968C182.561 216.11 183.633 217.263 184.804 218.396C185.858 219.423 187.023 220.442 188.267 221.433C188.309 221.469 188.352 221.494 188.407 221.496C188.39 221.432 188.373 221.368 188.354 221.303C188.231 220.96 188.109 220.615 187.992 220.269C187.826 219.831 187.67 219.389 187.527 218.942C187.104 217.928 186.704 216.891 186.319 215.884C186.016 215.101 185.715 214.321 185.4 213.544C184.99 212.53 184.607 211.639 184.225 210.818C184.021 210.38 183.81 209.945 183.588 209.514L183.457 209.261L183.284 208.918C182.831 208.015 182.34 207.056 181.753 206.142C181.411 205.609 181.054 205.128 180.687 204.713C180.299 204.27 179.911 203.94 179.498 203.703C179.159 203.507 178.791 203.404 178.437 203.404C178.354 203.404 178.271 203.409 178.187 203.422Z" fill="#3F3C36"/>
<path d="M189.692 188.115C189.513 188.12 189.327 188.185 189.123 188.314C188.848 188.488 188.632 188.742 188.453 188.968C187.93 189.635 187.595 190.511 187.457 191.568C187.331 192.527 187.356 193.594 187.535 194.922C187.686 196.04 187.943 197.218 188.37 198.743C189.017 201.033 189.85 203.225 190.583 205.07C190.917 205.913 191.262 206.756 191.61 207.599C191.926 208.261 192.236 208.928 192.54 209.595L192.736 209.965H192.742C192.751 209.965 192.758 209.964 192.767 209.962C192.798 209.606 192.821 209.25 192.836 208.893C192.832 208.712 192.83 208.532 192.83 208.351C192.789 207.297 192.752 206.243 192.777 205.191C192.744 204.592 192.714 203.993 192.689 203.394C192.661 202.81 192.639 202.228 192.613 201.647C192.555 200.215 192.495 198.735 192.392 197.283C192.316 196.204 192.215 195.21 192.084 194.243C191.987 193.483 191.851 192.686 191.675 191.8C191.585 191.337 191.458 190.725 191.28 190.121C191.204 189.864 191.116 189.612 191.013 189.363C190.9 189.095 190.789 188.88 190.658 188.694C190.537 188.523 190.402 188.382 190.238 188.271C190.094 188.171 189.911 188.115 189.719 188.115H189.692Z" fill="#3F3C36"/>
<path d="M219.402 204.193C218.879 204.442 218.481 204.91 218.194 205.293C217.714 205.925 217.341 206.631 217.042 207.238C216.682 207.965 216.345 208.758 215.947 209.808C215.617 210.686 215.288 211.652 214.938 212.767C214.342 214.68 213.81 216.663 213.31 218.827C213.096 219.761 212.915 220.614 212.756 221.437C212.653 221.983 212.519 222.702 212.421 223.423C212.368 223.823 212.321 224.182 212.338 224.537C212.341 224.582 212.361 224.623 212.391 224.653C212.823 224.029 213.245 223.397 213.669 222.768C213.765 222.612 213.861 222.458 213.959 222.305C214.161 221.953 214.373 221.608 214.598 221.271C214.812 220.908 215.039 220.533 215.265 220.156L215.554 219.675C216.106 218.754 216.651 217.833 217.186 216.902C217.842 215.759 218.408 214.73 218.917 213.756C219.516 212.604 220.014 211.566 220.435 210.58C220.895 209.498 221.21 208.592 221.423 207.723C221.529 207.296 221.597 206.903 221.627 206.526C221.66 206.143 221.647 205.811 221.59 205.514C221.534 205.207 221.421 204.938 221.26 204.712C221.121 204.518 220.92 204.346 220.661 204.203C220.477 204.099 220.268 204.047 220.044 204.047C219.822 204.047 219.609 204.098 219.402 204.193Z" fill="#3F3C36"/>
<path d="M227.439 219.099C227.137 219.222 226.861 219.406 226.654 219.552C226.322 219.786 226.018 220.058 225.788 220.269C225.036 220.959 224.374 221.712 223.881 222.29C222.907 223.43 221.928 224.706 220.805 226.294C220.202 227.308 219.6 228.325 219.042 229.367C219.049 229.372 219.054 229.377 219.059 229.382C219.492 229.183 219.914 228.967 220.33 228.733C220.927 228.401 221.505 228.046 222.084 227.683L222.046 227.706C222.39 227.49 222.734 227.273 223.078 227.057C223.299 226.903 223.522 226.749 223.747 226.599C224.12 226.324 224.48 226.05 224.832 225.773C225.967 224.89 226.843 224.102 227.588 223.294C227.983 222.867 228.292 222.471 228.539 222.084C228.653 221.907 228.756 221.721 228.844 221.53C228.927 221.351 228.995 221.157 229.042 220.956C229.118 220.662 229.113 220.332 229.028 219.949C228.959 219.648 228.854 219.421 228.705 219.263C228.552 219.096 228.356 218.996 228.134 218.973C228.099 218.971 228.064 218.968 228.031 218.968C227.855 218.968 227.666 219.008 227.439 219.099Z" fill="#3F3C36"/>
<path d="M170.003 218.258C169.861 218.278 169.711 218.321 169.525 218.389C169.373 218.45 169.253 218.515 169.155 218.591C169.064 218.663 168.996 218.744 168.948 218.835C168.898 218.922 168.878 219.028 168.885 219.142C168.9 219.388 169.061 219.605 169.2 219.763C169.419 220.013 169.686 220.216 169.939 220.4C170.247 220.616 170.591 220.83 171.024 221.072C171.399 221.283 171.805 221.492 172.338 221.749C172.512 221.832 172.685 221.912 172.864 221.996C173.055 222.076 173.249 222.157 173.443 222.237C173.641 222.32 173.84 222.401 174.042 222.484L174.163 222.529C174.188 222.539 174.21 222.546 174.235 222.557C174.498 222.642 174.76 222.729 175.024 222.814C175.87 223.04 176.727 223.227 177.58 223.41C177.567 223.407 177.553 223.405 177.54 223.402C177.701 223.437 177.862 223.471 178.022 223.505C178.017 223.497 178.01 223.49 178.003 223.483C177.318 222.816 176.576 222.152 175.738 221.452C174.543 220.453 173.584 219.75 172.63 219.172C172.089 218.842 171.631 218.613 171.183 218.45C170.916 218.356 170.566 218.245 170.206 218.245C170.138 218.245 170.07 218.248 170.003 218.258Z" fill="#3F3C36"/>
<g filter="url(#filter0_d_293_2075)">
<path d="M193.305 238.848C193.249 238.621 193.111 238.428 193.033 238.209C193.005 238.132 192.944 238.063 192.875 238.009C193.077 237.19 192.839 236.314 192.432 235.598C192.182 235.166 191.835 234.791 191.432 234.498C191.319 234.416 191.196 234.343 191.065 234.282C191.126 234.003 191.224 233.736 191.334 233.474C191.395 233.326 191.46 233.177 191.518 233.026C191.581 232.865 191.604 232.704 191.619 232.528C191.626 232.432 191.601 232.334 191.579 232.239C191.538 232.133 191.496 232.029 191.45 231.926C191.425 231.868 191.4 231.815 191.37 231.763C191.251 231.539 191.08 231.362 190.882 231.217C190.797 231.155 190.706 231.118 190.613 231.087C190.602 231.052 190.594 231.016 190.576 230.981C190.442 230.709 190.284 230.45 190.103 230.209C189.932 229.982 189.713 229.776 189.453 229.655C189.322 229.595 189.181 229.563 189.04 229.563C188.929 229.563 188.819 229.582 188.714 229.624C188.667 229.643 188.625 229.669 188.584 229.694C188.281 229.464 187.973 229.242 187.635 229.062C187.426 228.951 187.207 228.868 186.975 228.831C186.9 228.816 186.824 228.805 186.749 228.802C186.635 228.675 186.512 228.561 186.361 228.468C186.245 228.396 186.113 228.361 185.981 228.361C185.85 228.361 185.719 228.395 185.604 228.463C185.579 228.477 185.567 228.503 185.545 228.52C185.393 228.401 185.233 228.295 185.045 228.236C184.958 228.208 184.865 228.193 184.773 228.193C184.632 228.193 184.492 228.229 184.371 228.307C184.127 228.468 183.998 228.727 183.886 228.988C183.817 229.147 183.918 229.338 184.074 229.394C184.182 229.434 184.282 229.406 184.363 229.346C184.36 229.358 184.353 229.367 184.35 229.379C184.308 229.52 184.328 229.665 184.347 229.807C184.367 229.94 184.445 230.076 184.506 230.194C184.568 230.312 184.637 230.428 184.702 230.544C184.577 230.894 184.647 231.308 184.927 231.578C185.07 231.718 185.205 231.864 185.332 232.017C185.577 232.351 185.79 232.703 186.001 233.058C186.205 233.403 186.419 233.74 186.64 234.072C186.857 234.394 187.048 234.737 187.247 235.069C187.846 236.076 188.462 237.062 189.187 237.984C189.333 238.17 189.489 238.351 189.655 238.524C189.849 238.728 190.063 238.902 190.287 239.073C190.69 239.378 191.218 239.518 191.711 239.393C191.851 239.357 191.975 239.296 192.09 239.221C192.224 239.405 192.378 239.555 192.557 239.698C192.645 239.769 192.778 239.789 192.887 239.771C193.053 239.741 193.151 239.633 193.222 239.489C193.322 239.286 193.36 239.07 193.305 238.848ZM189.368 233.527C189.254 233.854 189.195 234.211 189.214 234.561C189.092 234.351 188.973 234.141 188.852 233.932C188.633 233.552 188.41 233.182 188.171 232.82C187.886 232.389 187.64 231.934 187.365 231.498C187.276 231.356 187.172 231.221 187.073 231.082C187.073 230.763 187.053 230.444 187.018 230.126C187.069 230.162 187.124 230.19 187.174 230.227C187.677 230.633 188.111 231.107 188.553 231.576C188.767 231.806 188.96 232.057 189.205 232.256C189.389 232.404 189.548 232.498 189.764 232.586C189.624 232.896 189.481 233.204 189.368 233.527ZM190.702 236.887C190.469 236.578 190.25 236.259 190.041 235.933C190.054 235.934 190.066 235.934 190.079 235.934C190.094 235.934 190.108 235.934 190.123 235.933C190.154 235.93 190.184 235.929 190.215 235.93C190.23 235.934 190.245 235.938 190.26 235.943C190.317 235.973 190.371 236.006 190.425 236.041C190.522 236.127 190.612 236.218 190.696 236.316C190.803 236.468 190.896 236.627 190.977 236.794C191.027 236.933 191.068 237.073 191.099 237.218C191.102 237.261 191.104 237.304 191.104 237.348C190.961 237.203 190.829 237.047 190.702 236.887ZM192.379 239.291L192.38 239.29C192.381 239.3 192.381 239.311 192.381 239.321C192.38 239.311 192.379 239.301 192.379 239.291ZM192.398 239.279L192.401 239.286C192.4 239.284 192.399 239.281 192.398 239.279Z" fill="#3C214E"/>
<path d="M146.207 254.801L127.989 268.239L125.508 270.069C125.465 270.102 125.424 270.14 125.387 270.193C125.198 270.316 125.085 270.545 125.093 270.789C125.135 271.962 125.402 273.23 125.89 274.556C126.358 275.825 127.018 277.078 127.853 278.289C128.673 279.474 129.625 280.513 130.679 281.382C131.162 281.782 131.716 282.162 132.32 282.507C132.919 282.851 133.538 283.113 134.157 283.284C134.2 283.294 134.243 283.299 134.286 283.299C134.414 283.299 134.543 283.254 134.658 283.163C134.696 283.143 134.733 283.121 134.769 283.095L141.42 278.191L148.07 273.285L159.312 264.994C159.223 264.738 159.132 264.484 159.037 264.231C158.003 261.468 156.643 258.817 154.922 256.424C154.92 256.42 154.918 256.418 154.917 256.415C154.915 256.413 154.914 256.411 154.912 256.409C154.91 256.406 154.908 256.403 154.906 256.4C154.907 256.402 154.908 256.405 154.91 256.406C153.76 254.823 152.449 253.359 150.928 252.126C150.938 252.133 150.948 252.143 150.961 252.151C150.774 252.002 150.585 251.856 150.393 251.714L146.207 254.801Z" fill="#F6793F"/>
<path d="M125.078 270.789C125.124 271.977 125.393 273.245 125.879 274.56C126.344 275.827 127.006 277.083 127.842 278.294C128.659 279.477 129.611 280.519 130.671 281.389C131.151 281.789 131.702 282.167 132.314 282.517C132.915 282.862 133.534 283.123 134.154 283.294C134.196 283.307 134.239 283.312 134.284 283.312C134.334 283.312 134.383 283.305 134.431 283.293C133.991 281.88 133.397 280.517 132.704 279.21C131.494 276.951 129.99 274.854 128.24 272.984C128.241 272.986 128.242 272.988 128.242 272.989C127.318 272.013 126.325 271.099 125.252 270.29C125.137 270.418 125.073 270.598 125.078 270.789Z" fill="#FFF8E1"/>
<path d="M182.813 227.787L181.339 228.874C175.701 233.032 170.089 237.169 164.477 241.311L155.311 248.071L149.159 252.607C149.185 252.628 149.211 252.648 149.236 252.669C149.992 253.278 150.711 253.932 151.391 254.627C152.083 255.329 152.739 256.067 153.356 256.837C154.582 258.369 155.682 260.01 156.588 261.752C157.06 262.657 157.491 263.588 157.848 264.548C158.001 264.953 158.144 265.362 158.274 265.776L166.526 259.691L175.857 252.807L185.189 245.924L186.646 244.849C188.443 243.524 190.237 242.2 192.035 240.878C192.253 240.795 192.41 240.614 192.45 240.392C192.52 239.992 192.51 239.62 192.422 239.25C192.382 239.074 192.327 238.9 192.271 238.729L192.243 238.641L192.211 238.533C192.188 238.457 192.166 238.384 192.145 238.309C192.113 238.065 192.11 237.808 192.108 237.559L192.102 237.267C192.097 237.026 192.055 236.794 192.019 236.61C191.984 236.434 191.888 236.24 191.722 236.014C191.445 235.644 191.017 235.43 190.514 235.415L190.447 235.412C190.303 235.412 190.159 235.427 190.014 235.443C189.853 235.457 189.701 235.47 189.553 235.47C189.483 235.46 189.415 235.45 189.344 235.427C189.276 235.402 189.208 235.372 189.145 235.337L189.228 235.221C189.301 235.123 189.379 235.02 189.458 234.916L189.646 234.665C189.827 234.405 190.009 234.121 190.119 233.779C190.217 233.474 190.215 233.147 190.109 232.828C190.041 232.627 189.911 232.438 189.706 232.254C189.644 232.199 189.576 232.15 189.503 232.103C189.417 232.045 189.357 232 189.299 231.949C189.241 231.793 189.208 231.625 189.181 231.464L189.163 231.373C189.108 231.131 188.982 230.92 188.866 230.747C188.622 230.381 188.33 230.12 188 229.972C187.713 229.836 187.356 229.767 186.938 229.767C186.86 229.767 186.785 229.77 186.709 229.775C186.405 229.798 186.115 229.883 185.838 229.966L185.763 229.986C185.647 230.022 185.557 230.049 185.463 230.075C185.388 230.077 185.351 230.08 185.315 230.08L185.249 230.064L185.194 230.009L185.136 229.951C185.086 229.891 185.043 229.828 185.005 229.755C184.945 229.614 184.9 229.468 184.854 229.322C184.799 229.146 184.744 228.972 184.666 228.803C184.557 228.567 184.434 228.378 184.273 228.209C184.097 228.028 183.885 227.882 183.621 227.762L183.556 227.742C183.471 227.679 183.357 227.646 183.231 227.646C183.085 227.646 182.936 227.696 182.813 227.787Z" fill="white"/>
<path d="M149.149 252.596L149.227 252.677C149.977 253.281 150.702 253.94 151.382 254.635C152.084 255.347 152.746 256.089 153.347 256.844C154.626 258.443 155.713 260.096 156.578 261.754C157.089 262.739 157.502 263.652 157.839 264.55C157.988 264.955 158.132 265.366 158.262 265.781L160.22 264.342C160.074 263.841 159.908 263.346 159.727 262.856C158.861 260.576 157.661 258.435 156.241 256.454C156.236 256.449 156.231 256.442 156.227 256.435C156.228 256.436 156.229 256.438 156.229 256.439C156.227 256.437 156.227 256.435 156.225 256.432C156.223 256.428 156.22 256.425 156.216 256.422L156.224 256.429C154.787 254.451 153.134 252.634 151.238 251.086C151.241 251.086 151.243 251.087 151.244 251.088C151.236 251.081 151.228 251.076 151.221 251.069L149.149 252.596Z" fill="#DB9E36"/>
<path d="M156.226 256.433L156.227 256.434L156.224 256.429L156.226 256.433Z" fill="#DB9E36"/>
<path d="M156.228 256.437L156.226 256.434L156.228 256.437Z" fill="#DB9E36"/>
<path d="M191.675 236.491C183.312 242.511 174.947 248.528 166.584 254.547C163.919 256.465 161.255 258.383 158.591 260.301C158.615 260.346 158.638 260.393 158.662 260.439C159.059 261.222 159.417 262.034 159.728 262.858C159.902 263.325 160.065 263.816 160.225 264.332L166.536 259.699L175.868 252.816L185.199 245.933L186.657 244.858C188.453 243.533 190.248 242.209 192.045 240.887C192.264 240.804 192.422 240.618 192.465 240.392C192.533 239.989 192.525 239.614 192.434 239.244C192.394 239.068 192.339 238.894 192.284 238.723L192.256 238.635L192.223 238.527L192.158 238.303C192.128 238.063 192.125 237.807 192.123 237.563L192.117 237.266C192.112 237.029 192.072 236.805 192.034 236.607C192.015 236.511 191.979 236.413 191.927 236.309C191.843 236.37 191.758 236.43 191.675 236.491Z" fill="#EFF2F7"/>
<path d="M141.419 272.66L132.596 279.01L132.596 279.011C132.634 279.08 132.669 279.145 132.705 279.213C133.418 280.557 133.999 281.923 134.431 283.282C134.521 283.266 134.598 283.232 134.67 283.174C134.702 283.154 134.74 283.131 134.778 283.106L141.432 278.202L148.081 273.296L158.271 265.782C158.268 265.779 158.268 265.779 158.268 265.776L158.261 265.784L158.223 265.661C158.105 265.281 157.976 264.916 157.843 264.554C157.506 263.657 157.093 262.744 156.582 261.757C156.582 261.755 156.58 261.752 156.58 261.75L141.419 272.66Z" fill="#E6713A"/>
<path d="M156.577 261.751C156.578 261.752 156.579 261.754 156.58 261.756C157.093 262.743 157.504 263.657 157.841 264.552C157.974 264.915 158.103 265.279 158.221 265.66L158.259 265.783L160.229 264.354C160.07 263.83 159.905 263.332 159.728 262.858C159.416 262.036 159.056 261.223 158.661 260.44C158.638 260.394 158.614 260.348 158.59 260.301C157.919 260.784 157.248 261.268 156.577 261.751Z" fill="#D19733"/>
<path d="M130.441 270.768C130.291 270.768 130.114 270.786 129.951 270.918C129.823 271.023 129.738 271.183 129.718 271.355C129.7 271.528 129.755 271.707 129.868 271.846C129.968 271.963 130.143 272.08 130.305 272.08C130.455 272.08 130.629 272.062 130.795 271.93C130.923 271.824 131.008 271.665 131.029 271.493C131.047 271.319 130.992 271.14 130.879 271.002C130.778 270.885 130.603 270.768 130.441 270.768Z" fill="#FA8C57"/>
<path d="M132.43 266.548C132.28 266.548 132.104 266.566 131.941 266.698C131.812 266.803 131.727 266.963 131.707 267.135C131.689 267.308 131.744 267.487 131.856 267.626C131.957 267.743 132.132 267.86 132.294 267.86C132.444 267.86 132.618 267.842 132.784 267.71C132.912 267.604 132.997 267.445 133.018 267.273C133.035 267.099 132.981 266.92 132.868 266.782C132.767 266.665 132.593 266.548 132.43 266.548Z" fill="#FA8C57"/>
<path d="M135.752 269.873C135.601 269.873 135.425 269.891 135.262 270.023C135.134 270.128 135.049 270.287 135.029 270.459C135.011 270.633 135.066 270.812 135.178 270.95C135.279 271.067 135.454 271.184 135.616 271.184C135.766 271.184 135.94 271.166 136.106 271.034C136.234 270.928 136.319 270.769 136.34 270.597C136.357 270.423 136.303 270.245 136.19 270.106C136.089 269.99 135.914 269.873 135.752 269.873Z" fill="#FA8C57"/>
<path d="M134.217 274.166C134.06 274.166 133.893 274.184 133.727 274.316C133.599 274.421 133.514 274.581 133.493 274.753C133.476 274.926 133.531 275.105 133.643 275.244C133.744 275.36 133.919 275.477 134.081 275.477C134.232 275.477 134.408 275.459 134.571 275.327C134.699 275.222 134.784 275.063 134.805 274.891C134.822 274.717 134.768 274.538 134.655 274.4C134.554 274.283 134.379 274.166 134.217 274.166Z" fill="#FA8C57"/>
<path d="M136.804 277.621C136.648 277.621 136.48 277.639 136.315 277.771C136.186 277.876 136.101 278.036 136.081 278.208C136.063 278.381 136.118 278.56 136.23 278.699C136.331 278.816 136.506 278.933 136.668 278.933C136.818 278.933 136.992 278.915 137.158 278.783C137.286 278.677 137.371 278.518 137.393 278.346C137.409 278.172 137.355 277.993 137.242 277.855C137.141 277.738 136.967 277.621 136.804 277.621Z" fill="#FA8C57"/>
<path d="M141.578 273.305C141.422 273.305 141.254 273.323 141.089 273.455C140.96 273.56 140.875 273.72 140.855 273.892C140.837 274.065 140.892 274.245 141.004 274.382C141.105 274.5 141.28 274.617 141.442 274.617C141.592 274.617 141.766 274.599 141.932 274.467C142.06 274.361 142.145 274.202 142.166 274.03C142.183 273.856 142.129 273.678 142.016 273.539C141.915 273.422 141.741 273.305 141.578 273.305Z" fill="#FA8C57"/>
<path d="M147.716 269.412C147.567 269.412 147.392 269.43 147.226 269.561C147.098 269.667 147.013 269.827 146.992 269.999C146.975 270.172 147.03 270.351 147.142 270.489C147.243 270.606 147.418 270.724 147.58 270.724C147.729 270.724 147.904 270.706 148.07 270.573C148.198 270.468 148.283 270.309 148.304 270.137C148.321 269.963 148.267 269.784 148.154 269.646C148.053 269.529 147.878 269.412 147.716 269.412Z" fill="#FA8C57"/>
<path d="M152.576 267.011C152.425 267.011 152.249 267.029 152.086 267.161C151.958 267.266 151.873 267.426 151.852 267.598C151.835 267.771 151.89 267.95 152.002 268.088C152.103 268.205 152.278 268.322 152.44 268.322C152.589 268.322 152.764 268.304 152.93 268.172C153.058 268.067 153.143 267.908 153.164 267.736C153.181 267.562 153.127 267.383 153.014 267.245C152.913 267.128 152.738 267.011 152.576 267.011Z" fill="#FA8C57"/>
<path d="M155.055 263.362C154.906 263.362 154.731 263.38 154.565 263.511C154.437 263.617 154.352 263.776 154.331 263.949C154.314 264.122 154.369 264.301 154.481 264.439C154.582 264.556 154.757 264.673 154.919 264.673C155.068 264.673 155.243 264.655 155.408 264.523C155.537 264.418 155.622 264.258 155.643 264.086C155.66 263.912 155.606 263.734 155.493 263.595C155.392 263.479 155.217 263.362 155.055 263.362Z" fill="#FA8C57"/>
<path d="M151.501 261.359C151.352 261.359 151.177 261.377 151.011 261.508C150.883 261.614 150.798 261.774 150.778 261.946C150.76 262.119 150.815 262.298 150.927 262.436C151.028 262.553 151.203 262.67 151.365 262.67C151.515 262.67 151.689 262.652 151.855 262.52C151.983 262.415 152.068 262.255 152.089 262.083C152.107 261.909 152.052 261.731 151.939 261.593C151.838 261.476 151.663 261.359 151.501 261.359Z" fill="#FA8C57"/>
<path d="M146.347 264.693C146.198 264.693 146.023 264.711 145.857 264.843C145.729 264.948 145.644 265.108 145.623 265.28C145.606 265.454 145.661 265.633 145.773 265.771C145.874 265.888 146.049 266.005 146.211 266.005C146.36 266.005 146.535 265.987 146.701 265.855C146.829 265.749 146.914 265.59 146.935 265.418C146.952 265.244 146.898 265.066 146.785 264.927C146.684 264.811 146.509 264.693 146.347 264.693Z" fill="#FA8C57"/>
<path d="M147.588 259.904C147.439 259.904 147.264 259.922 147.098 260.053C146.97 260.159 146.885 260.319 146.864 260.491C146.847 260.664 146.902 260.843 147.014 260.981C147.115 261.098 147.29 261.216 147.452 261.216C147.602 261.216 147.776 261.197 147.942 261.065C148.07 260.96 148.155 260.801 148.176 260.629C148.194 260.455 148.139 260.276 148.026 260.138C147.925 260.021 147.75 259.904 147.588 259.904Z" fill="#FA8C57"/>
<path d="M149.138 255.274C148.989 255.274 148.814 255.292 148.648 255.423C148.52 255.529 148.435 255.689 148.414 255.861C148.397 256.034 148.452 256.213 148.564 256.351C148.665 256.468 148.84 256.585 149.002 256.585C149.151 256.585 149.326 256.567 149.492 256.435C149.62 256.33 149.705 256.17 149.726 255.998C149.743 255.825 149.689 255.646 149.576 255.508C149.475 255.391 149.3 255.274 149.138 255.274Z" fill="#FA8C57"/>
<path d="M142.532 259.967C142.375 259.967 142.208 259.985 142.042 260.117C141.914 260.222 141.829 260.382 141.808 260.554C141.791 260.727 141.846 260.906 141.958 261.044C142.059 261.161 142.234 261.279 142.396 261.279C142.545 261.279 142.72 261.261 142.886 261.129C143.014 261.023 143.099 260.864 143.12 260.692C143.137 260.518 143.083 260.339 142.97 260.201C142.869 260.084 142.694 259.967 142.532 259.967Z" fill="#FA8C57"/>
<path d="M139.557 264.122C139.401 264.122 139.233 264.14 139.068 264.272C138.939 264.377 138.854 264.537 138.834 264.709C138.816 264.882 138.871 265.061 138.983 265.199C139.084 265.316 139.259 265.434 139.421 265.434C139.571 265.434 139.745 265.415 139.911 265.283C140.039 265.178 140.124 265.019 140.145 264.847C140.163 264.673 140.108 264.494 139.995 264.356C139.894 264.239 139.72 264.122 139.557 264.122Z" fill="#FA8C57"/>
<path d="M140.335 268.808C140.179 268.808 140.011 268.826 139.845 268.958C139.717 269.063 139.632 269.223 139.612 269.395C139.594 269.568 139.649 269.747 139.761 269.885C139.862 270.003 140.037 270.12 140.199 270.12C140.349 270.12 140.523 270.102 140.689 269.97C140.817 269.864 140.902 269.705 140.923 269.533C140.941 269.359 140.886 269.18 140.773 269.042C140.672 268.925 140.497 268.808 140.335 268.808Z" fill="#FA8C57"/>
</g>
<g filter="url(#filter1_d_293_2075)">
<path d="M214.455 235.269C214.402 235.269 214.349 235.269 214.299 235.271C214.24 235.276 214.184 235.283 214.126 235.299C214.047 235.322 213.992 235.339 213.937 235.362L213.848 235.405C213.79 235.438 213.737 235.473 213.684 235.511L213.605 235.572C213.587 235.584 213.545 235.625 213.502 235.671C213.471 235.707 213.443 235.742 213.418 235.783C213.374 235.861 213.344 235.919 213.321 235.977L213.288 236.084L213.268 236.2C213.26 236.406 213.273 236.585 213.311 236.801L213.341 236.967C213.371 237.143 213.394 237.281 213.401 237.419C213.409 237.52 213.409 237.62 213.404 237.721C213.402 237.775 213.394 237.882 213.364 237.978C213.335 238.078 213.308 238.158 213.267 238.232C213.216 238.314 213.189 238.356 213.158 238.4C213.044 238.564 212.93 238.684 212.813 238.768C212.695 238.852 212.581 238.911 212.464 238.948C212.357 238.981 212.247 239.001 212.133 239.013L212.053 239.023L211.977 239.033L211.892 239.043C211.854 239.052 211.821 239.061 211.785 239.074L211.722 239.11C211.677 239.145 211.66 239.166 211.644 239.187C211.618 239.238 211.597 239.284 211.58 239.337C211.535 239.486 211.516 239.639 211.504 239.782C211.493 239.936 211.488 240.062 211.493 240.182C211.496 240.264 211.506 240.344 211.519 240.425C211.565 240.638 211.655 240.885 211.794 241.176L211.894 241.395C211.968 241.549 212.04 241.705 212.101 241.863C212.159 242.022 212.226 242.234 212.223 242.449C212.221 242.547 212.203 242.638 212.171 242.714C212.137 242.784 212.098 242.857 212.042 242.908C211.986 242.965 211.961 242.99 211.932 243.011C211.879 243.046 211.829 243.079 211.772 243.109C211.638 243.174 211.492 243.223 211.349 243.249L211.28 243.264C211.226 243.275 211.185 243.284 211.142 243.286C211.095 243.292 211.047 243.294 211.003 243.294C210.859 243.29 210.76 243.275 210.672 243.246C210.564 243.212 210.456 243.172 210.356 243.116C210.271 243.069 210.19 243.018 210.11 242.966L209.916 242.825L209.833 242.765L209.771 242.719C209.702 242.669 209.634 242.619 209.561 242.57C209.431 242.486 209.311 242.426 209.184 242.381C209.124 242.363 209.065 242.35 209.005 242.343H209.003C208.938 242.343 208.875 242.348 208.811 242.355C208.727 242.379 208.652 242.404 208.574 242.436C208.46 242.495 208.374 242.551 208.3 242.614L208.256 242.678L208.223 242.788C208.217 242.89 208.222 242.994 208.237 243.118L208.257 243.254C208.27 243.329 208.28 243.404 208.285 243.48C208.293 243.548 208.295 243.616 208.293 243.683V243.789C208.275 243.848 208.265 243.894 208.245 243.937C208.23 243.979 208.212 244.011 208.191 244.034C208.163 244.077 208.136 244.108 208.099 244.136C208.046 244.186 207.988 244.232 207.92 244.274C207.824 244.329 207.77 244.36 207.713 244.379C207.656 244.401 207.605 244.414 207.556 244.422C207.438 244.449 207.316 244.452 207.198 244.454C207.096 244.46 206.995 244.467 206.894 244.48C206.819 244.5 206.778 244.51 206.737 244.525C206.682 244.548 206.626 244.573 206.571 244.598C206.499 244.631 206.427 244.661 206.354 244.689C206.221 244.737 206.088 244.779 205.952 244.817L205.806 244.857C205.6 244.914 205.416 244.968 205.236 245.052C205.155 245.094 205.09 245.14 205.021 245.19C204.952 245.259 204.896 245.325 204.843 245.403C204.77 245.523 204.717 245.648 204.667 245.78C204.642 245.858 204.604 245.979 204.576 246.1C204.555 246.196 204.54 246.287 204.53 246.378C204.523 246.461 204.517 246.585 204.528 246.709L204.535 246.777C204.543 246.845 204.55 246.913 204.561 246.978C204.593 247.125 204.626 247.269 204.679 247.41C204.704 247.478 204.729 247.546 204.757 247.614L205.094 247.919L213.734 255.652L230.812 270.938L236.969 276.45L243.128 281.961C243.161 281.989 243.196 282.014 243.231 282.039C243.344 282.141 243.47 282.202 243.597 282.215H243.598C243.676 282.215 243.704 282.212 243.729 282.209C244.367 282.093 245.007 281.89 245.634 281.607C246.272 281.319 246.858 280.993 247.376 280.64C248.509 279.877 249.555 278.929 250.485 277.826C251.437 276.692 252.213 275.503 252.792 274.293C253.406 273.014 253.794 271.777 253.945 270.615C253.975 270.367 253.884 270.124 253.706 269.979C253.671 269.925 253.635 269.881 253.595 269.846L251.298 267.79L234.431 252.691L225.993 245.141L217.506 237.545L215.239 235.514C215.076 235.438 214.948 235.385 214.817 235.339C214.791 235.332 214.726 235.314 214.656 235.299C214.597 235.286 214.539 235.279 214.478 235.271L214.455 235.269Z" fill="#FEFEFE"/>
<path d="M206.894 244.466L206.828 244.483C206.783 244.496 206.758 244.504 206.733 244.514C206.677 244.536 206.622 244.561 206.566 244.586C206.494 244.619 206.423 244.65 206.35 244.677C206.217 244.725 206.083 244.768 205.947 244.806L205.802 244.846C205.577 244.909 205.406 244.959 205.23 245.04C205.15 245.083 205.084 245.128 205.011 245.178C204.943 245.251 204.885 245.316 204.833 245.397C204.759 245.515 204.706 245.644 204.656 245.777C204.631 245.855 204.591 245.976 204.563 246.097C204.541 246.195 204.525 246.285 204.516 246.376C204.508 246.459 204.503 246.585 204.513 246.711L204.52 246.779C204.528 246.847 204.536 246.915 204.545 246.98C204.586 247.146 204.619 247.282 204.669 247.413C204.694 247.484 204.719 247.551 204.747 247.62L205.084 247.926L213.724 255.66L230.801 270.946L236.96 276.457L243.118 281.969C243.151 281.999 243.186 282.024 243.227 282.05C243.335 282.15 243.463 282.213 243.597 282.228H243.599C243.677 282.228 243.705 282.225 243.73 282.223C244.364 282.108 245.006 281.903 245.64 281.619C246.274 281.333 246.86 281.008 247.382 280.653L247.429 280.621C244.573 278.074 241.717 275.526 238.862 272.98C232.561 267.357 226.259 261.738 219.957 256.116C215.604 252.232 211.251 248.349 206.897 244.465C206.896 244.466 206.894 244.466 206.894 244.466Z" fill="#EFF2F7"/>
<path d="M249.537 273.163H249.538L249.543 273.157L249.537 273.163Z" fill="#3C214E"/>
<path d="M254.143 271.698C254.093 271.491 254.013 271.28 253.904 271.094C253.898 271.082 253.886 271.074 253.879 271.063C253.906 270.914 253.94 270.762 253.959 270.615C253.98 270.437 253.939 270.259 253.85 270.119C253.703 270.189 253.558 270.262 253.414 270.338C253.41 270.34 253.406 270.342 253.403 270.343C252.006 271.098 250.735 272.062 249.567 273.134C249.567 273.136 249.566 273.136 249.565 273.137L249.563 273.138C249.558 273.144 249.549 273.15 249.543 273.157C249.541 273.158 249.539 273.16 249.538 273.162C247.921 274.676 246.509 276.396 245.32 278.261C245.32 278.258 245.322 278.258 245.322 278.256C244.545 279.487 243.87 280.78 243.342 282.137C243.421 282.186 243.507 282.217 243.596 282.227H243.598C243.676 282.227 243.704 282.225 243.729 282.222C243.772 282.214 243.815 282.198 243.858 282.19C243.865 282.239 243.869 282.287 243.883 282.336C243.92 282.461 244.009 282.61 244.112 282.696C244.217 282.781 244.29 282.829 244.424 282.866C244.494 282.884 244.57 282.886 244.645 282.894C244.877 282.919 245.144 282.778 245.34 282.678C245.544 282.569 245.735 282.436 245.929 282.31C246.445 281.973 247.046 281.797 247.577 281.48C248.192 281.115 248.578 280.496 249.102 280.028C249.197 279.963 249.295 279.907 249.399 279.856C249.504 279.818 249.609 279.79 249.719 279.769C249.877 279.736 250.031 279.67 250.169 279.587C250.363 279.467 250.532 279.295 250.688 279.129C250.887 278.92 251.065 278.694 251.241 278.465C251.596 278.012 251.948 277.546 252.251 277.06C252.384 276.847 252.459 276.588 252.532 276.349C252.601 276.115 252.658 275.878 252.736 275.648C252.763 275.588 252.792 275.53 252.824 275.474C252.85 275.445 252.877 275.418 252.904 275.391C252.921 275.381 252.937 275.371 252.954 275.361C253.086 275.325 253.225 275.318 253.353 275.264C253.524 275.193 253.629 275.126 253.77 274.999C253.881 274.901 253.962 274.755 254.032 274.627C254.269 274.192 254.304 273.688 254.309 273.205C254.315 272.705 254.259 272.189 254.143 271.698Z" fill="#3C214E"/>
</g>
<path d="M85.1865 181.525C84.8 181.525 84.4218 181.583 84.0294 181.702C83.5817 181.836 83.1146 182.064 82.6011 182.403C82.1688 182.683 81.7256 183.044 81.2057 183.54C80.3707 184.337 79.5815 185.297 78.6479 186.655C77.9154 187.716 77.2087 188.882 76.4884 190.219C75.904 191.303 75.3712 192.402 74.9048 193.483C74.5492 194.305 74.2148 195.198 73.8224 196.378C73.7863 196.446 73.7574 196.527 73.7316 196.633L73.7129 196.735L73.7065 196.733C73.6253 196.98 73.5467 197.228 73.4681 197.476L73.3669 197.795C71.8729 202.501 70.7557 207.44 70.0471 212.475C69.6818 215.08 69.4311 217.7 69.3023 220.265L69.2946 220.333C68.8809 224.347 68.7038 228.404 68.7688 232.391C68.7991 234.289 68.8996 236.303 69.0755 238.547C69.2566 240.869 69.4292 242.78 69.6193 244.562C69.9859 247.99 70.4246 250.821 70.9986 253.469C70.4826 252.918 69.9652 252.353 69.4724 251.782C66.4998 248.309 63.8351 244.129 61.327 239.004C58.0883 232.342 55.6904 225.312 53.5128 218.685C53.1893 217.704 52.8685 216.722 52.5477 215.741L51.9073 213.786L51.7004 213.165C51.5619 212.751 51.4234 212.337 51.2959 211.921C51.1696 211.516 51.0568 211.111 50.9434 210.703L50.7669 210.066C50.1877 207.977 49.5892 205.818 48.8322 203.747C48.3348 202.384 47.813 201.2 47.2383 200.124C46.6192 198.97 45.964 198.064 45.234 197.355C44.4609 196.604 43.5544 196.136 42.6808 196.036C42.5371 196.019 42.3935 196.011 42.2498 196.011C41.3762 196.011 40.4736 196.301 39.6386 196.848C38.8069 197.396 38.084 198.208 37.4301 199.331C36.8837 200.268 36.4431 201.368 36.0423 202.796C35.717 203.951 35.4638 205.228 35.2699 206.7C35.1082 207.897 34.9948 209.202 34.9252 210.69C34.8762 211.771 34.8595 212.897 34.8743 214.037C34.8923 215.096 34.949 216.225 35.0586 217.699C35.3755 222.029 36.0082 226.397 36.9385 230.681C37.883 235.013 39.1618 239.231 40.739 243.217C41.3337 244.717 41.9934 246.227 42.6995 247.702C43.356 249.165 44.0524 250.64 44.7263 252.067C46.105 254.986 47.5308 258.006 48.6892 261.078C49.1775 262.375 49.6072 263.667 49.9661 264.919L50.0035 265.052L50.0453 265.202C49.7561 265.121 49.4623 265.038 49.1698 264.945C46.9187 264.191 44.8313 262.938 43.0867 261.813C37.6974 258.313 32.9596 253.82 28.3769 249.474L26.8172 247.997C24.3426 245.657 21.6573 243.174 18.7865 240.877C17.5939 239.924 16.3138 238.926 14.9325 238.125C13.8933 237.522 12.9643 237.156 12.0913 237.005C11.8433 236.961 11.5914 236.939 11.3433 236.939C10.8034 236.939 10.3267 237.045 9.9253 237.252C9.74491 237.344 9.59544 237.426 9.45435 237.532C9.3139 237.636 9.17667 237.761 9.02269 237.923C8.81395 238.14 8.6239 238.42 8.44028 238.777C8.13941 239.365 7.94098 240.079 7.83339 240.961C7.73546 241.785 7.72064 242.682 7.78765 243.701C7.91134 245.535 8.27857 247.489 8.91059 249.674C9.18311 250.618 9.493 251.527 9.83188 252.378C10.29 253.536 10.8711 254.656 11.38 255.614C14.4113 261.326 18.686 266.83 24.0855 271.975C28.8466 276.51 34.48 280.709 40.8298 284.453C42.3735 285.363 44.0003 286.265 45.6644 287.13C47.324 293.039 49.6014 298.85 52.431 304.397C55.7696 310.933 59.4077 316.223 63.5536 320.568C65.2029 322.296 66.9295 323.834 68.6857 325.14C63.2115 328.877 56.7579 332.042 48.9443 334.812C48.8361 334.819 48.7298 334.857 48.6312 334.924L48.4991 334.968C48.3348 335.026 48.1905 335.088 48.0829 335.255C47.9934 335.395 47.9605 335.571 47.994 335.738C48.014 335.836 48.0559 335.927 48.119 336.008C47.9006 336.749 47.7556 337.569 47.6745 338.507C47.5798 339.626 47.6004 340.848 47.7395 342.351C47.9818 344.901 48.5784 347.633 49.5647 350.703C50.4744 353.54 51.5761 356.214 52.8395 358.654C53.4438 359.825 54.0443 360.852 54.6744 361.795C55.0184 362.31 55.3379 362.754 55.6511 363.154C56.0763 363.699 56.5311 364.208 57.0832 364.806C59.3646 367.267 62.1375 369.603 65.5604 371.947C66.9823 372.922 68.5157 373.887 70.2468 374.894C72.0288 375.927 73.6092 376.776 75.0768 377.491C76.7016 378.282 78.0713 378.818 79.3888 379.18C80.785 379.564 82.2036 379.758 83.6042 379.758C83.7492 379.758 83.8935 379.756 84.0385 379.752C84.0855 379.749 84.1306 379.747 84.1725 379.742C84.273 379.812 84.398 379.85 84.5294 379.85C84.666 379.85 84.8006 379.81 84.9179 379.733C99.4756 370.183 110.938 361.986 120.992 353.934C126.388 349.618 130.689 345.987 134.527 342.511C139.487 338.022 143.578 333.818 147.033 329.661C151.147 324.709 154.278 319.89 156.604 314.927C157.82 312.335 158.813 309.614 159.554 306.837C159.909 305.512 160.209 304.09 160.448 302.611C160.709 300.973 160.885 299.176 160.986 297.119C161.098 294.836 161.092 292.582 161.047 289.898C161.035 289.169 161.02 288.439 161.005 287.709L160.976 286.257L160.973 286.047C160.959 285.198 160.945 284.35 160.956 283.499C160.972 282.71 160.995 281.922 161.018 281.133C161.069 279.426 161.122 277.661 161.082 275.924C161.051 274.47 160.949 273.186 160.77 271.999C160.571 270.698 160.273 269.619 159.858 268.703C159.313 267.503 158.489 266.526 157.536 265.952C157.105 265.693 156.627 265.519 156.114 265.438C155.94 265.41 155.763 265.398 155.587 265.398C155.245 265.398 154.877 265.446 154.493 265.541C153.545 265.773 152.606 266.284 151.538 267.148C150.68 267.84 149.837 268.7 148.885 269.855C146.338 272.944 144.323 276.761 142.897 281.199C141.403 285.849 140.754 290.449 140.969 294.872C139.574 294.7 138.158 294.424 136.767 294.043C134.203 293.315 131.66 292.217 129.206 290.781L129.342 290.876C126.669 289.287 124.157 287.344 121.881 285.089C119.803 283.002 118.016 280.688 116.569 278.213L116.641 278.365C115.248 275.936 114.161 273.348 113.421 270.667C112.695 267.935 112.325 265.103 112.32 262.248C112.342 259.257 112.763 256.256 113.573 253.326C114.388 250.442 115.585 247.626 117.128 244.955C117.541 244.245 117.99 243.531 118.462 242.834C120.923 245.011 123.641 247.004 126.531 248.76C128.179 249.758 129.906 250.685 131.664 251.513C132.547 251.931 133.451 252.327 134.346 252.691C135.031 252.971 135.77 253.265 136.533 253.514C137.222 253.74 137.992 253.923 138.958 254.093C139.924 254.262 140.943 254.388 141.989 254.466C142.745 254.521 143.486 254.549 144.194 254.549C145.577 254.549 146.897 254.442 148.119 254.231C149.064 254.07 149.906 253.829 150.692 253.496C151.46 253.171 152.061 252.758 152.481 252.269C152.747 251.96 152.938 251.645 153.081 251.278C153.201 250.978 153.263 250.62 153.263 250.244C153.265 249.481 153.005 248.675 152.469 247.779C151.77 246.617 150.824 245.655 149.836 244.692C148.262 243.163 146.609 241.68 145.2 240.432C144.353 239.684 143.501 238.941 142.649 238.198C141.919 237.561 141.188 236.924 140.461 236.284C139.231 235.199 138.029 234.078 136.805 232.93C131.981 228.403 126.993 223.722 120.381 222.406C119.208 222.172 118.037 222.054 116.898 222.054C116.453 222.054 115.99 222.073 115.524 222.112C113.998 222.237 112.463 222.568 110.96 223.093C108.166 224.07 105.406 225.725 102.756 228.012C100.709 229.78 98.756 231.935 96.9488 234.418C95.6564 236.192 94.5077 238.068 93.5329 239.993C92.488 236.558 91.6865 233.377 91.0944 230.268L91.097 230.355L91.1118 230.439C90.3123 226.134 89.8426 221.598 89.6873 216.571C89.6229 214.449 89.6152 212.167 89.6622 209.595C89.6848 208.425 89.7228 207.257 89.7653 206.09C89.7975 205.215 89.8381 204.199 89.9167 203.198L89.8967 203.284C89.9979 202.197 90.1093 201.107 90.2208 200.019C90.5242 197.049 90.8386 193.978 90.6789 190.944C90.6273 189.954 90.5017 188.946 90.3065 187.946C90.1203 187.004 89.8439 186.117 89.4857 185.311C89.1359 184.523 88.759 183.867 88.3325 183.307C87.9292 182.783 87.484 182.368 86.9718 182.037C86.5659 181.776 86.073 181.602 85.5847 181.546C85.4507 181.53 85.3199 181.525 85.1865 181.525ZM133.069 250.741L133.066 250.739L133.088 250.75L133.069 250.741Z" fill="#BEBCB7"/>
<path d="M84.0245 181.689C83.5715 181.825 83.1058 182.057 82.5974 182.392C82.1696 182.666 81.7245 183.028 81.1955 183.529C80.3702 184.317 79.5804 185.278 78.6391 186.647C77.9143 187.694 77.2069 188.859 76.4795 190.213C75.8984 191.288 75.365 192.385 74.8966 193.477C74.5442 194.288 74.2098 195.178 73.8142 196.371C73.7794 196.435 73.7517 196.51 73.7215 196.626L73.7015 196.734C73.6158 196.973 73.5378 197.219 73.4599 197.466L73.3587 197.788C71.8641 202.489 70.7469 207.429 70.0343 212.475C69.6723 215.043 69.4229 217.665 69.2896 220.264L69.2819 220.332C68.8695 224.354 68.693 228.411 68.7561 232.389C68.7864 234.282 68.8843 236.298 69.0628 238.545C69.2393 240.803 69.4101 242.716 69.6066 244.56C69.9377 247.634 70.3223 250.223 70.8088 252.626C70.9363 252.442 71.0561 252.255 71.1618 252.057C71.2874 251.825 71.4008 251.592 71.502 251.35L71.4865 251.388C71.665 250.95 71.8138 250.502 71.9246 250.044C72.0399 249.565 72.1256 249.085 72.1913 248.599V248.602C72.3646 247.215 72.3801 245.818 72.3524 244.424C72.3395 243.767 72.3195 243.111 72.3047 242.451C72.297 242.129 72.2918 241.807 72.2893 241.485C72.2893 241.137 72.2944 240.793 72.297 240.445C72.3247 236.791 72.2564 233.137 72.3447 229.483C72.3724 228.28 72.4149 227.079 72.4883 225.879C72.556 224.727 72.6494 223.574 72.7602 222.421C72.9715 220.209 73.2434 218.004 73.5778 215.807C74.2626 211.323 75.1936 206.873 76.3842 202.494C76.9775 200.312 77.6295 198.146 78.3518 196.004C79.0392 193.955 79.7814 191.925 80.5918 189.921C81.3269 188.109 82.122 186.31 83.1032 184.616C83.5967 183.761 84.1301 182.925 84.7319 182.142C84.8962 181.928 85.0637 181.716 85.235 181.508H85.1874C84.7995 181.508 84.4194 181.569 84.0245 181.689Z" fill="#726964"/>
<path d="M154.488 265.53C153.544 265.763 152.603 266.274 151.528 267.138C150.67 267.83 149.827 268.69 148.876 269.843C146.324 272.944 144.308 276.762 142.889 281.193C141.45 285.668 140.794 290.095 140.935 294.356C140.941 294.358 140.947 294.361 140.953 294.363C140.984 294.372 141.016 294.378 141.048 294.383C141.627 291.478 142.241 288.578 143.09 285.741C143.533 284.253 144.034 282.783 144.628 281.349C144.927 280.627 145.247 279.909 145.591 279.207C145.881 278.616 146.185 278.035 146.505 277.461C147.207 276.2 147.965 274.969 148.795 273.789C149.697 272.506 150.675 271.27 151.767 270.142C152.294 269.601 152.839 269.076 153.424 268.592C153.997 268.117 154.599 267.668 155.235 267.281C155.835 266.919 156.459 266.594 157.113 266.345C157.342 266.259 157.571 266.182 157.805 266.113C157.717 266.053 157.629 265.995 157.541 265.942C157.105 265.68 156.627 265.504 156.114 265.421C155.94 265.394 155.764 265.381 155.588 265.381C155.26 265.381 154.891 265.432 154.488 265.53Z" fill="#726964"/>
<path d="M39.6358 196.838C38.7976 197.387 38.0754 198.202 37.4208 199.327C36.8752 200.259 36.4345 201.359 36.0318 202.79C35.7097 203.925 35.4559 205.203 35.2568 206.701C35.0931 207.907 34.9797 209.213 34.9121 210.69C34.8644 211.752 34.8464 212.877 34.8618 214.037C34.8767 215.049 34.9346 216.179 35.0455 217.699C35.3624 222.025 35.9945 226.394 36.9254 230.685C37.877 235.033 39.1578 239.254 40.7304 243.223C41.3244 244.728 41.9841 246.238 42.6909 247.707C43.3654 249.21 44.0902 250.748 44.7171 252.071C46.0913 254.983 47.5106 257.988 48.6806 261.083C49.1515 262.342 49.5722 263.601 49.9292 264.829C50.038 264.479 50.1347 264.124 50.2133 263.766C50.2938 263.394 50.3615 263.019 50.4143 262.644C50.4124 262.656 50.4098 262.672 50.4072 262.686C50.5129 261.891 50.5605 261.09 50.5431 260.29C50.5277 259.526 50.4652 258.765 50.364 258.008C50.3666 258.023 50.3692 258.038 50.3718 258.051C50.0773 255.932 49.5033 253.861 48.8088 251.84C48.459 250.823 48.0789 249.819 47.6994 248.815C47.3012 247.763 46.9011 246.713 46.5036 245.661C44.913 241.466 43.3352 237.258 42.0189 232.967C41.6917 231.893 41.3747 230.813 41.0828 229.729C40.8135 228.729 40.5616 227.727 40.3252 226.719C39.996 225.307 39.6809 223.89 39.3968 222.468C39.0798 220.882 38.7925 219.292 38.5509 217.691C38.3022 216.03 38.0954 214.359 37.9575 212.683C37.8164 210.982 37.7385 209.273 37.7636 207.564C37.7887 205.928 37.8944 204.292 38.1386 202.675C38.3673 201.137 38.7119 199.607 39.2435 198.142C39.4168 197.661 39.6075 197.187 39.8194 196.722C39.7576 196.76 39.6964 196.798 39.6358 196.838Z" fill="#726964"/>
<path d="M9.92229 237.243C9.71612 237.343 9.58018 237.424 9.44682 237.522C9.30057 237.632 9.16464 237.756 9.01388 237.912C8.79998 238.141 8.60864 238.423 8.43211 238.773C8.1306 239.356 7.93152 240.072 7.82071 240.962C7.72278 241.772 7.7099 242.671 7.77561 243.7C7.89609 245.53 8.26654 247.485 8.90307 249.68C9.17494 250.624 9.48419 251.532 9.82436 252.383C10.2695 253.518 10.8307 254.61 11.3719 255.619C14.3967 261.324 18.6701 266.831 24.076 271.985C28.8449 276.523 34.4796 280.723 40.8268 284.462C42.3621 285.373 43.9901 286.275 45.6614 287.141C47.3171 293.054 49.592 298.863 52.4235 304.402C55.7556 310.933 59.3944 316.223 63.5441 320.579C65.1928 322.306 66.922 323.843 68.6782 325.149C63.1846 328.879 56.7265 332.04 48.9406 334.803C48.8343 334.803 48.7261 334.841 48.6282 334.914L48.4948 334.956C48.326 335.017 48.1804 335.08 48.0748 335.251C47.9813 335.392 47.9485 335.568 47.9813 335.737C48.0039 335.845 48.0471 335.936 48.1095 336.016C47.8937 336.731 47.7475 337.549 47.6618 338.508C47.569 339.62 47.589 340.84 47.7275 342.351C47.8164 343.297 47.9556 344.27 48.1456 345.277C51.4565 343.836 54.7126 342.271 57.8933 340.56C57.9055 340.554 57.9178 340.547 57.93 340.541C57.93 340.541 57.9294 340.541 57.9294 340.542C58.6709 340.139 59.4079 339.733 60.1443 339.313C63.24 337.549 66.2551 335.639 69.1414 333.545C72 331.473 74.7381 329.229 77.3029 326.8C77.3029 326.8 77.3004 326.803 77.2978 326.803C78.556 325.606 79.7724 324.364 80.943 323.076C78.8537 321.749 76.89 320.228 75.0454 318.579C72.2442 316.074 69.6974 313.301 67.3117 310.404C66.7255 309.695 66.1469 308.975 65.578 308.25C65.0091 307.522 64.4454 306.793 63.8991 306.05C62.7265 304.453 61.6216 302.806 60.5799 301.123C58.486 297.746 56.6183 294.235 54.8743 290.669C54.4439 289.788 54.0161 288.905 53.6038 288.014C53.2011 287.148 52.8133 286.272 52.4609 285.381C52.104 284.47 51.7741 283.546 51.5151 282.602C51.3792 282.112 51.2555 281.619 51.1575 281.118C51.0719 280.68 50.9991 280.242 50.9411 279.799V279.794C50.9263 279.789 50.9134 279.784 50.9005 279.779C49.036 278.959 47.1412 278.206 45.3012 277.33C44.4508 276.928 43.6126 276.497 42.7796 276.057C42.0193 275.652 41.2643 275.234 40.5169 274.804C37.5121 273.069 34.6284 271.127 31.9103 268.972C29.1193 266.76 26.4946 264.337 24.0857 261.712C23.4795 261.047 22.8829 260.375 22.3018 259.689C21.7554 259.044 21.2246 258.39 20.6963 257.733C19.6815 256.465 18.6829 255.184 17.7339 253.868C16.7225 252.461 15.7586 251.016 14.8979 249.509C14.0546 248.029 13.2943 246.496 12.7132 244.893C12.1495 243.35 11.7365 241.745 11.5909 240.104C11.5201 239.291 11.5052 238.473 11.5735 237.66C11.5935 237.419 11.6186 237.175 11.6515 236.935C11.5478 236.928 11.4447 236.923 11.3442 236.923C10.8056 236.923 10.3249 237.031 9.92229 237.243Z" fill="#726964"/>
<path d="M39.7915 327.208C37.152 327.208 34.352 327.502 31.2312 328.107C28.555 328.621 25.7138 329.383 22.2908 330.502C19.0463 331.564 15.7889 332.797 12.6392 333.988C6.06706 336.475 -0.729247 339.046 -7.80194 340.216C-7.80516 340.217 -7.84511 340.227 -7.84446 340.23C-7.84382 340.233 -7.87539 340.241 -7.87539 340.241C-10.0942 340.577 -12.2989 340.771 -14.3921 340.8C-14.6794 340.805 -14.9391 341.016 -15.0099 341.301C-15.1684 341.376 -15.2979 341.532 -15.3617 341.723C-19.5204 354.31 -22.4221 365.99 -24.2332 377.43C-26.3837 391.03 -26.7941 403.165 -25.4895 414.53C-24.8214 420.348 -23.6134 426.159 -21.9003 431.8C-20.9919 434.786 -19.9881 437.47 -18.8323 440.005C-17.5425 442.84 -16.1206 445.252 -14.4855 447.377C-14.3695 447.529 -14.2626 447.63 -14.0861 447.674C-14.0352 447.688 -13.9817 447.694 -13.9269 447.694C-13.8883 447.694 -13.8503 447.691 -13.8122 447.685C-13.7233 447.726 -13.6248 447.748 -13.5301 447.748C-13.4083 447.748 -13.2956 447.712 -13.2054 447.643C-7.7111 443.517 -1.4637 439.621 5.89246 435.732C8.88763 434.149 12.0799 432.56 15.9391 430.73C17.6322 429.927 19.3311 429.139 21.0326 428.356C21.8502 427.981 22.6709 427.606 23.4885 427.234L24.5812 426.735C24.6681 426.708 24.7532 426.666 24.8363 426.624C24.8814 426.601 24.9265 426.579 24.9709 426.559L25.688 426.235L26.4057 425.91L28.4963 424.964L31.5366 423.587L31.6429 423.538L31.7486 423.489C31.8027 423.474 31.8529 423.452 31.9026 423.421C34.5975 422.197 38.1506 420.573 41.7224 418.866C42.5309 418.478 43.3362 418.086 44.1416 417.692C44.7697 417.387 45.3972 417.08 46.0254 416.777C47.1754 416.221 48.3305 415.674 49.4831 415.131C51.883 413.997 54.3615 412.826 56.7768 411.628C60.8917 409.587 66.25 406.781 71.1954 403.171C73.4954 401.492 75.575 399.712 77.377 397.878C79.2725 395.947 80.9121 393.851 82.2502 391.648C83.6231 389.389 84.6675 386.926 85.3536 384.331C86.0378 381.761 86.3451 378.95 86.2678 375.976C86.1995 373.258 85.7679 370.349 84.9838 367.332C84.2732 364.586 83.2463 361.786 81.845 358.775C79.3105 353.331 75.8025 348.101 71.4176 343.228C69.3869 340.971 67.1713 338.847 64.8339 336.915C62.5668 335.046 60.2081 333.405 57.8237 332.038C55.1997 330.535 52.4074 329.354 49.525 328.527C46.6329 327.699 43.5231 327.257 40.2824 327.213C40.1188 327.21 39.9552 327.208 39.7915 327.208Z" fill="#5E5E5E"/>
<path d="M83.5449 362.754C83.541 362.754 83.5333 362.761 83.5333 362.765C83.2981 363.568 83.0359 364.344 82.7563 365.068C82.3646 366.065 81.9317 367.019 81.4678 367.906C80.7971 369.195 80.0466 370.438 79.2361 371.599C78.3373 372.884 77.3709 374.107 76.3646 375.236C75.8524 375.813 75.3138 376.39 74.7649 376.949C74.3275 377.394 73.745 377.978 73.1143 378.544C71.9521 379.599 70.7537 380.555 69.5535 381.386C68.3204 382.235 67.0769 382.995 65.8599 383.645C64.5501 384.343 63.1985 384.979 61.8436 385.535C59.2711 386.583 56.531 387.453 53.4669 388.194C48.1821 389.47 42.702 390.204 37.4029 390.915L35.6067 391.154L34.8723 391.254L34.1423 391.355L33.299 391.471L32.7707 391.549C32.4589 391.595 32.1464 391.64 31.832 391.678C31.3888 391.733 30.9462 391.781 30.5036 391.828L29.5494 391.934C27.6463 392.159 25.611 392.442 23.619 392.989C22.3723 393.341 21.4002 393.73 20.56 394.212C20.3358 394.346 20.1168 394.487 19.908 394.643C19.7109 394.797 19.5247 394.956 19.3456 395.132C19.2193 395.263 19.0989 395.397 18.9926 395.545C18.9043 395.664 18.8238 395.787 18.7484 395.916C18.6801 396.04 18.6195 396.161 18.5744 396.287C18.5184 396.429 18.4733 396.572 18.4378 396.718C18.4101 396.829 18.3805 396.983 18.3696 397.137C18.3599 397.256 18.3547 397.371 18.3547 397.487C18.3625 397.682 18.3753 397.876 18.4076 398.068C18.4333 398.213 18.463 398.352 18.501 398.493C18.5474 398.638 18.5918 398.776 18.6498 398.906C18.7026 399.033 18.7658 399.156 18.8315 399.277C18.9249 399.437 19.0125 399.572 19.1163 399.699C19.2245 399.835 19.3405 399.963 19.4667 400.089C19.6484 400.263 19.8191 400.404 19.9886 400.52C20.1793 400.659 20.3809 400.782 20.5877 400.903C20.9608 401.101 21.319 401.26 21.6811 401.389C22.0232 401.516 22.402 401.632 22.8749 401.754C23.9237 402.007 25.0538 402.177 26.3281 402.275C27.3886 402.358 28.5566 402.401 29.8999 402.409H30.3457C30.8437 402.409 31.3424 402.406 31.843 402.401L33.0561 402.396C33.4736 402.396 33.8937 402.396 34.3118 402.411C34.6307 402.423 34.9477 402.441 35.2646 402.481C35.3316 402.489 35.3851 402.541 35.3929 402.606C35.4025 402.658 35.3806 402.713 35.3368 402.747C34.6184 403.289 33.8498 403.759 33.0529 404.145C32.1883 404.564 31.2689 404.924 30.3212 405.217C28.4812 405.777 26.5072 406.159 24.2871 406.385C22.3833 406.581 20.3481 406.677 18.0642 406.677C15.9259 406.677 13.7753 406.589 12.1402 406.513C10.6745 406.448 9.09542 406.371 7.48219 406.249C5.54941 406.106 3.788 405.939 2.09682 405.738C-1.54776 405.309 -5.1189 404.732 -8.51738 404.024C-12.0138 403.298 -15.4599 402.426 -18.7598 401.432C-20.5779 400.882 -22.2556 400.335 -23.8881 399.761C-24.6683 399.487 -25.446 399.205 -26.221 398.915C-26.3325 404.25 -26.0922 409.503 -25.5149 414.53C-24.8455 420.354 -23.6362 426.168 -21.9212 431.811C-21.0102 434.806 -20.0065 437.49 -18.8532 440.016C-17.5628 442.848 -16.1409 445.262 -14.5058 447.396C-14.3905 447.544 -14.2758 447.652 -14.0922 447.696C-14.0419 447.714 -13.9878 447.723 -13.9272 447.723C-13.8866 447.723 -13.8461 447.721 -13.8074 447.713C-13.7146 447.755 -13.6173 447.779 -13.5297 447.779C-13.408 447.779 -13.2894 447.739 -13.1863 447.664C-7.69079 443.54 -1.44533 439.644 5.90697 435.754C8.76169 434.243 11.9527 432.653 15.951 430.75C17.6441 429.947 19.343 429.16 21.0413 428.377C21.8595 428.002 22.6797 427.627 23.4979 427.254L24.5899 426.756C24.6704 426.732 24.751 426.694 24.8315 426.656L24.9829 426.58L25.6974 426.255L26.4144 425.931L28.5057 424.985L31.546 423.608L31.6516 423.56L31.7599 423.51C31.8056 423.503 31.8565 423.481 31.9171 423.442C35.628 421.761 38.839 420.271 41.7337 418.887C42.5441 418.499 43.3495 418.107 44.1548 417.714L45.5689 417.027L46.0373 416.798C47.1873 416.241 48.3425 415.696 49.4951 415.152L49.6941 415.059C52.0554 413.943 54.4617 412.806 56.7881 411.649C60.8972 409.613 66.2497 406.813 71.2144 403.193C73.5112 401.513 75.5908 399.732 77.3961 397.899C79.3018 395.956 80.9427 393.857 82.2744 391.659C83.6512 389.4 84.6955 386.937 85.3785 384.342C86.0633 381.763 86.3725 378.948 86.2965 375.977C86.2289 373.261 85.7953 370.349 85.008 367.324C84.6189 365.814 84.1441 364.322 83.5558 362.763L83.5449 362.754Z" fill="#474747"/>
<path d="M33.2168 335.138C32.9932 335.322 32.847 335.594 32.8193 335.886C32.7594 336.495 33.2123 337.023 33.8108 337.097C34.8255 337.217 35.8422 337.315 36.8562 337.436C37.8703 337.559 38.8869 337.692 39.8991 337.846C41.9117 338.149 43.9148 338.538 45.8984 339.005C51.0068 340.242 56.0069 341.956 60.6468 344.452C60.6443 344.45 60.641 344.449 60.6385 344.448C64.0447 346.306 67.2376 348.553 70.0653 351.214C72.4433 353.476 74.568 356.018 76.3294 358.787C76.4609 358.991 76.7849 358.988 76.9537 358.85C77.158 358.681 77.1451 358.43 77.0169 358.226C75.9699 356.57 74.8322 354.972 73.5939 353.457C72.3982 351.995 71.0942 350.623 69.7238 349.325C69.7316 349.332 69.7387 349.339 69.7464 349.347C68.3271 348.003 66.8446 346.73 65.2739 345.565C63.7161 344.41 62.0984 343.355 60.422 342.381C57.0171 340.4 53.388 338.792 49.6384 337.592C47.1038 336.781 44.5068 336.165 41.8866 335.7C40.6084 335.473 39.3225 335.289 38.0314 335.148C36.7029 335.003 35.3635 334.899 34.0299 334.892C33.7258 334.892 33.461 334.94 33.2168 335.138ZM45.6066 338.936C45.6968 338.957 45.7876 338.978 45.8772 339.001C45.7863 338.98 45.6955 338.958 45.6066 338.936ZM69.7238 349.325C69.6961 349.298 69.6678 349.272 69.6381 349.244L69.7238 349.325Z" fill="#474747"/>
<path d="M23.2888 341.949C21.3811 341.949 19.4761 342.057 17.5813 342.277C15.7993 342.483 14.025 342.794 12.3016 343.288C11.7765 343.435 11.2663 343.618 10.7508 343.79C10.7141 343.802 10.6774 343.813 10.64 343.824C10.477 343.899 10.3411 344.01 10.2354 344.156C10.0718 344.38 10.0061 344.667 10.0538 344.939C10.0995 345.203 10.2477 345.442 10.4641 345.601C10.6658 345.746 10.9976 345.857 11.2469 345.782C11.7127 345.638 12.1959 345.545 12.6688 345.432C13.1849 345.309 13.7003 345.185 14.2189 345.07C15.2736 344.833 16.3353 344.629 17.4028 344.453C19.592 344.096 21.8141 343.894 24.0316 343.814C23.9775 343.817 23.9221 343.82 23.8673 343.821C26.5887 343.733 29.3101 343.82 32.0192 344.108C34.7418 344.401 37.4439 344.872 40.1098 345.498C42.4568 346.063 44.7768 346.74 47.0362 347.592C49.2235 348.413 51.3618 349.379 53.417 350.491C53.4157 350.49 53.4144 350.489 53.4131 350.488C53.4176 350.491 53.4228 350.493 53.4273 350.496C53.4518 350.51 53.4763 350.522 53.5014 350.536C53.493 350.532 53.4853 350.528 53.4776 350.524C53.9685 350.797 54.453 351.08 54.933 351.372C55.1121 351.48 55.3382 351.464 55.467 351.286C55.5824 351.127 55.5598 350.863 55.3839 350.752C53.886 349.839 52.3514 348.986 50.773 348.223C49.1224 347.423 47.4286 346.715 45.7123 346.071C43.9483 345.41 42.156 344.818 40.3392 344.312C38.4721 343.791 36.5793 343.371 34.6742 343.016C32.7865 342.664 30.8795 342.405 28.9667 342.224C27.1009 342.045 25.2345 341.949 23.3622 341.949H23.2888ZM10.995 343.713C10.9622 343.725 10.9299 343.735 10.8971 343.745C10.8546 343.758 10.8127 343.771 10.7702 343.783C10.8462 343.76 10.9216 343.738 10.995 343.713ZM53.4776 350.524C53.4608 350.515 53.4441 350.505 53.4273 350.496L53.417 350.491C53.4363 350.502 53.4563 350.513 53.4776 350.524ZM23.7797 343.824C23.8087 343.823 23.8377 343.822 23.8673 343.821C23.8377 343.821 23.8087 343.823 23.7797 343.824Z" fill="#474747"/>
<path d="M297.318 181.357C297.705 181.357 298.083 181.415 298.475 181.534C298.923 181.667 299.39 181.896 299.904 182.234C300.336 182.515 300.778 182.876 301.299 183.372C302.135 184.169 302.922 185.129 303.857 186.486C304.589 187.548 305.296 188.714 306.016 190.051C306.601 191.134 307.134 192.233 307.6 193.315C307.955 194.136 308.29 195.029 308.682 196.21C308.718 196.277 308.747 196.358 308.773 196.464L308.792 196.567L308.798 196.565C308.879 196.812 308.958 197.06 309.036 197.308L309.138 197.627C310.632 202.332 311.749 207.272 312.457 212.307C312.823 214.912 313.073 217.532 313.202 220.097L313.209 220.165C313.624 224.179 313.8 228.236 313.736 232.223C313.705 234.121 313.606 236.135 313.428 238.379C313.248 240.701 313.075 242.612 312.885 244.394C312.518 247.822 312.08 250.653 311.506 253.3C312.023 252.75 312.539 252.185 313.032 251.614C316.005 248.141 318.669 243.961 321.178 238.836C324.417 232.173 326.814 225.144 328.991 218.517C329.315 217.536 329.636 216.554 329.957 215.573L330.597 213.618L330.804 212.997C330.943 212.583 331.082 212.169 331.209 211.753C331.334 211.348 331.448 210.942 331.561 210.535L331.738 209.898C332.317 207.809 332.915 205.649 333.673 203.578C334.17 202.216 334.692 201.032 335.266 199.956C335.885 198.802 336.541 197.896 337.271 197.186C338.044 196.436 338.95 195.968 339.824 195.869C339.967 195.851 340.111 195.843 340.255 195.843C341.128 195.843 342.031 196.133 342.866 196.68C343.698 197.228 344.421 198.04 345.075 199.163C345.621 200.099 346.062 201.2 346.462 202.627C346.788 203.783 347.041 205.06 347.235 206.532C347.397 207.729 347.51 209.033 347.579 210.522C347.628 211.603 347.645 212.729 347.63 213.869C347.613 214.927 347.556 216.056 347.446 217.53C347.129 221.861 346.496 226.229 345.566 230.512C344.622 234.845 343.343 239.063 341.766 243.049C341.172 244.549 340.511 246.058 339.805 247.534C339.149 248.997 338.452 250.472 337.778 251.898C336.4 254.818 334.974 257.837 333.816 260.909C333.328 262.207 332.897 263.499 332.538 264.751L332.501 264.884L332.459 265.034C332.749 264.953 333.042 264.869 333.335 264.777C335.586 264.023 337.673 262.77 339.419 261.644C344.807 258.145 349.545 253.652 354.127 249.306L355.687 247.829C358.162 245.488 360.847 243.006 363.719 240.708C364.911 239.755 366.191 238.758 367.572 237.957C368.611 237.354 369.541 236.988 370.413 236.837C370.661 236.793 370.913 236.771 371.161 236.771C371.7 236.771 372.178 236.876 372.579 237.084C372.76 237.176 372.909 237.258 373.05 237.364C373.191 237.468 373.328 237.592 373.482 237.755C373.69 237.972 373.881 238.252 374.064 238.609C374.365 239.196 374.564 239.911 374.671 240.793C374.769 241.617 374.784 242.513 374.716 243.533C374.593 245.367 374.226 247.321 373.594 249.506C373.321 250.45 373.012 251.359 372.673 252.21C372.215 253.368 371.633 254.488 371.125 255.447C368.093 261.158 363.819 266.662 358.419 271.807C353.658 276.342 348.025 280.54 341.675 284.285C340.131 285.195 338.505 286.096 336.84 286.962C335.181 292.87 332.903 298.682 330.073 304.229C326.735 310.765 323.097 316.054 318.951 320.4C317.302 322.127 315.575 323.665 313.819 324.971C319.293 328.709 325.746 331.873 333.56 334.644C333.669 334.651 333.775 334.689 333.873 334.755L334.005 334.799C334.169 334.857 334.314 334.919 334.422 335.087C334.512 335.227 334.544 335.403 334.511 335.57C334.491 335.668 334.449 335.759 334.386 335.839C334.604 336.581 334.749 337.401 334.83 338.339C334.925 339.458 334.904 340.679 334.764 342.183C334.523 344.732 333.927 347.464 332.94 350.534C332.03 353.372 330.928 356.046 329.665 358.486C329.061 359.656 328.46 360.684 327.831 361.627C327.486 362.141 327.167 362.586 326.854 362.986C326.428 363.531 325.973 364.04 325.421 364.638C323.14 367.099 320.367 369.435 316.944 371.778C315.522 372.754 313.989 373.718 312.258 374.726C310.476 375.759 308.896 376.608 307.428 377.323C305.803 378.113 304.433 378.65 303.116 379.012C301.719 379.395 300.301 379.59 298.9 379.59C298.756 379.59 298.61 379.588 298.466 379.583C298.419 379.581 298.375 379.578 298.332 379.573C298.232 379.644 298.107 379.682 297.975 379.682C297.839 379.682 297.704 379.641 297.587 379.565C283.029 370.015 271.566 361.817 261.513 353.766C256.117 349.449 251.816 345.819 247.977 342.343C243.018 337.854 238.927 333.65 235.472 329.493C231.357 324.542 228.227 319.721 225.9 314.758C224.685 312.167 223.692 309.445 222.95 306.669C222.595 305.344 222.295 303.922 222.057 302.443C221.796 300.804 221.619 299.008 221.518 296.95C221.406 294.668 221.413 292.413 221.458 289.73C221.47 289.001 221.485 288.271 221.499 287.54L221.528 286.089L221.532 285.879C221.546 285.03 221.559 284.182 221.548 283.331C221.533 282.542 221.51 281.754 221.486 280.964C221.435 279.258 221.383 277.493 221.423 275.755C221.453 274.301 221.556 273.017 221.735 271.831C221.933 270.53 222.231 269.451 222.646 268.535C223.191 267.335 224.016 266.358 224.969 265.784C225.399 265.525 225.878 265.351 226.391 265.27C226.565 265.242 226.741 265.23 226.918 265.23C227.259 265.23 227.627 265.278 228.012 265.373C228.959 265.605 229.898 266.116 230.966 266.98C231.824 267.671 232.668 268.531 233.619 269.687C236.166 272.776 238.181 276.592 239.608 281.031C241.101 285.68 241.751 290.281 241.535 294.703C242.931 294.533 244.348 294.256 245.738 293.874C248.301 293.146 250.845 292.049 253.299 290.613L253.162 290.708C255.836 289.119 258.348 287.176 260.624 284.921C262.701 282.834 264.488 280.52 265.935 278.045L265.863 278.197C267.257 275.768 268.344 273.18 269.083 270.499C269.809 267.767 270.18 264.935 270.185 262.08C270.162 259.089 269.741 256.087 268.932 253.157C268.116 250.274 266.92 247.457 265.376 244.787C264.964 244.077 264.515 243.363 264.043 242.665C261.582 244.842 258.863 246.836 255.973 248.591C254.325 249.59 252.599 250.517 250.842 251.344C249.957 251.763 249.054 252.159 248.158 252.523C247.474 252.802 246.735 253.096 245.97 253.346C245.283 253.571 244.512 253.755 243.546 253.925C242.581 254.094 241.561 254.22 240.515 254.297C239.76 254.353 239.018 254.38 238.31 254.38C236.928 254.38 235.608 254.274 234.386 254.063C233.441 253.902 232.599 253.661 231.812 253.328C231.045 253.003 230.443 252.59 230.023 252.101C229.758 251.791 229.567 251.476 229.423 251.11C229.305 250.809 229.242 250.452 229.242 250.076C229.239 249.313 229.499 248.507 230.035 247.611C230.735 246.448 231.679 245.488 232.669 244.524C234.244 242.994 235.896 241.512 237.305 240.264C238.151 239.515 239.003 238.773 239.856 238.03C240.586 237.393 241.316 236.756 242.043 236.116C243.274 235.031 244.475 233.91 245.7 232.761C250.523 228.235 255.511 223.554 262.124 222.238C263.297 222.004 264.468 221.885 265.606 221.885C266.052 221.885 266.515 221.904 266.98 221.943C268.507 222.069 270.042 222.399 271.545 222.925C274.339 223.902 277.099 225.557 279.749 227.844C281.795 229.612 283.749 231.767 285.555 234.25C286.848 236.024 287.997 237.899 288.971 239.825C290.017 236.39 290.818 233.209 291.41 230.1L291.408 230.187L291.393 230.271C292.192 225.965 292.663 221.43 292.817 216.402C292.882 214.281 292.889 211.999 292.842 209.427C292.82 208.256 292.782 207.089 292.739 205.922C292.707 205.047 292.667 204.031 292.588 203.03L292.608 203.116C292.507 202.028 292.396 200.939 292.284 199.851C291.98 196.881 291.666 193.81 291.826 190.776C291.877 189.786 292.003 188.777 292.198 187.777C292.384 186.835 292.661 185.949 293.019 185.143C293.368 184.354 293.746 183.698 294.172 183.139C294.575 182.615 295.021 182.2 295.533 181.869C295.939 181.608 296.431 181.433 296.92 181.378C297.053 181.362 297.185 181.357 297.318 181.357ZM249.435 250.573L249.439 250.571L249.417 250.581L249.085 250.741L249.417 250.582L249.435 250.573Z" fill="#C1BFBB"/>
<path d="M298.481 181.521C298.933 181.657 299.399 181.888 299.908 182.223C300.335 182.498 300.781 182.86 301.31 183.36C302.135 184.148 302.925 185.11 303.866 186.479C304.591 187.526 305.298 188.691 306.026 190.045C306.607 191.119 307.14 192.217 307.608 193.309C307.961 194.12 308.295 195.01 308.691 196.203C308.726 196.266 308.753 196.342 308.784 196.458L308.804 196.566C308.889 196.805 308.967 197.051 309.045 197.298L309.146 197.62C310.641 202.321 311.758 207.261 312.471 212.307C312.833 214.875 313.082 217.497 313.215 220.096L313.223 220.164C313.636 224.186 313.812 228.243 313.749 232.221C313.719 234.114 313.621 236.13 313.442 238.377C313.266 240.635 313.095 242.547 312.898 244.392C312.567 247.466 312.183 250.054 311.696 252.457C311.568 252.274 311.45 252.086 311.343 251.889C311.218 251.657 311.104 251.423 311.003 251.182L311.019 251.22C310.84 250.782 310.691 250.334 310.58 249.876C310.465 249.397 310.379 248.917 310.314 248.431V248.433C310.14 247.047 310.125 245.65 310.153 244.256C310.166 243.599 310.186 242.942 310.2 242.283C310.208 241.961 310.213 241.639 310.216 241.317C310.216 240.969 310.211 240.624 310.208 240.277C310.18 236.623 310.249 232.969 310.16 229.315C310.133 228.111 310.09 226.911 310.017 225.711C309.949 224.558 309.856 223.406 309.745 222.253C309.534 220.041 309.262 217.836 308.927 215.639C308.242 211.155 307.311 206.705 306.121 202.326C305.528 200.144 304.876 197.977 304.153 195.836C303.466 193.787 302.724 191.756 301.913 189.753C301.178 187.941 300.383 186.142 299.402 184.448C298.908 183.592 298.375 182.757 297.773 181.974C297.608 181.76 297.442 181.548 297.27 181.34H297.318C297.706 181.34 298.086 181.401 298.481 181.521Z" fill="#726964"/>
<path d="M228.017 265.361C228.961 265.595 229.902 266.106 230.977 266.969C231.835 267.661 232.677 268.522 233.629 269.675C236.181 272.775 238.197 276.593 239.616 281.025C241.055 285.5 241.711 289.926 241.57 294.189C241.564 294.191 241.558 294.192 241.551 294.194C241.521 294.204 241.489 294.21 241.457 294.215C240.878 291.31 240.264 288.41 239.414 285.572C238.972 284.085 238.471 282.615 237.877 281.181C237.578 280.459 237.258 279.741 236.913 279.039C236.624 278.448 236.319 277.866 236 277.293C235.298 276.032 234.54 274.801 233.71 273.621C232.808 272.337 231.83 271.102 230.738 269.974C230.211 269.433 229.666 268.907 229.081 268.424C228.508 267.949 227.906 267.5 227.27 267.113C226.67 266.75 226.046 266.426 225.392 266.177C225.163 266.091 224.934 266.013 224.7 265.945C224.788 265.884 224.876 265.827 224.964 265.774C225.4 265.512 225.878 265.336 226.391 265.253C226.565 265.225 226.741 265.213 226.917 265.213C227.244 265.213 227.614 265.263 228.017 265.361Z" fill="#726964"/>
<path d="M342.868 196.67C343.707 197.219 344.429 198.034 345.083 199.158C345.629 200.09 346.07 201.19 346.472 202.621C346.794 203.757 347.048 205.035 347.247 206.533C347.411 207.738 347.524 209.044 347.592 210.521C347.64 211.583 347.658 212.709 347.642 213.868C347.627 214.88 347.57 216.01 347.459 217.53C347.142 221.856 346.51 226.225 345.579 230.516C344.627 234.865 343.346 239.085 341.774 243.054C341.18 244.559 340.52 246.069 339.813 247.539C339.139 249.041 338.414 250.579 337.787 251.902C336.413 254.814 334.994 257.819 333.824 260.915C333.352 262.174 332.931 263.432 332.574 264.66C332.466 264.31 332.369 263.956 332.291 263.597C332.21 263.225 332.143 262.85 332.09 262.475C332.092 262.487 332.094 262.503 332.097 262.518C331.991 261.723 331.944 260.922 331.961 260.122C331.976 259.357 332.039 258.597 332.14 257.839C332.138 257.854 332.135 257.869 332.132 257.882C332.427 255.763 333.001 253.692 333.695 251.671C334.045 250.654 334.425 249.65 334.805 248.646C335.203 247.594 335.603 246.544 336.001 245.492C337.591 241.298 339.169 237.089 340.485 232.799C340.812 231.724 341.129 230.644 341.421 229.56C341.691 228.561 341.943 227.559 342.179 226.55C342.508 225.138 342.823 223.721 343.107 222.299C343.424 220.713 343.712 219.123 343.953 217.522C344.202 215.862 344.409 214.19 344.547 212.515C344.688 210.813 344.766 209.105 344.741 207.395C344.715 205.76 344.61 204.124 344.366 202.506C344.137 200.968 343.792 199.438 343.261 197.973C343.087 197.492 342.897 197.018 342.684 196.554C342.746 196.591 342.807 196.63 342.868 196.67Z" fill="#726964"/>
<path d="M372.583 237.074C372.789 237.175 372.925 237.255 373.059 237.354C373.205 237.464 373.341 237.588 373.492 237.744C373.706 237.973 373.897 238.255 374.073 238.605C374.375 239.188 374.574 239.903 374.685 240.794C374.783 241.604 374.796 242.503 374.73 243.532C374.609 245.362 374.239 247.317 373.602 249.512C373.331 250.456 373.021 251.364 372.681 252.215C372.236 253.35 371.675 254.442 371.134 255.451C368.109 261.156 363.835 266.663 358.429 271.817C353.661 276.354 348.026 280.554 341.679 284.294C340.143 285.205 338.515 286.106 336.844 286.972C335.188 292.886 332.914 298.695 330.082 304.233C326.75 310.764 323.111 316.054 318.961 320.411C317.313 322.137 315.584 323.675 313.827 324.981C319.321 328.71 325.779 331.872 333.565 334.635C333.671 334.635 333.779 334.672 333.877 334.746L334.011 334.788C334.179 334.849 334.325 334.911 334.431 335.083C334.524 335.224 334.557 335.4 334.524 335.568C334.502 335.677 334.458 335.767 334.396 335.847C334.612 336.562 334.758 337.38 334.844 338.339C334.937 339.451 334.917 340.672 334.778 342.182C334.689 343.129 334.55 344.102 334.359 345.109C331.049 343.667 327.792 342.103 324.612 340.392C324.599 340.385 324.588 340.379 324.575 340.373V340.374C323.834 339.972 323.098 339.565 322.361 339.145C319.266 337.38 316.25 335.47 313.364 333.377C310.505 331.305 307.767 329.06 305.203 326.632C305.203 326.632 305.205 326.634 305.208 326.634C303.949 325.438 302.732 324.196 301.562 322.907C303.652 321.581 305.616 320.06 307.46 318.41C310.261 315.906 312.808 313.133 315.194 310.236C315.78 309.526 316.359 308.806 316.927 308.082C317.496 307.354 318.06 306.624 318.606 305.882C319.779 304.284 320.884 302.638 321.926 300.954C324.019 297.577 325.887 294.066 327.631 290.5C328.062 289.62 328.489 288.736 328.902 287.845C329.304 286.98 329.692 286.104 330.045 285.213C330.402 284.302 330.731 283.378 330.99 282.434C331.126 281.944 331.25 281.45 331.348 280.95C331.434 280.512 331.506 280.074 331.564 279.631V279.626C331.579 279.621 331.592 279.616 331.605 279.61C333.469 278.79 335.364 278.038 337.204 277.162C338.055 276.76 338.893 276.329 339.726 275.889C340.486 275.483 341.241 275.066 341.989 274.635C344.993 272.901 347.877 270.959 350.595 268.804C353.386 266.592 356.011 264.169 358.42 261.543C359.026 260.879 359.623 260.207 360.204 259.52C360.75 258.876 361.281 258.222 361.809 257.565C362.824 256.297 363.823 255.016 364.772 253.7C365.783 252.293 366.747 250.848 367.608 249.341C368.451 247.861 369.211 246.328 369.792 244.725C370.356 243.182 370.769 241.577 370.915 239.936C370.985 239.123 371 238.305 370.932 237.492C370.912 237.25 370.887 237.007 370.854 236.767C370.958 236.76 371.061 236.755 371.161 236.755C371.7 236.755 372.181 236.863 372.583 237.074Z" fill="#726964"/>
<path d="M342.713 327.04C345.353 327.04 348.153 327.334 351.273 327.939C353.95 328.454 356.791 329.215 360.213 330.334C363.458 331.397 366.716 332.629 369.866 333.82C376.438 336.307 383.234 338.878 390.307 340.048C390.31 340.049 390.35 340.059 390.349 340.063C390.348 340.066 390.38 340.074 390.38 340.074C392.599 340.409 394.803 340.604 396.897 340.632C397.184 340.637 397.444 340.848 397.515 341.133C397.674 341.208 397.803 341.364 397.866 341.555C402.026 354.142 404.927 365.822 406.738 377.262C408.888 390.863 409.299 402.998 407.993 414.362C407.325 420.18 406.118 425.991 404.405 431.633C403.496 434.618 402.493 437.302 401.337 439.837C400.047 442.672 398.625 445.084 396.989 447.21C396.874 447.36 396.767 447.463 396.591 447.507C396.54 447.519 396.486 447.527 396.431 447.527C396.393 447.527 396.355 447.523 396.316 447.517C396.228 447.558 396.129 447.581 396.035 447.581C395.913 447.581 395.8 447.544 395.71 447.476C390.215 443.349 383.968 439.453 376.611 435.565C373.618 433.982 370.425 432.392 366.566 430.562C364.872 429.759 363.173 428.971 361.472 428.188C360.654 427.814 359.834 427.439 359.016 427.066L357.923 426.568C357.836 426.54 357.751 426.498 357.668 426.457C357.623 426.434 357.578 426.411 357.534 426.392L356.817 426.067L356.099 425.742L354.008 424.796L350.968 423.42L350.862 423.37L350.756 423.321C350.702 423.307 350.651 423.284 350.602 423.253C347.907 422.029 344.354 420.405 340.783 418.698C339.974 418.311 339.168 417.918 338.362 417.525C337.735 417.219 337.107 416.913 336.479 416.609C335.329 416.053 334.174 415.507 333.021 414.964C330.621 413.829 328.143 412.658 325.728 411.46C321.612 409.419 316.255 406.613 311.309 403.004C309.01 401.325 306.93 399.543 305.128 397.71C303.232 395.779 301.592 393.683 300.254 391.48C298.881 389.221 297.837 386.758 297.15 384.163C296.467 381.593 296.159 378.782 296.237 375.808C296.305 373.09 296.737 370.182 297.521 367.165C298.231 364.418 299.258 361.618 300.66 358.607C303.194 353.164 306.702 347.933 311.087 343.06C313.118 340.803 315.333 338.679 317.671 336.748C319.938 334.878 322.297 333.237 324.681 331.87C327.305 330.367 330.097 329.186 332.98 328.359C335.872 327.532 338.982 327.089 342.222 327.045C342.386 327.042 342.549 327.04 342.713 327.04Z" fill="#5E5E5E"/>
<path d="M298.96 362.585C298.964 362.585 298.972 362.594 298.972 362.598C299.207 363.4 299.469 364.175 299.749 364.9C300.14 365.897 300.574 366.851 301.037 367.738C301.708 369.027 302.459 370.27 303.268 371.432C304.168 372.716 305.134 373.939 306.14 375.068C306.652 375.645 307.191 376.222 307.74 376.782C308.178 377.226 308.76 377.809 309.39 378.377C310.553 379.43 311.751 380.386 312.952 381.217C314.185 382.067 315.428 382.827 316.645 383.478C317.954 384.175 319.306 384.811 320.662 385.366C323.234 386.415 325.974 387.285 329.038 388.027C334.323 389.302 339.803 390.037 345.102 390.747L346.898 390.986L347.633 391.086L348.363 391.187L349.206 391.303L349.734 391.381C350.046 391.426 350.358 391.472 350.673 391.51C351.116 391.564 351.559 391.613 352.002 391.66L352.956 391.766C354.859 391.991 356.894 392.274 358.886 392.821C360.132 393.173 361.104 393.561 361.945 394.045C362.169 394.178 362.388 394.319 362.597 394.475C362.794 394.629 362.98 394.788 363.159 394.964C363.285 395.095 363.406 395.229 363.512 395.378C363.6 395.496 363.681 395.619 363.756 395.748C363.825 395.872 363.885 395.993 363.931 396.119C363.986 396.26 364.032 396.404 364.067 396.55C364.095 396.662 364.125 396.815 364.135 396.969C364.145 397.088 364.15 397.203 364.15 397.319C364.143 397.514 364.13 397.708 364.098 397.899C364.072 398.046 364.042 398.184 364.004 398.325C363.958 398.47 363.913 398.608 363.855 398.739C363.803 398.865 363.739 398.988 363.674 399.109C363.58 399.268 363.492 399.404 363.389 399.531C363.28 399.667 363.164 399.795 363.038 399.921C362.857 400.096 362.685 400.236 362.517 400.352C362.325 400.491 362.124 400.614 361.917 400.735C361.544 400.932 361.186 401.092 360.824 401.221C360.482 401.348 360.103 401.464 359.63 401.586C358.581 401.84 357.451 402.01 356.176 402.108C355.116 402.189 353.948 402.233 352.605 402.241H352.159C351.661 402.241 351.163 402.238 350.662 402.233L349.449 402.228C349.032 402.228 348.611 402.228 348.193 402.244C347.874 402.256 347.558 402.274 347.24 402.314C347.174 402.321 347.119 402.374 347.112 402.439C347.103 402.49 347.125 402.545 347.168 402.579C347.886 403.121 348.655 403.591 349.452 403.977C350.317 404.396 351.236 404.757 352.184 405.049C354.024 405.609 355.997 405.991 358.218 406.217C360.121 406.413 362.157 406.509 364.441 406.509C366.579 406.509 368.73 406.421 370.364 406.345C371.83 406.28 373.409 406.203 375.023 406.081C376.955 405.938 378.717 405.771 380.408 405.57C384.053 405.141 387.624 404.564 391.023 403.857C394.518 403.131 397.964 402.258 401.265 401.264C403.082 400.714 404.761 400.167 406.393 399.593C407.174 399.319 407.951 399.037 408.726 398.748C408.838 404.083 408.597 409.335 408.02 414.363C407.35 420.186 406.141 426 404.426 431.643C403.515 434.639 402.512 437.323 401.358 439.848C400.068 442.68 398.646 445.094 397.011 447.228C396.896 447.377 396.781 447.484 396.597 447.528C396.547 447.546 396.493 447.556 396.432 447.556C396.391 447.556 396.351 447.553 396.313 447.545C396.22 447.588 396.122 447.611 396.035 447.611C395.913 447.611 395.795 447.571 395.692 447.496C390.196 443.372 383.951 439.476 376.598 435.586C373.744 434.076 370.552 432.486 366.554 430.583C364.86 429.78 363.162 428.992 361.463 428.209C360.645 427.834 359.825 427.459 359.007 427.087L357.915 426.589C357.835 426.564 357.754 426.526 357.673 426.488L357.522 426.412L356.807 426.088L356.09 425.764L353.999 424.817L350.959 423.44L350.853 423.393L350.745 423.342C350.699 423.335 350.649 423.313 350.588 423.274C346.877 421.593 343.666 420.103 340.771 418.719C339.961 418.331 339.156 417.939 338.35 417.547L336.936 416.859L336.468 416.631C335.318 416.074 334.163 415.528 333.01 414.984L332.811 414.892C330.449 413.775 328.044 412.638 325.716 411.482C321.608 409.446 316.255 406.645 311.291 403.025C308.994 401.345 306.914 399.564 305.108 397.732C303.203 395.788 301.562 393.688 300.231 391.491C298.854 389.231 297.81 386.77 297.127 384.174C296.442 381.595 296.132 378.781 296.208 375.809C296.276 373.093 296.71 370.181 297.497 367.156C297.886 365.646 298.361 364.155 298.949 362.595L298.96 362.585Z" fill="#474747"/>
<path d="M349.288 334.97C349.512 335.154 349.658 335.426 349.686 335.718C349.746 336.327 349.293 336.855 348.694 336.928C347.68 337.049 346.663 337.147 345.649 337.268C344.635 337.391 343.618 337.524 342.606 337.678C340.593 337.981 338.59 338.37 336.606 338.838C331.498 340.075 326.497 341.788 321.858 344.284C321.861 344.283 321.864 344.281 321.867 344.279C318.46 346.138 315.267 348.385 312.44 351.047C310.062 353.307 307.937 355.85 306.175 358.619C306.045 358.823 305.72 358.82 305.551 358.682C305.348 358.513 305.36 358.262 305.489 358.057C306.536 356.402 307.673 354.804 308.911 353.289C310.107 351.827 311.411 350.455 312.781 349.157C312.773 349.165 312.766 349.171 312.759 349.179C314.178 347.835 315.661 346.562 317.231 345.396C318.789 344.241 320.407 343.187 322.083 342.213C325.488 340.232 329.117 338.624 332.867 337.424C335.401 336.613 337.999 335.997 340.618 335.532C341.896 335.305 343.182 335.121 344.474 334.98C345.803 334.834 347.141 334.731 348.475 334.724C348.78 334.724 349.044 334.771 349.288 334.97ZM336.899 338.768C336.808 338.789 336.717 338.811 336.628 338.833C336.719 338.811 336.809 338.79 336.899 338.768ZM312.781 349.157C312.809 349.13 312.837 349.104 312.867 349.076C312.838 349.103 312.809 349.13 312.781 349.157Z" fill="#474747"/>
<path d="M359.216 341.78C361.123 341.78 363.029 341.889 364.923 342.108C366.705 342.314 368.48 342.626 370.203 343.119C370.729 343.267 371.238 343.45 371.754 343.622C371.791 343.633 371.827 343.644 371.865 343.655C372.028 343.73 372.164 343.841 372.269 343.988C372.433 344.211 372.499 344.498 372.451 344.77C372.405 345.034 372.257 345.273 372.04 345.432C371.839 345.578 371.507 345.688 371.258 345.613C370.792 345.469 370.309 345.377 369.836 345.263C369.32 345.14 368.804 345.016 368.286 344.901C367.231 344.664 366.169 344.46 365.102 344.285C362.913 343.927 360.691 343.725 358.473 343.645C358.527 343.649 358.583 343.651 358.637 343.652C355.916 343.564 353.195 343.651 350.485 343.939C347.763 344.232 345.061 344.703 342.395 345.33C340.048 345.894 337.728 346.571 335.468 347.423C333.282 348.245 331.143 349.211 329.088 350.322C329.089 350.321 329.09 350.321 329.091 350.319C329.087 350.323 329.082 350.325 329.077 350.327C329.052 350.341 329.028 350.353 329.003 350.367C329.012 350.363 329.019 350.359 329.027 350.355C328.536 350.629 328.052 350.911 327.572 351.203C327.393 351.311 327.166 351.295 327.038 351.117C326.922 350.958 326.945 350.694 327.121 350.583C328.619 349.67 330.153 348.817 331.732 348.054C333.382 347.254 335.076 346.547 336.792 345.902C338.556 345.241 340.349 344.649 342.165 344.143C344.033 343.622 345.925 343.202 347.83 342.847C349.718 342.495 351.625 342.236 353.538 342.055C355.404 341.876 357.27 341.78 359.142 341.78H359.216ZM371.51 343.544C371.542 343.557 371.575 343.567 371.608 343.577C371.65 343.589 371.693 343.603 371.734 343.616C371.658 343.591 371.583 343.569 371.51 343.544ZM329.027 350.355C329.044 350.346 329.061 350.337 329.077 350.327C329.081 350.326 329.084 350.324 329.088 350.322C329.068 350.333 329.048 350.345 329.027 350.355Z" fill="#474747"/>
</g>
<defs>
<filter id="filter0_d_293_2075" x="95.5781" y="202.146" width="127.252" height="114.666" filterUnits="userSpaceOnUse" color-interpolation-filters="sRGB">
<feFlood flood-opacity="0" result="BackgroundImageFix"/>
<feColorMatrix in="SourceAlpha" type="matrix" values="0 0 0 0 0 0 0 0 0 0 0 0 0 0 0 0 0 0 127 0" result="hardAlpha"/>
<feOffset dy="4"/>
<feGaussianBlur stdDeviation="14.75"/>
<feComposite in2="hardAlpha" operator="out"/>
<feColorMatrix type="matrix" values="0 0 0 0 0 0 0 0 0 0 0 0 0 0 0 0 0 0 0.25 0"/>
<feBlend mode="normal" in2="BackgroundImageFix" result="effect1_dropShadow_293_2075"/>
<feBlend mode="normal" in="SourceGraphic" in2="effect1_dropShadow_293_2075" result="shape"/>
</filter>
<filter id="filter1_d_293_2075" x="182.407" y="217.169" width="94.0022" height="91.8287" filterUnits="userSpaceOnUse" color-interpolation-filters="sRGB">
<feFlood flood-opacity="0" result="BackgroundImageFix"/>
<feColorMatrix in="SourceAlpha" type="matrix" values="0 0 0 0 0 0 0 0 0 0 0 0 0 0 0 0 0 0 127 0" result="hardAlpha"/>
<feOffset dy="4"/>
<feGaussianBlur stdDeviation="11.05"/>
<feComposite in2="hardAlpha" operator="out"/>
<feColorMatrix type="matrix" values="0 0 0 0 0 0 0 0 0 0 0 0 0 0 0 0 0 0 0.25 0"/>
<feBlend mode="normal" in2="BackgroundImageFix" result="effect1_dropShadow_293_2075"/>
<feBlend mode="normal" in="SourceGraphic" in2="effect1_dropShadow_293_2075" result="shape"/>
</filter>
<clipPath id="clip0_293_2075">
<rect width="375" height="508" fill="white"/>
</clipPath>
<clipPath id="clip1_293_2075">
<rect width="680.504" height="493.194" fill="white" transform="translate(78.5967 -130) rotate(30)"/>
</clipPath>
</defs>
</svg>
