<svg width="375" height="508" viewBox="0 0 375 508" fill="none" xmlns="http://www.w3.org/2000/svg">
<g clip-path="url(#clip0_293_2073)">
<rect width="375" height="508" fill="#E5EAD7"/>
<path d="M-22.7751 148.567C-28.7055 146.128 -32.2316 138.922 -30.6021 132.664C-28.9459 126.406 -22.3209 121.963 -15.9899 122.857C-12.7308 123.318 -9.79233 124.97 -6.93399 126.596C-3.30096 128.654 0.332075 130.741 3.96511 132.799C-5.09076 129.576 -9.47176 118.251 -7.49497 108.715C-6.05244 101.861 -1.43101 95.3052 5.24735 93.5171C10.6969 92.0542 16.4937 93.8964 21.4891 96.5243C37.0097 104.597 47.882 119.471 57.1249 134.479C54.2398 130.442 57.4455 124.239 62.1203 122.613C66.7952 121.015 71.9242 122.694 76.3319 124.916C86.1624 129.901 94.3367 139.437 100 149L-22.7751 148.567Z" fill="#F2F5EB"/>
<path d="M377.452 173.45C385.057 170.359 389.58 161.223 387.49 153.288C385.366 145.354 376.87 139.721 368.75 140.854C364.571 141.438 360.802 143.533 357.137 145.594C352.478 148.205 347.818 150.85 343.159 153.46C354.773 149.373 360.391 135.015 357.856 122.925C356.006 114.235 350.079 105.923 341.515 103.656C334.526 101.801 327.092 104.137 320.686 107.468C300.781 117.704 286.838 136.561 274.985 155.59C278.685 150.472 274.574 142.606 268.579 140.545C262.583 138.519 256.006 140.648 250.353 143.465C237.746 149.785 227.263 161.875 220 174L377.452 173.45Z" fill="#F2F5EB"/>
<path d="M-39.0657 390.211C-46.2164 387.326 -50.5027 378.713 -48.5119 371.258C-46.5211 363.802 -38.4969 358.5 -30.8587 359.557C-26.9381 360.105 -23.3627 362.076 -19.9093 364.026C-15.5214 366.484 -11.1335 368.942 -6.74561 371.4C-17.6747 367.54 -22.9768 354.072 -20.5797 342.716C-18.853 334.55 -13.2462 326.749 -5.1814 324.616C1.40044 322.869 8.38857 325.083 14.4626 328.191C33.2127 337.82 46.3561 355.514 57.5086 373.391C54.0146 368.576 57.8946 361.182 63.542 359.272C69.1691 357.363 75.3853 359.353 80.7076 362.015C92.5712 367.967 102.464 379.302 109.29 390.698L-39.0657 390.211Z" fill="#F2F5EB"/>
<path d="M457.436 337.232C468.639 332.691 475.354 319.132 472.235 307.395C469.116 295.659 456.544 287.312 444.577 288.975C438.435 289.838 432.833 292.94 427.422 296.01C420.548 299.88 413.673 303.75 406.798 307.619C423.921 301.543 432.228 280.34 428.473 262.464C425.767 249.608 416.983 237.327 404.347 233.97C394.035 231.219 383.087 234.705 373.57 239.598C344.194 254.756 323.601 282.611 306.128 310.753C311.602 303.174 305.523 291.533 296.675 288.527C287.859 285.521 278.12 288.655 269.781 292.844C251.194 302.215 235.694 320.059 225 338L457.436 337.232Z" fill="#F2F5EB"/>
<path d="M218.666 148.876C221.16 157.737 231.294 161.936 239.319 157.428C249.607 151.633 262.029 160.184 260.358 171.879C259.046 180.997 266.582 188.956 275.738 188.081C287.492 186.973 295.362 199.852 289.087 209.846C284.174 217.651 287.852 227.98 296.571 230.917C307.734 234.703 309.74 249.669 299.915 256.237C292.276 261.363 291.427 272.284 298.192 278.544C306.859 286.554 302.59 301.031 290.964 303.04C281.911 304.611 276.69 314.245 280.316 322.719C284.997 333.563 275.198 345.051 263.778 342.167C254.854 339.9 246.186 346.597 246.057 355.793C245.929 367.616 232.323 374.132 223.038 366.817C215.811 361.125 205.163 363.7 201.33 372.072C196.418 382.813 181.32 383.225 175.816 372.767C171.521 364.628 160.744 362.619 153.851 368.723C145.004 376.528 131.063 370.758 130.266 358.961C129.649 349.765 120.621 343.557 111.851 346.314C100.585 349.842 90.1945 338.869 94.284 327.793C97.4732 319.139 91.7377 309.788 82.5814 308.732C70.8788 307.367 65.812 293.123 74.0424 284.648C80.4466 278.054 79.0063 267.158 71.1103 262.47C60.9766 256.443 62.134 241.374 73.0907 236.996C81.6298 233.57 84.7419 223.06 79.4178 215.539C72.6021 205.905 79.7779 192.614 91.5577 193.078C100.74 193.438 107.864 185.093 106.038 176.051C103.723 164.46 115.683 155.265 126.254 160.468C134.51 164.538 144.386 159.798 146.418 150.808C149.016 139.294 163.676 135.74 171.212 144.807C177.102 151.89 188.059 151.581 193.537 144.188C200.61 134.761 215.451 137.517 218.666 148.876Z" fill="#4F3422"/>
<path d="M363.726 426.86C354.081 393.065 324.374 368.955 289.37 366.482C209.252 360.79 72.4476 358.729 43.4098 389.794C53.2862 381.499 33.9191 399.942 43.4098 389.794C-1.00858 427.066 -7.92725 517.477 -7.92725 517.477L95.827 516.756L384.791 517.58C386.385 509.338 374.425 464.415 363.726 426.86Z" fill="#9BB168"/>
<path d="M228.593 328.953L221.443 306.182C227.436 307.599 234.02 306.105 238.881 301.597C246.675 294.385 247.163 282.227 239.962 274.422C232.76 266.618 220.62 266.128 212.827 273.34C212.364 273.778 211.927 274.216 211.515 274.68L203.079 247.84C202.025 244.517 198.733 242.456 195.286 242.971C178.208 245.522 130.523 257.499 127.051 311.591C126.794 315.687 130.009 319.19 134.124 319.19L155.163 319.164L153.491 333.795C178.851 338.663 204.108 336.01 228.593 328.953Z" fill="#CFD9B5"/>
<path d="M228.593 328.953C204.133 336.036 178.851 338.664 153.517 333.795L148.527 377.507C146.006 399.53 158.815 420.807 179.777 427.942C180.754 428.277 181.757 428.586 182.76 428.895C219.077 439.456 252.333 404.502 240.964 368.363L228.593 328.953Z" fill="#9BB168"/>
<path d="M163.445 259.663C153.054 265.046 142.637 270.404 132.246 275.787C130.883 276.483 130.755 278.466 131.758 279.497C134.844 282.639 137.905 285.756 140.991 288.898C143.126 291.062 146.444 287.739 144.309 285.575C141.223 282.433 138.162 279.316 135.076 276.174C134.921 277.41 134.767 278.646 134.587 279.883C144.978 274.499 155.394 269.142 165.785 263.758C168.512 262.342 166.12 258.272 163.445 259.663Z" fill="#4F3422"/>
<path d="M160.487 296.136C160.77 298.558 157.941 300.773 155.729 299.408C153.131 297.837 150.765 301.906 153.363 303.478C158.378 306.543 165.888 302.164 165.22 296.136C165.065 294.874 164.242 293.792 162.853 293.792C161.696 293.767 160.359 294.849 160.487 296.136Z" fill="#4F3422"/>
<path d="M229.468 282.923C225.43 284.288 221.392 285.653 217.354 287.018C214.499 287.997 215.734 292.53 218.614 291.552C222.652 290.186 226.69 288.821 230.728 287.456C233.583 286.503 232.349 281.944 229.468 282.923Z" fill="#4F3422"/>
<path d="M172.627 273.753C177.128 283.927 191.171 286.529 199.427 279.471C201.742 277.488 198.398 274.165 196.109 276.148C189.936 281.429 179.906 278.595 176.716 271.383C175.482 268.601 171.418 270.996 172.627 273.753Z" fill="#4F3422"/>
<path d="M176.485 275.633C174.762 277.384 173.013 279.11 171.29 280.862C169.155 283 172.473 286.348 174.607 284.185C176.331 282.433 178.08 280.707 179.803 278.956C181.963 276.818 178.645 273.495 176.485 275.633Z" fill="#4F3422"/>
<path d="M183.918 282.433C183.944 284.185 183.969 285.91 183.995 287.662C184.021 290.701 188.753 290.701 188.702 287.662C188.676 285.91 188.65 284.185 188.625 282.433C188.573 279.419 183.866 279.394 183.918 282.433Z" fill="#4F3422"/>
<path d="M193.178 282.381C193.743 283.927 194.283 285.498 194.849 287.044C195.287 288.229 196.444 289.053 197.756 288.692C198.913 288.383 199.839 286.992 199.402 285.782C198.836 284.236 198.296 282.665 197.73 281.119C197.293 279.909 196.135 279.11 194.824 279.471C193.666 279.806 192.766 281.197 193.178 282.381Z" fill="#4F3422"/>
<path d="M209.381 455.425C209.381 459.933 205.729 463.617 201.202 463.617C196.701 463.617 193.023 459.959 193.023 455.425C193.023 450.918 196.675 447.234 201.202 447.234C205.729 447.234 209.381 450.892 209.381 455.425Z" fill="#4F3422"/>
<path d="M91.0173 429.564C64.8087 443.036 38.6001 456.507 12.3658 469.979C6.34729 473.07 0.328819 476.161 -5.68965 479.252C-15.5661 484.352 -23.5907 491.075 -27.9374 501.636C-31.7954 510.986 -32.2584 523.891 -27.886 533.215C-23.3593 542.875 -15.8747 551.736 -5.56105 555.496C4.23825 559.051 16.3266 560.39 25.9716 555.445C42.4066 546.996 58.8674 538.547 75.3024 530.073C98.9391 517.915 122.576 505.783 146.212 493.625C132.684 469.824 119.258 445.946 106.578 421.579C101.382 424.258 96.187 426.911 91.0173 429.564Z" fill="#9BB168"/>
<path d="M171.984 480.385C181.86 475.311 189.885 468.588 194.232 458.027C198.09 448.677 198.552 435.772 194.18 426.447C189.653 416.788 182.169 407.927 171.855 404.167C162.056 400.612 170.621 386.471 160.976 391.442C149.71 397.238 117.818 415.809 106.552 421.579C119.232 445.972 132.632 469.85 146.187 493.625C148.759 492.311 151.356 490.972 153.928 489.658C159.947 486.567 165.965 483.476 171.984 480.385Z" fill="#CFD9B5"/>
<path d="M176.408 422.79C179.52 401.9 182.632 380.984 185.744 360.094C186.644 354.015 182.272 347.318 175.945 346.623C169.643 345.927 163.471 349.92 162.493 356.437C159.381 377.327 156.269 398.242 153.157 419.132C152.257 425.211 156.629 431.908 162.956 432.604C169.258 433.325 175.43 429.307 176.408 422.79Z" fill="#CFD9B5"/>
<path d="M177.539 423.099C179.88 407.309 182.246 391.493 184.587 375.703C185.976 366.327 190.965 351.542 179.366 346.365C175.276 344.536 170.235 345.283 166.609 347.807C162.108 350.924 161.413 355.612 160.667 360.712C158.327 376.528 155.96 392.317 153.62 408.133C153.388 409.627 155.678 410.245 155.883 408.751C157.787 396.001 159.664 383.251 161.567 370.5C162.03 367.435 162.468 364.37 162.931 361.33C163.342 358.574 163.445 355.56 164.86 353.062C167.766 347.962 175.07 346.03 179.957 349.378C185.796 353.397 184.612 359.811 183.712 365.864C182.812 371.968 181.886 378.099 180.986 384.204C179.083 396.954 177.205 409.679 175.302 422.429C175.045 423.974 177.308 424.593 177.539 423.099Z" fill="#4F3422"/>
<path d="M182.04 462.432C187.364 428.353 192.688 394.249 198.012 360.171C198.964 354.092 194.643 347.369 188.29 346.622C181.989 345.875 175.79 349.842 174.762 356.359C169.438 390.437 164.114 424.541 158.79 458.619C157.838 464.698 162.159 471.421 168.512 472.168C174.813 472.915 181.012 468.948 182.04 462.432Z" fill="#CFD9B5"/>
<path d="M189.139 428.766C191.094 415.577 193.074 402.389 195.029 389.227C196.006 382.633 196.984 376.038 197.961 369.444C198.655 364.705 200.327 359.373 198.913 354.608C196.701 347.138 188.856 343.428 181.706 346.288C178.105 347.73 175.25 350.718 174.144 354.453C172.37 360.455 172.112 367.306 171.187 373.514C168.949 388.48 166.737 403.419 164.499 418.385C164.268 419.879 166.557 420.497 166.763 419.003C168.872 404.81 170.981 390.618 173.09 376.425C174.067 369.856 174.71 363.159 176.022 356.642C177.282 350.383 183.686 345.927 190.065 348.091C197.704 350.692 197.189 358.574 196.212 364.988C195.183 371.84 194.18 378.691 193.151 385.517C191.042 399.71 188.933 413.903 186.824 428.122C186.644 429.616 188.908 430.26 189.139 428.766Z" fill="#4F3422"/>
<path d="M183.352 368.697C179.571 394.095 175.79 419.493 172.01 444.89C171.109 450.969 175.482 457.666 181.809 458.362C188.11 459.057 194.283 455.065 195.26 448.548C199.041 423.15 202.822 397.753 206.603 372.355C207.503 366.276 203.131 359.579 196.804 358.883C190.502 358.188 184.329 362.181 183.352 368.697Z" fill="#CFD9B5"/>
<path d="M194.411 462.226C198.604 434.124 202.77 406.021 206.963 377.919C207.76 372.639 208.712 367.693 205.445 363.005C202.462 358.729 197.446 356.849 192.354 357.956C180.471 360.532 181.217 375.086 179.802 384.616C177.693 398.86 175.559 413.105 173.45 427.375C173.218 428.869 175.507 429.487 175.713 427.993C177.282 417.381 178.876 406.768 180.445 396.156C181.294 390.36 182.169 384.565 183.017 378.795C183.712 374.107 183.583 367.59 186.798 363.855C191.634 358.265 200.61 358.909 204.185 365.504C206.988 370.707 204.571 377.893 203.748 383.406C201.87 396.027 199.992 408.674 198.115 421.296C196.109 434.716 194.128 448.162 192.122 461.582C191.916 463.076 194.18 463.72 194.411 462.226Z" fill="#4F3422"/>
<path d="M296.983 430.775C323.191 444.246 349.4 457.718 375.634 471.189C381.653 474.28 387.671 477.371 393.69 480.462C403.566 485.537 411.591 492.26 415.937 502.821C419.795 512.171 420.258 525.076 415.886 534.4C411.359 544.06 403.875 552.946 393.561 556.681C383.762 560.236 371.673 561.575 362.028 556.63C345.593 548.181 329.133 539.732 312.698 531.258C289.061 519.1 265.424 506.968 241.788 494.81C255.316 471.009 268.742 447.131 281.422 422.764C286.617 425.443 291.813 428.122 296.983 430.775Z" fill="#9BB168"/>
<path d="M216.016 481.57C206.139 476.496 198.115 469.773 193.768 459.212C189.91 449.862 189.447 436.957 193.82 427.632C198.346 417.973 205.831 409.086 216.145 405.351C225.944 401.797 217.379 387.655 227.024 392.627C238.289 398.422 270.182 416.994 281.447 422.79C268.768 447.183 255.367 471.061 241.813 494.836C239.241 493.522 236.643 492.182 234.071 490.869C228.053 487.778 222.034 484.687 216.016 481.57Z" fill="#CFD9B5"/>
<path d="M211.592 424C208.48 403.11 205.368 382.195 202.256 361.305C201.355 355.226 205.728 348.529 212.055 347.833C218.356 347.138 224.529 351.13 225.506 357.647C228.619 378.537 231.731 399.453 234.843 420.343C235.743 426.422 231.371 433.119 225.043 433.814C218.742 434.51 212.569 430.517 211.592 424Z" fill="#CFD9B5"/>
<path d="M212.724 423.691C210.821 410.941 208.944 398.216 207.04 385.466C206.14 379.361 205.214 373.231 204.314 367.126C203.414 361.073 202.205 354.659 208.069 350.641C212.956 347.267 220.235 349.224 223.167 354.324C224.581 356.771 224.684 359.837 225.096 362.593C225.559 365.658 225.996 368.723 226.459 371.763C228.362 384.513 230.24 397.263 232.143 410.014C232.374 411.508 234.638 410.864 234.406 409.395C232.066 393.58 229.7 377.79 227.359 361.975C226.587 356.874 225.919 352.186 221.418 349.07C217.791 346.545 212.75 345.798 208.661 347.627C197.035 352.805 202.051 367.564 203.44 376.966C205.78 392.756 208.146 408.571 210.487 424.361C210.667 425.803 212.956 425.16 212.724 423.691Z" fill="#4F3422"/>
<path d="M205.96 463.642C200.636 429.564 195.312 395.46 189.988 361.382C189.036 355.303 193.357 348.58 199.71 347.833C206.011 347.086 212.21 351.053 213.239 357.57C218.563 391.648 223.887 425.752 229.211 459.83C230.162 465.909 225.841 472.632 219.489 473.379C213.187 474.126 206.989 470.159 205.96 463.642Z" fill="#CFD9B5"/>
<path d="M201.124 429.332C199.015 415.14 196.906 400.947 194.797 386.728C193.82 380.134 192.842 373.54 191.865 366.946C190.888 360.352 189.936 352.006 197.909 349.301C203.902 347.267 210.512 351.259 211.85 357.312C213.29 363.958 213.907 370.887 214.884 377.61C216.994 391.803 219.103 405.995 221.212 420.188C221.443 421.682 223.706 421.038 223.475 419.57C221.52 406.382 219.54 393.194 217.585 380.031C216.608 373.437 215.63 366.843 214.653 360.249C214.01 355.999 213.187 352.315 209.715 349.482C203.645 344.51 194.437 345.85 190.399 352.676C187.981 356.771 188.547 360.79 189.216 365.272C190.193 371.866 191.171 378.46 192.148 385.054C194.386 400.019 196.598 414.959 198.835 429.925C199.067 431.47 201.356 430.826 201.124 429.332Z" fill="#4F3422"/>
<path d="M204.648 369.908C208.429 395.306 212.21 420.703 215.991 446.101C216.891 452.18 212.518 458.877 206.191 459.573C199.89 460.268 193.717 456.275 192.74 449.759C188.959 424.361 185.178 398.963 181.397 373.566C180.497 367.487 184.869 360.79 191.197 360.094C197.498 359.399 203.671 363.391 204.648 369.908Z" fill="#CFD9B5"/>
<path d="M195.851 462.792C192.199 438.296 188.547 413.774 184.921 389.278C184.097 383.689 182.477 377.661 182.477 372.02C182.451 364.473 189.756 359.27 196.829 361.974C203.053 364.37 203.542 370.243 204.391 375.987C205.214 381.551 206.037 387.115 206.885 392.678C208.686 404.836 210.512 416.994 212.312 429.178C212.544 430.672 214.807 430.028 214.576 428.56C212.698 416.015 210.846 403.471 208.969 390.901C208.068 384.796 207.143 378.692 206.242 372.587C205.445 367.306 203.902 362.747 198.809 360.249C188.393 355.149 178.953 364.344 180.42 374.879C182.349 388.634 184.509 402.338 186.541 416.067C188.881 431.857 191.248 447.621 193.588 463.411C193.794 464.93 196.083 464.286 195.851 462.792Z" fill="#4F3422"/>
<path d="M1.51212 476.908C31.7073 460.783 61.9283 444.658 92.1235 428.534C96.393 426.241 100.663 423.974 104.932 421.682C106.269 420.961 105.086 418.926 103.749 419.647C73.5537 435.772 43.3328 451.896 13.1375 468.021C8.86803 470.313 4.59852 472.58 0.329006 474.873C-1.03415 475.594 0.174686 477.629 1.51212 476.908Z" fill="#4F3422"/>
<path d="M371.005 467.506C345.002 453.983 319.025 440.434 293.022 426.911C289.395 425.031 285.769 423.125 282.117 421.244C280.779 420.549 279.57 422.584 280.933 423.279C306.936 436.802 332.913 450.351 358.916 463.874C362.543 465.755 366.169 467.661 369.822 469.541C371.159 470.237 372.342 468.202 371.005 467.506Z" fill="#4F3422"/>
<path d="M19.1561 453.777C24.7116 455.297 30.2672 456.791 35.8484 458.31C37.3144 458.697 37.9317 456.43 36.4657 456.044C30.9102 454.524 25.3546 453.03 19.7734 451.51C18.3074 451.098 17.6901 453.365 19.1561 453.777Z" fill="#4F3422"/>
<path d="M347.368 456.25C351.818 454.859 356.164 453.184 360.408 451.227C361.771 450.609 360.588 448.574 359.225 449.192C355.161 451.047 350.995 452.644 346.751 453.983C345.311 454.421 345.928 456.713 347.368 456.25Z" fill="#4F3422"/>
<path d="M296.7 237.15C301.021 246.552 312.903 246.036 320.13 240.576C327.872 234.703 335.665 222.107 332.27 212.087C329.75 204.643 318.381 200.135 314.086 208.738C312.234 212.422 313.7 216.827 316.555 219.583C320.208 223.086 325.789 223.678 330.598 223.833C341.992 224.219 355.315 219.093 357.064 206.343C357.476 203.381 352.949 202.093 352.538 205.081C351.252 214.328 342.507 218.707 333.942 219.093C329.878 219.274 324.837 219.299 321.211 217.161C319.23 216.002 317.584 213.864 318.15 211.52C318.716 209.099 321.519 208.301 323.68 208.996C328.104 210.439 328.747 216.002 328.001 219.866C327.101 224.503 324.503 229.087 321.519 232.694C316.658 238.541 305.213 244.414 300.789 234.729C299.477 232.024 295.439 234.419 296.7 237.15Z" fill="#4F3422"/>
<path d="M43.0238 174.351C42.175 185.479 51.4342 195.112 62.6481 194.005C73.6048 192.897 81.0636 182.104 78.2601 171.415C77.2313 167.525 73.9649 162.94 69.4896 165.465C65.0144 167.989 64.0627 174.712 64.68 179.271C66.4032 191.893 78.1315 198.358 89.2425 201.655C92.1489 202.531 93.3835 197.972 90.5028 197.122C83.5584 195.061 76.1254 192.021 72.0102 185.711C69.9526 182.542 68.718 178.498 69.3353 174.686C69.4639 173.939 69.6439 173.166 69.9269 172.471C70.2355 171.621 71.5472 169.586 72.7818 170.178C73.9135 170.719 74.1449 175.098 74.1449 175.922C74.1964 183.547 68.0236 189.6 60.4105 189.394C52.463 189.188 47.1647 181.976 47.7306 174.351C47.962 171.338 43.2553 171.338 43.0238 174.351Z" fill="#4F3422"/>
<path d="M47.1135 353.68C53.1062 359.347 62.6226 360.403 69.6441 355.921C73.4764 353.474 75.7912 349.61 77.3858 345.463C78.9805 341.213 80.9352 335.495 78.3889 331.193C76.6142 328.18 72.4476 326.222 69.2069 328.077C65.9148 329.957 65.4518 334.207 66.4806 337.504C69.0011 345.669 78.4661 349.739 86.4135 349.327C97.7046 348.735 106.244 340.183 112.339 331.425C114.062 328.927 109.999 326.583 108.275 329.055C103.826 335.443 98.0647 341.728 90.3487 343.944C84.073 345.747 75.8426 344.175 72.0875 338.38C71.3931 337.298 70.2871 335.34 70.6729 333.975C71.8046 329.931 74.1709 333.331 74.6081 334.748C75.0196 336.087 74.8138 337.324 74.5309 338.663C73.7593 342.527 72.2161 346.983 69.4898 349.92C64.5259 355.251 55.6011 355.226 50.4313 350.306C48.2451 348.245 44.9016 351.594 47.1135 353.68Z" fill="#4F3422"/>
<path d="M243.485 169.045C239.215 162.245 239.807 152.792 245.954 147.254C251.252 142.488 263.932 140.273 268.202 147.717C269.642 150.242 268.588 153.667 265.141 152.92C262.466 152.328 261.257 149.572 261.052 147.073C260.717 143.158 262.209 139.088 264.189 135.791C268.202 129.146 275.275 124.586 282.991 123.839C285.974 123.556 286 118.842 282.991 119.126C273.551 120.001 265.038 125.23 260.126 133.396C256.01 140.222 253.207 153.642 263.006 157.171C266.453 158.407 270.594 157.608 272.6 154.337C275.12 150.267 273.217 145.296 269.822 142.411C262.595 136.332 251.098 137.311 243.922 142.849C235.254 149.546 233.711 162.322 239.421 171.415C241.041 173.991 245.105 171.621 243.485 169.045Z" fill="#4F3422"/>
<path d="M122.916 54.5502C116.487 52.1727 112.649 45.0723 114.441 38.9357C116.232 32.7991 123.428 28.3975 130.272 29.2971C133.791 29.7469 136.989 31.3855 140.091 32.9919C144.025 35.016 147.959 37.0401 151.893 39.0963C142.074 35.9156 137.309 24.7991 139.484 15.4497C141.019 8.73479 146.072 2.27694 153.301 0.50987C159.218 -0.935918 165.486 0.895413 170.924 3.4657C187.747 11.4015 199.549 26.02 209.56 40.7349C206.425 36.7509 209.912 30.6786 214.965 29.0722C220.018 27.4979 225.584 29.1365 230.349 31.3533C241 36.269 249.891 45.6184 256 55L122.916 54.5502Z" fill="#F2F5EB"/>
</g>
<defs>
<clipPath id="clip0_293_2073">
<rect width="375" height="508" fill="white"/>
</clipPath>
</defs>
</svg>
