<svg width="375" height="508" viewBox="0 0 375 508" fill="none" xmlns="http://www.w3.org/2000/svg">
<g clip-path="url(#clip0_293_2076)">
<rect width="375" height="508" fill="#C3E2E8"/>
<mask id="mask0_293_2076" style="mask-type:luminance" maskUnits="userSpaceOnUse" x="-193" y="37" width="729" height="498">
<path d="M219.89 66.3828C118.025 20.0335 -22.5387 27.528 -57.4875 95.9309C-79.7109 139.362 -51.217 196.063 -81.9548 233.658C-101.873 258.016 -112.293 260.964 -136.699 280.806C-157.6 297.792 -175.767 314.409 -185.603 340.609C-199.281 376.976 -193.533 418.902 -172.139 450.908C-153.728 478.459 -121.729 492.711 -91.8831 504.137C-49.465 520.355 -3.05093 527.235 42.1643 525.239C104.593 522.505 166.468 501.066 228.405 509.359C258.466 513.383 287.206 524.317 316.96 530.245C374.317 541.641 445.229 532.272 479.563 478.214C494.01 455.454 499.174 428.547 495.946 401.855C492.381 372.43 483.928 342.145 489.952 312.443C496.653 279.455 520.69 252.64 530.895 220.604C548.354 165.839 517.094 100.078 463.733 79.314C442.77 71.1437 419.87 69.4237 397.37 69.3008C337.247 68.9322 274.696 91.3237 219.89 66.3828Z" fill="white"/>
</mask>
<g mask="url(#mask0_293_2076)">
<path d="M590.803 -7.05737H-236.197V555.401H590.803V-7.05737Z" fill="#D5EBF4"/>
</g>
<mask id="mask1_293_2076" style="mask-type:luminance" maskUnits="userSpaceOnUse" x="-193" y="37" width="729" height="498">
<path d="M219.89 66.3828C118.025 20.0335 -22.5387 27.528 -57.4875 95.9309C-79.7109 139.362 -51.217 196.063 -81.9548 233.658C-101.873 258.016 -112.293 260.964 -136.699 280.806C-157.6 297.792 -175.767 314.409 -185.603 340.609C-199.281 376.976 -193.533 418.902 -172.139 450.908C-153.728 478.459 -121.729 492.711 -91.8831 504.137C-49.465 520.355 -3.05093 527.235 42.1643 525.239C104.593 522.505 166.468 501.066 228.405 509.359C258.466 513.383 287.206 524.317 316.96 530.245C374.317 541.641 445.229 532.272 479.563 478.214C494.01 455.454 499.174 428.547 495.946 401.855C492.381 372.43 483.928 342.145 489.952 312.443C496.653 279.455 520.69 252.64 530.895 220.604C548.354 165.839 517.094 100.078 463.733 79.314C442.77 71.1437 419.87 69.4237 397.37 69.3008C337.247 68.9322 274.696 91.3237 219.89 66.3828Z" fill="white"/>
</mask>
<g mask="url(#mask1_293_2076)">
<path d="M-6.73933 432.694C-21.9545 471.088 -32.6205 518.573 -41.9341 555.401L462.165 563.909C474.799 521.215 479.379 460.767 471.172 416.783C468.713 403.637 464.163 390.736 459.522 378.542C407.299 420.899 333.343 450.938 264.614 459.846C173.599 471.856 77.2363 468.815 -6.73933 432.694Z" fill="#3E697C"/>
</g>
<mask id="mask2_293_2076" style="mask-type:luminance" maskUnits="userSpaceOnUse" x="-193" y="37" width="729" height="498">
<path d="M219.89 66.3828C118.025 20.0335 -22.5387 27.528 -57.4875 95.9309C-79.7109 139.362 -51.217 196.063 -81.9548 233.658C-101.873 258.016 -112.293 260.964 -136.699 280.806C-157.6 297.792 -175.767 314.409 -185.603 340.609C-199.281 376.976 -193.533 418.902 -172.139 450.908C-153.728 478.459 -121.729 492.711 -91.8831 504.137C-49.465 520.355 -3.05093 527.235 42.1643 525.239C104.593 522.505 166.468 501.066 228.405 509.359C258.466 513.383 287.206 524.317 316.96 530.245C374.317 541.641 445.229 532.272 479.563 478.214C494.01 455.454 499.174 428.547 495.946 401.855C492.381 372.43 483.928 342.145 489.952 312.443C496.653 279.455 520.69 252.64 530.895 220.604C548.354 165.839 517.094 100.078 463.733 79.314C442.77 71.1437 419.87 69.4237 397.37 69.3008C337.247 68.9322 274.696 91.3237 219.89 66.3828Z" fill="white"/>
</mask>
<g mask="url(#mask2_293_2076)">
<path d="M325.659 433.891C321.694 469.337 313.241 504.137 300.515 537.463C299.87 539.153 302.575 539.89 303.22 538.2C316.038 504.629 324.491 469.613 328.456 433.891C328.671 432.11 325.843 432.11 325.659 433.891Z" fill="#3F3C36"/>
</g>
<path d="M0.97602 121.486L-8.8908 126.861C-14.8847 131.346 -14.0855 132.789 -15.4687 140.161L-18.9421 162.061C-19.065 162.798 -20.1408 162.798 -20.2638 162.061L-23.6757 140.284C-25.0281 132.943 -24.9052 131.346 -30.8376 126.861L-40.1819 121.486C-40.5507 121.21 -40.5507 120.688 -40.1819 120.411L-29.6081 115.374C-23.7064 110.889 -24.0445 107.91 -22.6921 100.6L-20.2638 79.8976C-20.1408 79.1604 -19.065 79.1604 -18.9421 79.8976L-16.0834 101.337C-14.7617 108.586 -14.024 111.627 -8.15308 116.111L1.00677 120.38C1.34488 120.688 1.34487 121.24 0.97602 121.486Z" fill="#F6A360"/>
<path d="M40.1358 173.856L33.2813 177.603C29.101 180.705 29.685 181.719 28.7014 186.848L26.3038 202.052C26.2116 202.575 25.4739 202.544 25.3817 202.052L23.0149 186.94C22.062 181.842 22.185 180.736 18.0354 177.603L11.5804 173.856C11.3345 173.672 11.3345 173.303 11.5804 173.119L18.9268 169.617C23.0149 166.484 22.7997 164.426 23.7218 159.358L25.4124 144.983C25.5046 144.461 26.2423 144.461 26.3346 144.983L28.3018 159.88C29.2239 164.918 29.7465 167.006 33.8039 170.139L40.1666 173.119C40.3817 173.303 40.3817 173.672 40.1358 173.856Z" fill="#F6A360"/>
<path d="M136.191 193.421C115.658 180.367 108.988 150.942 121.837 129.963C134.685 108.985 165.054 99.6165 187.4 109.783C196.314 113.838 204.429 120.626 214.419 120.687C224.255 120.749 232.8 114.206 241.745 109.968C258.897 101.859 281.028 102.627 294.645 114.759C301.345 120.718 305.772 129.011 313.333 133.956C323.046 140.314 336.079 139.976 347.913 137.919C359.747 135.861 371.581 132.328 383.477 133.158C395.342 133.987 406.653 139.331 414.399 147.809C424.942 159.327 429.706 176.681 444.399 182.855C450.331 185.343 457.063 185.558 463.579 186.295C489.461 189.182 515.25 202.544 525.147 225.426C535.383 249.077 533.969 291.434 507.873 297.638C449.563 311.46 504.307 343.342 441.049 366.993C428.569 371.662 410.065 342.39 398.907 335.909C391.868 331.824 387.411 324.729 381.202 319.569C372.165 311.982 359.255 308.788 347.206 311.122C317.206 316.989 297.595 353.356 267.226 352.158C260.249 351.881 252.349 348.073 252.103 341.377C251.981 338.305 253.517 335.387 255.054 332.653C262.247 319.845 270.577 306.822 271.345 292.478C272.083 278.349 249.368 283.478 237.165 275.922C224.501 268.09 195.638 292.631 186.202 281.359C180.823 274.939 173.015 253.623 168.835 246.405C160.167 231.385 173.107 191.025 155.402 195.51L136.191 193.421Z" fill="#3F3C36"/>
<path d="M119.132 163.965C113.784 160.31 105.792 162.583 100.351 165.102C93.7428 168.173 90.8227 173.856 92.4518 181.012C93.4968 185.589 96.0788 190.073 95.1567 194.896C93.8964 201.561 87.626 199.503 82.9538 201.622C80.4948 202.728 78.8657 204.786 77.9128 207.243C77.1444 209.209 75.7919 214.369 76.6833 216.059C75.8226 214.461 73.3943 215.874 74.255 217.472C74.962 218.823 76.5296 219.775 78.0665 219.007C80.1874 217.963 79.3267 215.014 79.5112 213.079C79.7263 210.868 80.1567 208.38 81.4169 206.506C83.2919 203.742 86.2427 203.742 89.1936 203.281C92.0522 202.82 94.6342 202.083 96.3555 199.626C100.751 193.299 96.1096 185.988 94.9723 179.538C93.8965 173.364 97.3698 169.371 102.78 167.191C107.206 165.409 113.507 163.566 117.718 166.453C119.224 167.406 120.638 164.979 119.132 163.965Z" fill="#3F3C36"/>
<path d="M117.81 160.771C110.372 158.037 102.595 153.307 94.4188 156.071C91.8061 156.962 89.3471 158.621 87.9332 161.017C87.0725 162.491 86.7037 164.15 86.4578 165.808C86.2733 166.914 86.427 169.064 85.7508 170.016C84.091 171.03 82.4004 172.013 80.7405 173.026C80.2795 172.719 79.7877 172.535 79.2651 172.473C72.7795 172.258 69.7979 176.866 68.0766 182.61C66.9393 186.449 66.386 190.657 63.8962 193.913C60.5766 198.244 54.8286 199.503 49.8183 197.691C49.0499 197.414 48.3737 198.029 48.097 198.674C47.4515 200.24 47.6052 201.315 48.5888 202.697C49.6339 204.141 52.0929 202.759 51.0171 201.284C50.9556 200.67 50.8942 200.056 50.8327 199.441C50.2487 199.779 49.6647 200.087 49.1114 200.424C55.0745 202.544 62.0827 200.885 66.0786 195.817C70.259 190.503 69.1217 178.954 75.6073 175.975C79.2037 174.316 82.4926 177.787 85.9967 174.9C88.7016 172.658 88.7016 169.187 89.3471 166.054C92.2979 151.925 108.866 160.525 117.103 163.535C118.794 164.088 119.501 161.385 117.81 160.771Z" fill="#3F3C36"/>
<path d="M192.319 333.944C195.792 354.861 216.263 360.236 234.829 359.345C258.343 358.24 281.028 350.284 300.423 337.107C309.706 330.811 318.221 323.439 326.089 315.453C328.671 312.842 346.653 288.823 348.282 289.13C322.647 284.246 295.966 283.509 270.608 283.54C245.833 283.571 223.395 283.233 202.37 284.124C193.579 299.113 189.368 316.006 192.319 333.944Z" fill="#F6A360"/>
<path d="M394.143 303.812C379.635 296.778 364.143 292.171 348.282 289.161C346.622 288.854 327.134 314.501 324.307 317.265C315.362 326.111 305.587 334.128 294.86 340.732C273.958 353.602 245.003 360.359 221.212 358.055C186.017 354.615 187.524 309.464 202.37 284.154C165.485 285.721 133.025 291.096 100.382 309.034C61.222 330.565 30.5149 366.993 8.56814 407.753C4.44928 415.431 0.607062 423.817 -2.98926 432.693C82.7077 468.815 181.007 471.855 273.866 459.846C344.01 450.938 406.223 420.899 459.522 378.542C447.196 346.783 426.663 319.538 394.143 303.812Z" fill="#3E697C"/>
<path d="M290.004 287.256L167.513 176.067C151.899 182.241 134.44 178.401 121.96 167.712C113.876 197.936 107.175 249.077 138.835 285.567L164.839 255.773C164.839 255.773 178.518 289.56 192.042 322.763C204.706 353.847 244.635 362.509 269.071 339.534C269.379 339.227 269.717 338.919 270.024 338.612C290.249 319.477 310.629 305.962 290.004 287.256Z" fill="#F6A360"/>
<path d="M167.513 176.067L130.505 142.464C130.505 142.464 126.079 152.416 121.991 167.712C134.44 178.401 151.899 182.241 167.513 176.067Z" fill="#F6A360"/>
<path d="M209.993 180.828C208.763 192.008 198.681 200.086 187.493 198.858C176.304 197.629 168.22 187.554 169.45 176.374C170.679 165.194 180.761 157.116 191.95 158.344C203.138 159.573 211.222 169.647 209.993 180.828Z" fill="#F6A360"/>
<path d="M186.509 187.739C189.706 180.981 192.934 174.224 196.253 167.559C197.052 165.931 194.624 164.518 193.825 166.146C190.505 172.842 187.278 179.599 184.081 186.326C183.282 187.954 185.71 189.367 186.509 187.739Z" fill="#3F3C36"/>
<path d="M164.839 255.804L192.964 324.022L182.452 232.521L164.839 255.804Z" fill="#3F3C36"/>
<path d="M117.165 189.827C113.384 202.451 110.402 215.966 109.173 229.112C109.081 230.218 110.433 230.802 111.294 230.31C115.874 227.822 120.454 225.365 125.034 222.877C126.632 222.017 125.218 219.59 123.62 220.45C119.04 222.938 114.46 225.396 109.88 227.884C110.587 228.283 111.294 228.682 112.001 229.112C113.2 216.242 116.181 202.943 119.9 190.595C120.392 188.844 117.687 188.077 117.165 189.827Z" fill="#3F3C36"/>
<path d="M140.31 200.67C144.767 195.571 150.946 192.899 157.739 193.206C159.552 193.298 159.552 190.472 157.739 190.411C150.269 190.073 143.261 193.083 138.343 198.704C137.144 200.025 139.112 202.021 140.31 200.67Z" fill="#3F3C36"/>
<path d="M133.702 240.354C140.71 244.562 149.347 237.528 146.15 229.819C145.474 228.16 142.738 228.897 143.445 230.556C145.628 235.87 140.187 240.968 135.115 237.897C133.579 236.975 132.165 239.402 133.702 240.354Z" fill="#3F3C36"/>
<path d="M138.528 192.469C139.204 194.066 139.88 195.663 140.587 197.261C140.895 197.967 141.909 198.121 142.524 197.752C143.261 197.353 143.323 196.523 143.015 195.817C142.339 194.22 141.663 192.623 140.956 191.025C140.649 190.319 139.634 190.165 139.02 190.534C138.282 190.933 138.22 191.762 138.528 192.469Z" fill="#3F3C36"/>
<path d="M150.239 191.64C149.624 189.735 148.979 187.831 148.364 185.927C147.811 184.206 145.075 184.944 145.659 186.664C146.274 188.568 146.919 190.472 147.534 192.377C148.087 194.097 150.792 193.36 150.239 191.64Z" fill="#3F3C36"/>
<path d="M156.755 191.24C156.509 189.95 156.847 188.568 157.708 187.554C158.876 186.172 156.878 184.176 155.71 185.558C154.173 187.401 153.589 189.612 154.05 191.977C154.388 193.759 157.093 193.022 156.755 191.24Z" fill="#3F3C36"/>
<path d="M136.745 167.62C141.109 165.931 145.812 167.067 148.855 170.63C150.023 172.012 152.021 170.016 150.853 168.634C147.195 164.395 141.232 162.859 136.007 164.886C134.347 165.562 135.054 168.265 136.745 167.62Z" fill="#3F3C36"/>
<path d="M158.476 393.285C142.953 406.862 115.966 422.619 97.9841 433.154C103.855 433.615 116.365 437.546 113.691 442.461C111.017 447.375 105.33 450.139 100.044 452.566C90.8222 456.774 81.6009 461.013 72.3796 465.221C68.2914 467.094 64.0189 468.999 59.4697 469.091C54.9205 469.183 50.0024 466.879 48.8037 462.794C48.0352 460.245 56.3344 450.815 54.0598 449.249C51.8774 447.744 41.0885 455.146 38.6909 456.375C13.8855 469.306 -10.9506 482.268 -35.756 495.199C-38.3072 496.52 -41.0736 497.902 -43.9322 497.533C-47.006 497.134 -49.3421 494.892 -51.4322 492.742C-88.9016 454.255 -126.371 415.738 -163.81 377.252C-143.246 359.959 -119.178 346.322 -93.2971 337.353C-77.6823 331.916 -61.1761 328.077 -47.1597 319.63L158.476 393.285Z" fill="#5E97B0"/>
<path d="M161.212 389.2C133.763 399.121 108.373 414.325 87.0413 433.676C92.1438 433.154 97.4 434.137 101.918 436.471C94.3262 442.123 86.2729 447.16 77.82 451.522C72.3794 454.347 65.986 456.928 60.1766 454.931C54.3671 452.935 51.6622 443.996 57.072 441.109C24.3055 453.027 -8.43018 464.944 -41.1967 476.892C-43.1639 477.599 -45.2848 478.336 -47.3442 477.845C-49.4036 477.322 -50.9098 475.664 -52.2623 474.097C-90.2849 429.714 -124.127 379.955 -174.599 349.025C-165.5 345.523 -156.371 342.052 -147.273 338.551C-161.013 328.323 -133.164 324.33 -148.81 317.019C-106.361 311.491 -62.3443 306.668 -15.6536 322.149C-15.6536 322.149 14.3773 263.083 57.2565 254.913L161.212 389.2Z" fill="white"/>
<path d="M38.5374 235.562C11.9799 253.93 -31.7292 284.461 -48.1432 310.139C-92.6822 303.996 -138.666 304.15 -183.728 310.661C-130.336 348.841 -82.9076 393.163 -42.9178 442.184C-41.8419 443.505 -40.6739 444.887 -38.9526 445.563C-36.4628 446.546 -33.4813 445.747 -30.8071 445.01C4.08031 435.304 40.566 432.233 76.7137 429.222C101.581 402.439 133.148 380.262 168.435 364.812L38.5374 235.562Z" fill="white"/>
<mask id="mask3_293_2076" style="mask-type:luminance" maskUnits="userSpaceOnUse" x="-184" y="235" width="353" height="212">
<path d="M38.5374 235.562C11.9799 253.93 -31.7292 284.461 -48.1432 310.139C-92.6822 303.996 -138.666 304.15 -183.728 310.661C-130.336 348.841 -82.9076 393.163 -42.9178 442.184C-41.8419 443.505 -40.6739 444.887 -38.9526 445.563C-36.4628 446.546 -33.4813 445.747 -30.8071 445.01C4.08031 435.304 40.566 432.233 76.7137 429.222C101.581 402.439 133.148 380.262 168.435 364.812L38.5374 235.562Z" fill="white"/>
</mask>
<g mask="url(#mask3_293_2076)">
<path d="M-60.8994 393.193C-41.2887 385.975 -21.3706 378.788 -0.222984 378.143C1.59054 378.082 1.59054 375.286 -0.222984 375.317C-21.6165 375.962 -41.7805 383.15 -61.6371 390.46C-63.3277 391.105 -62.59 393.838 -60.8994 393.193Z" fill="#F6A360"/>
</g>
<mask id="mask4_293_2076" style="mask-type:luminance" maskUnits="userSpaceOnUse" x="-184" y="235" width="353" height="212">
<path d="M38.5374 235.562C11.9799 253.93 -31.7292 284.461 -48.1432 310.139C-92.6822 303.996 -138.666 304.15 -183.728 310.661C-130.336 348.841 -82.9076 393.163 -42.9178 442.184C-41.8419 443.505 -40.6739 444.887 -38.9526 445.563C-36.4628 446.546 -33.4813 445.747 -30.8071 445.01C4.08031 435.304 40.566 432.233 76.7137 429.222C101.581 402.439 133.148 380.262 168.435 364.812L38.5374 235.562Z" fill="white"/>
</mask>
<g mask="url(#mask4_293_2076)">
<path d="M-46.9752 406.339C-39.6904 400.749 -28.2252 400.227 -19.4956 398.415C-8.86038 396.203 1.99006 393.316 12.8712 395.251C14.654 395.558 15.3917 392.855 13.6089 392.548C2.75851 390.613 -7.84602 393.132 -18.4506 395.343C-24.137 396.511 -29.8543 397.678 -35.5408 398.876C-40.1822 399.859 -44.5777 400.964 -48.3892 403.913C-49.8031 405.019 -48.4199 407.445 -46.9752 406.339Z" fill="#F6A360"/>
</g>
<mask id="mask5_293_2076" style="mask-type:luminance" maskUnits="userSpaceOnUse" x="-184" y="235" width="353" height="212">
<path d="M38.5374 235.562C11.9799 253.93 -31.7292 284.461 -48.1432 310.139C-92.6822 303.996 -138.666 304.15 -183.728 310.661C-130.336 348.841 -82.9076 393.163 -42.9178 442.184C-41.8419 443.505 -40.6739 444.887 -38.9526 445.563C-36.4628 446.546 -33.4813 445.747 -30.8071 445.01C4.08031 435.304 40.566 432.233 76.7137 429.222C101.581 402.439 133.148 380.262 168.435 364.812L38.5374 235.562Z" fill="white"/>
</mask>
<g mask="url(#mask5_293_2076)">
<path d="M-36.4322 421.298C-15.1924 410.24 8.69084 407.015 32.113 404.005C33.8958 403.79 33.8958 400.964 32.113 401.179C8.13756 404.251 -16.176 407.568 -37.8769 418.871C-39.4445 419.701 -38.0306 422.127 -36.4322 421.298Z" fill="#F6A360"/>
</g>
<mask id="mask6_293_2076" style="mask-type:luminance" maskUnits="userSpaceOnUse" x="-184" y="235" width="353" height="212">
<path d="M38.5374 235.562C11.9799 253.93 -31.7292 284.461 -48.1432 310.139C-92.6822 303.996 -138.666 304.15 -183.728 310.661C-130.336 348.841 -82.9076 393.163 -42.9178 442.184C-41.8419 443.505 -40.6739 444.887 -38.9526 445.563C-36.4628 446.546 -33.4813 445.747 -30.8071 445.01C4.08031 435.304 40.566 432.233 76.7137 429.222C101.581 402.439 133.148 380.262 168.435 364.812L38.5374 235.562Z" fill="white"/>
</mask>
<g mask="url(#mask6_293_2076)">
<path d="M-12.7332 318.125C5.09467 299.143 24.0599 279.332 49.6952 271.561C51.4165 271.039 50.6788 268.336 48.9575 268.858C22.8304 276.782 3.46557 296.809 -14.7312 316.159C-15.9607 317.449 -13.9935 319.446 -12.7332 318.125Z" fill="#F6A360"/>
</g>
<mask id="mask7_293_2076" style="mask-type:luminance" maskUnits="userSpaceOnUse" x="-184" y="235" width="353" height="212">
<path d="M38.5374 235.562C11.9799 253.93 -31.7292 284.461 -48.1432 310.139C-92.6822 303.996 -138.666 304.15 -183.728 310.661C-130.336 348.841 -82.9076 393.163 -42.9178 442.184C-41.8419 443.505 -40.6739 444.887 -38.9526 445.563C-36.4628 446.546 -33.4813 445.747 -30.8071 445.01C4.08031 435.304 40.566 432.233 76.7137 429.222C101.581 402.439 133.148 380.262 168.435 364.812L38.5374 235.562Z" fill="white"/>
</mask>
<g mask="url(#mask7_293_2076)">
<path d="M0.0536211 326.787C14.2237 306.668 36.9697 295.642 58.6091 285.352C60.2382 284.584 58.8243 282.158 57.1952 282.925C35.0332 293.461 12.1336 304.795 -2.37465 325.343C-3.41974 326.848 -0.991463 328.261 0.0536211 326.787Z" fill="#F6A360"/>
</g>
<mask id="mask8_293_2076" style="mask-type:luminance" maskUnits="userSpaceOnUse" x="-184" y="235" width="353" height="212">
<path d="M38.5374 235.562C11.9799 253.93 -31.7292 284.461 -48.1432 310.139C-92.6822 303.996 -138.666 304.15 -183.728 310.661C-130.336 348.841 -82.9076 393.163 -42.9178 442.184C-41.8419 443.505 -40.6739 444.887 -38.9526 445.563C-36.4628 446.546 -33.4813 445.747 -30.8071 445.01C4.08031 435.304 40.566 432.233 76.7137 429.222C101.581 402.439 133.148 380.262 168.435 364.812L38.5374 235.562Z" fill="white"/>
</mask>
<g mask="url(#mask8_293_2076)">
<path d="M13.6703 336.861C19.6949 327.033 28.9162 320.152 38.5372 314.101C48.6499 307.774 59.1622 302.153 70.0127 297.147C71.6418 296.379 70.2278 293.952 68.5987 294.72C56.8569 300.157 45.3917 306.3 34.5105 313.334C25.4121 319.231 16.9592 326.08 11.242 335.449C10.2891 337.015 12.7174 338.428 13.6703 336.861Z" fill="#F6A360"/>
</g>
<mask id="mask9_293_2076" style="mask-type:luminance" maskUnits="userSpaceOnUse" x="-184" y="235" width="353" height="212">
<path d="M38.5374 235.562C11.9799 253.93 -31.7292 284.461 -48.1432 310.139C-92.6822 303.996 -138.666 304.15 -183.728 310.661C-130.336 348.841 -82.9076 393.163 -42.9178 442.184C-41.8419 443.505 -40.6739 444.887 -38.9526 445.563C-36.4628 446.546 -33.4813 445.747 -30.8071 445.01C4.08031 435.304 40.566 432.233 76.7137 429.222C101.581 402.439 133.148 380.262 168.435 364.812L38.5374 235.562Z" fill="white"/>
</mask>
<g mask="url(#mask9_293_2076)">
<path d="M23.9367 347.428C43.2401 331.978 64.5721 319.292 87.3488 309.617C89.0086 308.911 87.564 306.484 85.9349 307.191C62.9123 316.958 41.4573 329.828 21.9388 345.431C20.5249 346.568 22.5228 348.564 23.9367 347.428Z" fill="#F6A360"/>
</g>
<mask id="mask10_293_2076" style="mask-type:luminance" maskUnits="userSpaceOnUse" x="-184" y="235" width="353" height="212">
<path d="M38.5374 235.562C11.9799 253.93 -31.7292 284.461 -48.1432 310.139C-92.6822 303.996 -138.666 304.15 -183.728 310.661C-130.336 348.841 -82.9076 393.163 -42.9178 442.184C-41.8419 443.505 -40.6739 444.887 -38.9526 445.563C-36.4628 446.546 -33.4813 445.747 -30.8071 445.01C4.08031 435.304 40.566 432.233 76.7137 429.222C101.581 402.439 133.148 380.262 168.435 364.812L38.5374 235.562Z" fill="white"/>
</mask>
<g mask="url(#mask10_293_2076)">
<path d="M36.2318 360.389C54.3057 347.52 72.9328 334.496 94.941 329.551C96.6931 329.152 95.9554 326.449 94.2033 326.848C71.9492 331.855 53.1069 344.97 34.8179 357.963C33.3425 359.007 34.7257 361.434 36.2318 360.389Z" fill="#F6A360"/>
</g>
<mask id="mask11_293_2076" style="mask-type:luminance" maskUnits="userSpaceOnUse" x="-184" y="235" width="353" height="212">
<path d="M38.5374 235.562C11.9799 253.93 -31.7292 284.461 -48.1432 310.139C-92.6822 303.996 -138.666 304.15 -183.728 310.661C-130.336 348.841 -82.9076 393.163 -42.9178 442.184C-41.8419 443.505 -40.6739 444.887 -38.9526 445.563C-36.4628 446.546 -33.4813 445.747 -30.8071 445.01C4.08031 435.304 40.566 432.233 76.7137 429.222C101.581 402.439 133.148 380.262 168.435 364.812L38.5374 235.562Z" fill="white"/>
</mask>
<g mask="url(#mask11_293_2076)">
<path d="M55.0129 373.351C73.2404 359.499 93.7118 349.055 115.628 342.452C117.349 341.93 116.611 339.227 114.89 339.749C92.7281 346.414 72.0109 356.919 53.599 370.925C52.1543 372 53.5682 374.457 55.0129 373.351Z" fill="#F6A360"/>
</g>
<mask id="mask12_293_2076" style="mask-type:luminance" maskUnits="userSpaceOnUse" x="-184" y="235" width="353" height="212">
<path d="M38.5374 235.562C11.9799 253.93 -31.7292 284.461 -48.1432 310.139C-92.6822 303.996 -138.666 304.15 -183.728 310.661C-130.336 348.841 -82.9076 393.163 -42.9178 442.184C-41.8419 443.505 -40.6739 444.887 -38.9526 445.563C-36.4628 446.546 -33.4813 445.747 -30.8071 445.01C4.08031 435.304 40.566 432.233 76.7137 429.222C101.581 402.439 133.148 380.262 168.435 364.812L38.5374 235.562Z" fill="white"/>
</mask>
<g mask="url(#mask12_293_2076)">
<path d="M-140.633 327.125C-120.776 324.237 -100.766 322.425 -80.725 321.688C-71.5651 321.35 -62.3745 321.258 -53.1839 321.381C-46.3909 321.473 -38.1839 323.592 -32.897 318.279C-26.7494 312.105 -21.1552 305.317 -15.0076 299.143C-9.13671 293.246 -3.08136 287.563 3.15841 282.035C16.7753 269.994 31.222 258.937 46.345 248.831C47.8512 247.818 46.4372 245.391 44.9311 246.405C16.7138 265.264 -9.16743 287.563 -31.8212 312.873C-33.0814 314.286 -34.2802 316.037 -35.7864 317.204C-38.3683 319.231 -41.0118 318.862 -43.9934 318.77C-48.2659 318.647 -52.5692 318.555 -56.8417 318.524C-66.6164 318.463 -76.4217 318.647 -86.1963 319.077C-104.67 319.937 -123.051 321.719 -141.371 324.391C-143.153 324.668 -142.385 327.37 -140.633 327.125Z" fill="#5E97B0"/>
</g>
<path d="M85.9966 438.775C81.6626 440.034 77.3286 441.416 72.9638 442.584C72.5028 442.706 70.5048 443.536 70.0745 443.259C68.845 442.369 70.3511 440.925 70.8429 440.434C72.4413 438.775 76.2835 438.376 78.4659 438.253C79.8184 438.161 79.8184 436.072 78.4659 436.133C75.7303 436.287 63.4351 439.082 66.4782 443.997C67.4925 445.655 70.013 445.471 71.6421 445.164C76.6524 444.15 81.6319 442.276 86.5499 440.833C87.8409 440.434 87.2876 438.406 85.9966 438.775Z" fill="#3F3C36"/>
<path d="M38.7526 439.819C12.0108 444.519 -13.9012 452.812 -38.3992 464.514C-37.8459 464.576 -37.2619 464.668 -36.7086 464.729C-72.2108 427.441 -109.496 391.903 -148.44 358.239C-149.793 357.072 -151.791 359.038 -150.438 360.236C-111.494 393.9 -74.2087 429.437 -38.7066 466.726C-38.2455 467.217 -37.5693 467.217 -37.016 466.941C-12.7332 455.33 12.9636 447.191 39.4596 442.522C41.3039 442.215 40.5354 439.512 38.7526 439.819Z" fill="#3F3C36"/>
<path d="M65.9554 417.735C35.0639 378.266 -2.25177 344.202 -44.0244 316.528C-45.1617 315.791 -46.2068 317.603 -45.1002 318.34C-3.48128 345.922 33.6807 379.894 64.48 419.209C65.2791 420.315 66.7853 418.81 65.9554 417.735Z" fill="#3F3C36"/>
<path d="M-32.9587 441.724C-21.6472 440.065 -10.305 438.806 1.09872 437.915C2.88151 437.762 2.91225 434.967 1.09872 435.089C-10.5509 435.98 -22.139 437.301 -33.7272 438.99C-35.4792 439.297 -34.7415 442 -32.9587 441.724Z" fill="#3F3C36"/>
<path d="M125.003 134.448C119.47 126.462 129.552 115.712 135.054 110.459C141.109 104.685 148.394 100.2 156.201 97.2209C170.894 91.6 187.523 91.17 202.216 97.0674C210.884 100.538 218.63 104.808 228.22 102.258C236.366 100.077 243.835 95.2244 250.966 90.8936C265.812 81.8633 280.966 73.3859 298.886 77.8703C326.55 84.812 346.192 111.504 375.577 113.469C393.712 114.698 413.569 101.552 430.598 111.934C442.985 119.459 448.579 134.233 460.044 142.895C472.862 152.539 493.241 151.126 503.262 137.919C507.042 132.943 509.501 124.588 503.907 119.889C499.881 116.51 493.057 116.449 490.444 121.486C489.614 123.083 492.042 124.527 492.872 122.899C494.993 118.814 501.172 119.889 503.354 123.421C506.612 128.612 502.247 135.554 498.405 139.024C491.889 144.953 482.483 147.471 473.846 145.966C458.507 143.263 451.1 128.397 441.602 117.831C437.514 113.254 432.718 109.169 426.878 106.988C419.102 104.101 410.772 105.084 402.841 106.681C393.835 108.493 384.86 111.258 375.546 110.613C368.261 110.121 361.253 107.756 354.706 104.623C331.622 93.5965 310.013 70.3451 282.319 74.0002C266.181 76.1195 253.179 86.9313 239.286 94.3951C235.044 96.6681 230.618 98.9103 225.853 99.8932C219.736 101.152 214.173 99.1867 208.64 96.7909C202.001 93.9037 195.484 91.4772 188.23 90.525C172.585 88.4671 156.263 92.2758 142.953 100.722C133.763 106.558 113.814 123.298 122.513 135.861C123.619 137.335 126.048 135.922 125.003 134.448Z" fill="#3F3C36"/>
<path d="M285.7 267.66C302.298 274.51 313.026 289.284 316.13 306.668C317.391 313.733 318.559 321.657 324.645 326.357C329.87 330.411 336.725 330.565 343.026 330.657C352.401 330.811 360.915 331.732 367.524 339.196C373.702 346.138 375.547 354.769 376.069 363.768C376.469 370.833 376.93 378.849 382.616 383.887C386.674 387.48 392.391 388.893 397.708 388.218C404.01 387.419 410.004 383.426 411.817 377.099C413.631 370.771 409.235 363.768 402.165 365.488C400.413 365.918 401.151 368.621 402.903 368.191C411.417 366.103 409.758 377.59 406.161 381.276C403.672 383.825 400.167 385.238 396.633 385.515C389.87 386.098 383.477 382.781 380.895 376.392C378.036 369.328 379.389 361.342 377.852 354.001C376.653 348.257 374.133 342.728 370.383 338.182C366.571 333.544 361.469 330.104 355.567 328.783C349.235 327.371 342.719 328.169 336.325 327.555C327.565 326.664 322.401 321.75 320.311 313.303C318.651 306.607 318.098 299.88 315.423 293.492C309.983 280.499 299.47 270.302 286.499 264.926C284.778 264.251 284.04 266.954 285.7 267.66Z" fill="#3F3C36"/>
<path d="M310.444 450.877C314.931 458.494 317.79 466.603 319.112 475.326C319.388 477.108 322.093 476.34 321.817 474.589C320.464 465.651 317.452 457.266 312.872 449.495C311.95 447.897 309.522 449.31 310.444 450.877Z" fill="#3F3C36"/>
<path d="M-95.4487 303.136C-101.965 297.393 -98.9528 285.444 -91.6679 281.052C-84.3523 276.66 -75.0081 277.919 -66.8625 280.591C-74.3933 276.752 -76.5142 265.264 -71.4732 258.476C-66.4322 251.688 -56.0429 250.429 -48.9117 255.036C-53.9834 252.057 -55.0592 243.856 -50.9404 239.74C-47.1289 235.901 -40.9813 236.177 -35.6637 237.16C-19.6493 240.17 -4.40338 247.665 7.98394 258.63C9.05976 259.582 10.1971 260.872 9.82821 262.254C9.55157 263.237 8.56796 263.821 7.67656 264.251C-5.07962 270.332 -20.8174 269.472 -33.0817 262.039C-25.9506 264.558 -18.8809 267.23 -11.8419 269.995C-6.3706 272.145 0.238005 277.09 -2.09807 282.526C-3.35832 285.475 -6.7702 286.612 -9.81324 287.379C-26.3502 291.434 -43.6555 292.355 -60.5921 290.113C-47.6207 292.325 -34.8953 296.379 -22.969 302.184C-21.0325 303.136 -18.8809 304.426 -18.512 306.576C-18.051 309.279 -20.6329 311.399 -23.0305 312.535C-34.342 317.818 -47.5592 315.699 -59.8851 313.457C-71.2273 311.399 -85.8585 305.594 -95.4487 303.136Z" fill="#F6A360"/>
<path d="M-8.49151 250.92C-5.54068 257.77 1.80566 261.947 9.21347 260.964C10.9963 260.719 10.9963 257.923 9.21347 258.169C2.66632 259.029 -3.4505 255.589 -6.06321 249.507C-6.77018 247.818 -9.19848 249.262 -8.49151 250.92Z" fill="#3F3C36"/>
<path d="M322.463 539.153C317.452 533.071 248.292 448.942 243.251 442.83C218.292 412.544 189.122 386.59 159.368 361.004C129.245 335.111 85.1362 328.016 49.2652 343.957C47.6361 344.664 43.7939 348.626 42.8718 350.131C40.9353 353.264 43.4558 357.625 46.9291 358.885C50.4025 360.144 54.2447 359.223 57.7488 358.148C63.6505 356.366 69.5522 354.185 75.6997 354.277C81.8473 354.37 88.4559 357.349 90.7305 363.062C88.9477 369.512 79.9108 369.604 73.3022 368.437C49.4189 364.168 24.8594 358.915 0.607322 358.055C-5.10991 357.871 -12.5792 362.478 -12.2103 368.191C-11.9644 371.785 -8.30664 374.027 -5.04844 375.594C14.6237 384.993 35.8943 389.139 57.0111 394.514C39.9209 389.354 22.1852 387.481 5.09503 382.32C0.484364 380.938 -5.57097 378.297 -10.3046 378.942C-15.0689 379.587 -19.8026 382.904 -20.5095 387.665C-21.1243 391.873 -18.3886 395.989 -14.823 398.323C-11.2575 400.657 -5.69392 402.838 -1.54432 403.79C17.4516 408.183 36.0787 414.264 54.0296 421.882C39.214 416.937 23.9065 413.466 8.41471 411.5C3.31224 410.855 -2.55868 410.64 -6.12426 414.356C-10.3353 418.779 -8.52181 426.489 -4.03409 430.636C0.453622 434.782 6.63191 436.349 12.5028 438.038C58.2714 451.184 92.6977 456.221 173.753 579.912L322.463 539.153Z" fill="#F6A360"/>
<path d="M-19.6182 389.385C-12.1796 389.968 -5.66319 394.791 -2.989 401.763C-2.34351 403.422 0.361414 402.715 -0.28408 401.026C-3.45007 392.794 -10.8271 387.265 -19.6182 386.59C-21.4317 386.436 -21.4009 389.231 -19.6182 389.385Z" fill="#3F3C36"/>
<path d="M-9.59796 368.252C-2.80491 367.362 3.77297 371.293 5.92462 377.866C6.4779 379.586 9.21355 378.849 8.62954 377.129C6.10904 369.481 -1.54467 364.413 -9.59796 365.457C-11.3808 365.672 -11.3808 368.498 -9.59796 368.252Z" fill="#3F3C36"/>
<path d="M-7.6616 419.793C-1.91364 420.254 3.37327 423.264 6.75442 427.963C8.16836 429.929 9.27491 432.14 9.85893 434.475C10.2893 436.164 10.0126 438.038 11.2421 439.328C11.7032 439.819 12.3794 439.788 12.9327 439.543C13.5475 439.266 13.8241 438.867 13.9471 438.222C14.07 437.608 13.8548 436.932 13.3016 436.625C13.2401 436.594 13.1479 436.533 13.0864 436.502C11.488 435.611 10.0741 438.038 11.6725 438.928C11.7339 438.959 11.8261 439.021 11.8876 439.051C11.6725 438.529 11.4573 438.007 11.2421 437.454C11.3343 437.331 11.4266 437.208 11.5188 437.086C12.0721 437.147 12.6561 437.239 13.2094 437.301C12.7176 436.778 12.7175 434.352 12.5331 433.676C12.2257 432.509 11.8261 431.372 11.3343 430.267C10.1663 427.656 8.47574 425.291 6.44705 423.325C2.57409 419.547 -2.31322 417.366 -7.69233 416.936C-9.47512 416.844 -9.44439 419.67 -7.6616 419.793Z" fill="#3F3C36"/>
<path d="M44.9925 350.806C49.4494 350.806 53.7527 350.561 57.3491 347.612C60.2999 345.216 61.929 341.745 60.8839 338.029C60.3921 336.278 57.6872 337.015 58.179 338.766C59.1011 341.991 56.9802 344.786 54.2753 346.353C51.4474 348.011 48.1892 347.981 44.9925 347.981C43.1789 347.981 43.1789 350.806 44.9925 350.806Z" fill="#3F3C36"/>
<path d="M24.7057 414.848C35.4024 418.503 45.7611 422.926 55.8431 428.025C57.4414 428.854 58.8861 426.427 57.257 425.598C46.9906 420.346 36.3861 415.861 25.4434 412.114C23.7528 411.561 23.0151 414.264 24.7057 414.848Z" fill="#3F3C36"/>
<path d="M16.6214 385.177C34.7875 390.061 52.9842 394.944 71.1503 399.828C72.9023 400.289 73.64 397.586 71.888 397.125C53.7219 392.241 35.5252 387.358 17.3592 382.474C15.6071 381.983 14.8694 384.686 16.6214 385.177Z" fill="#3F3C36"/>
<path d="M67.3081 451.676C68.6606 448.266 70.5663 445.133 72.9639 442.369C74.1319 441.017 72.1647 439.021 70.9659 440.372C68.2302 443.536 66.1093 447.038 64.5724 450.908C63.927 452.628 66.6626 453.334 67.3081 451.676Z" fill="white"/>
<path d="M80.372 427.625C82.6466 423.878 84.4294 419.885 85.7511 415.708C86.3044 413.988 83.5687 413.251 83.0461 414.971C81.8166 418.933 80.0953 422.68 77.9437 426.212C77.0215 427.748 79.4498 429.161 80.372 427.625Z" fill="white"/>
<path d="M90.4537 399.736C92.4517 395.344 94.4496 390.951 96.4168 386.559C97.1545 384.931 94.7263 383.488 93.9885 385.146C91.9906 389.539 89.9927 393.931 88.0255 398.292C87.2877 399.951 89.6853 401.364 90.4537 399.736Z" fill="white"/>
<path d="M117.503 357.257C120.484 354.308 122.728 350.868 124.265 346.998C124.941 345.308 122.205 344.602 121.56 346.261C120.207 349.701 118.148 352.711 115.505 355.291C114.244 356.519 116.212 358.516 117.503 357.257Z" fill="white"/>
<path d="M135.239 289.806C133.302 287.41 129.737 287.042 127.308 288.977L36.263 362.693C36.1708 362.755 36.1093 362.847 36.0479 362.908C40.5356 364.352 45.054 365.458 49.5725 366.41L134.409 297.731C136.806 295.796 137.206 292.233 135.239 289.806Z" fill="#3F3C36"/>
<path d="M105.792 329.582C116.089 321.32 126.386 313.026 136.652 304.764C137.421 304.15 137.021 303.013 136.376 302.552C133.947 300.832 132.165 298.99 130.505 296.532C129.49 295.058 127.062 296.44 128.076 297.945C129.982 300.74 132.195 303.013 134.962 304.979C134.87 304.242 134.777 303.505 134.685 302.767C124.388 311.03 114.091 319.323 103.824 327.585C102.38 328.753 104.378 330.718 105.792 329.582Z" fill="#3F3C36"/>
</g>
<defs>
<clipPath id="clip0_293_2076">
<rect width="375" height="508" fill="white"/>
</clipPath>
</defs>
</svg>
