<svg width="130" height="37" viewBox="0 0 130 37" fill="none" xmlns="http://www.w3.org/2000/svg">
<rect x="0.5" y="0.5" width="129" height="36" rx="18" stroke="#272727"/>
<path d="M32.9997 18.5119C33.0291 22.1449 30.9788 25.7023 27.7875 27.5508C22.5141 30.6755 15.6162 28.5583 13.0142 23.0139C10.2264 17.1857 13.4177 10.0371 19.7486 8.36078C26.4724 6.55531 33.0279 11.7728 32.9997 18.5119ZM32.6468 18.5119C32.6715 15.1359 30.473 11.888 27.2887 10.6618C21.7036 8.41662 15.4998 12.5464 15.5315 18.5119C15.4986 24.4774 21.7048 28.6083 27.2887 26.3619C30.473 25.1358 32.6715 21.8878 32.6468 18.5119Z" fill="#272727"/>
<path d="M18.296 18.5119C18.2748 20.7012 19.9581 22.6986 22.1601 22.908C23.3564 23.0302 24.588 22.6079 25.382 21.8122C27.477 19.7834 27.0571 15.8839 24.3998 14.5321C21.5037 13.1292 18.2877 15.3662 18.296 18.5119ZM17.9431 18.5119C17.9054 16.1282 19.4428 13.8493 21.6614 12.9268C25.7173 11.2085 30.2178 14.1517 30.2355 18.5119C30.2155 22.872 25.7173 25.814 21.6625 24.0969C19.444 23.1744 17.9066 20.8955 17.9442 18.5119H17.9431Z" fill="#272727"/>
<path d="M22.4696 21.3782C24.0937 21.3782 25.4103 20.0761 25.4103 18.4699C25.4103 16.8637 24.0937 15.5616 22.4696 15.5616C20.8454 15.5616 19.5288 16.8637 19.5288 18.4699C19.5288 20.0761 20.8454 21.3782 22.4696 21.3782Z" fill="#272727"/>
<path d="M41.8822 22.656C41.4102 22.656 40.9582 22.582 40.5262 22.434C40.0982 22.286 39.7222 22.072 39.3982 21.792C39.0782 21.512 38.8482 21.18 38.7082 20.796L40.2622 20.22C40.3102 20.356 40.4102 20.484 40.5622 20.604C40.7142 20.72 40.9042 20.816 41.1322 20.892C41.3602 20.964 41.6102 21 41.8822 21C42.1422 21 42.3862 20.962 42.6142 20.886C42.8462 20.806 43.0322 20.696 43.1722 20.556C43.3162 20.416 43.3882 20.252 43.3882 20.064C43.3882 19.876 43.3142 19.72 43.1662 19.596C43.0182 19.472 42.8282 19.374 42.5962 19.302C42.3642 19.226 42.1262 19.168 41.8822 19.128C41.2782 19.04 40.7362 18.898 40.2562 18.702C39.7802 18.502 39.4042 18.228 39.1282 17.88C38.8522 17.528 38.7142 17.082 38.7142 16.542C38.7142 16.022 38.8602 15.568 39.1522 15.18C39.4482 14.792 39.8362 14.49 40.3162 14.274C40.8002 14.058 41.3222 13.95 41.8822 13.95C42.3462 13.95 42.7942 14.024 43.2262 14.172C43.6582 14.32 44.0342 14.534 44.3542 14.814C44.6782 15.094 44.9102 15.43 45.0502 15.822L43.4962 16.386C43.4482 16.25 43.3482 16.124 43.1962 16.008C43.0442 15.892 42.8542 15.798 42.6262 15.726C42.3982 15.654 42.1502 15.618 41.8822 15.618C41.6262 15.614 41.3822 15.652 41.1502 15.732C40.9222 15.812 40.7342 15.922 40.5862 16.062C40.4422 16.202 40.3702 16.362 40.3702 16.542C40.3702 16.778 40.4382 16.956 40.5742 17.076C40.7142 17.196 40.8982 17.282 41.1262 17.334C41.3542 17.386 41.6062 17.432 41.8822 17.472C42.4502 17.556 42.9742 17.706 43.4542 17.922C43.9342 18.134 44.3182 18.418 44.6062 18.774C44.8982 19.126 45.0442 19.556 45.0442 20.064C45.0442 20.584 44.8982 21.038 44.6062 21.426C44.3142 21.814 43.9282 22.116 43.4482 22.332C42.9682 22.548 42.4462 22.656 41.8822 22.656ZM47.5868 22.5V14.1H52.9028V15.756H49.2428V17.172H52.0988V18.828H49.2428V20.844H52.9028V22.5H47.5868ZM60.2793 14.1H61.9353V22.5H60.2793V18.828H57.0873V22.5H55.4313V14.1H57.0873V17.172H60.2793V14.1ZM67.3846 14.1H69.2686L72.3166 22.5H70.5586L70.0546 21.108H66.5986L66.0946 22.5H64.3366L67.3846 14.1ZM67.2046 19.452H69.4486L68.3206 16.374L67.2046 19.452ZM79.8945 14.1V15.756H77.4225V22.5H75.7665V15.756H73.2945V14.1H79.8945ZM85.7006 22.656C85.1166 22.656 84.5726 22.542 84.0686 22.314C83.5686 22.086 83.1306 21.772 82.7546 21.372C82.3826 20.968 82.0926 20.502 81.8846 19.974C81.6766 19.446 81.5726 18.884 81.5726 18.288C81.5726 17.648 81.6866 17.064 81.9146 16.536C82.1426 16.008 82.4526 15.552 82.8446 15.168C83.2366 14.78 83.6806 14.482 84.1766 14.274C84.6766 14.062 85.1966 13.956 85.7366 13.956C86.3286 13.956 86.9086 14.094 87.4766 14.37C88.0446 14.646 88.5526 15.084 89.0006 15.684L87.5246 16.476C87.2686 16.18 86.9826 15.96 86.6666 15.816C86.3546 15.672 86.0366 15.6 85.7126 15.6C85.3886 15.6 85.0766 15.666 84.7766 15.798C84.4806 15.93 84.2166 16.118 83.9846 16.362C83.7526 16.606 83.5686 16.894 83.4326 17.226C83.2966 17.558 83.2286 17.924 83.2286 18.324C83.2286 18.696 83.2926 19.044 83.4206 19.368C83.5526 19.692 83.7326 19.976 83.9606 20.22C84.1886 20.464 84.4526 20.656 84.7526 20.796C85.0566 20.932 85.3806 21 85.7246 21C85.9366 21 86.1446 20.97 86.3486 20.91C86.5566 20.846 86.7546 20.754 86.9426 20.634C87.1306 20.514 87.3026 20.364 87.4586 20.184C87.6186 20.004 87.7586 19.796 87.8786 19.56H86.5766V18.12H89.8286C89.8526 18.74 89.7626 19.324 89.5586 19.872C89.3546 20.42 89.0626 20.904 88.6826 21.324C88.3026 21.74 87.8586 22.066 87.3506 22.302C86.8426 22.538 86.2926 22.656 85.7006 22.656ZM96.9426 14.1H98.5986V22.5H96.9426V18.828H93.7506V22.5H92.0946V14.1H93.7506V17.172H96.9426V14.1ZM104.048 14.1H105.932L108.98 22.5H107.222L106.718 21.108H103.262L102.758 22.5H101L104.048 14.1ZM103.868 19.452H106.112L104.984 16.374L103.868 19.452ZM111.159 22.5V14.1H114.495C114.951 14.1 115.363 14.216 115.731 14.448C116.103 14.676 116.397 14.984 116.613 15.372C116.833 15.756 116.943 16.182 116.943 16.65C116.943 17.018 116.879 17.36 116.751 17.676C116.623 17.988 116.443 18.262 116.211 18.498C115.979 18.734 115.709 18.918 115.401 19.05L117.399 22.5H115.491L113.577 19.2H112.815V22.5H111.159ZM112.815 17.544H114.297C114.477 17.544 114.641 17.5 114.789 17.412C114.941 17.32 115.061 17.198 115.149 17.046C115.241 16.89 115.287 16.718 115.287 16.53C115.287 16.346 115.241 16.178 115.149 16.026C115.061 15.87 114.941 15.746 114.789 15.654C114.641 15.562 114.477 15.516 114.297 15.516H112.815V17.544Z" fill="#272727"/>
</svg>
