<svg width="272" height="64" viewBox="0 0 272 64" fill="none" xmlns="http://www.w3.org/2000/svg">
<path d="M4.62205 47.1973C0.964765 45.2527 -0.423632 40.7114 1.52098 37.0541L13.2578 14.9805C15.2024 11.3232 19.7436 9.93477 23.4009 11.8794C27.0582 13.824 28.4466 18.3652 26.502 22.0225L14.7652 44.0962C12.8206 47.7535 8.27934 49.1419 4.62205 47.1973Z" fill="#F62B54"/>
<path d="M25.3398 47.1973C21.6825 45.2527 20.2941 40.7114 22.2388 37.0541L33.9755 14.9805C35.9202 11.3232 40.4614 9.93477 44.1187 11.8794C47.776 13.824 49.1644 18.3652 47.2198 22.0225L35.483 44.0962C33.5384 47.7535 28.9971 49.1419 25.3398 47.1973Z" fill="#00CA72"/>
<path d="M46.0576 47.1973C42.4003 45.2527 41.0119 40.7114 42.9565 37.0541L54.6933 14.9805C56.6379 11.3232 61.1792 9.93477 64.8365 11.8794C68.4938 13.824 69.8821 18.3652 67.9375 22.0225L56.2007 44.0962C54.2561 47.7535 49.7149 49.1419 46.0576 47.1973Z" fill="#FFCC00"/>
<path d="M97.0844 21.66V37.74C97.0844 38.86 97.3444 39.68 97.8644 40.2C98.4244 40.68 99.3444 40.92 100.624 40.92H104.524V48H99.2444C92.1644 48 88.6244 44.56 88.6244 37.68V21.66H84.6644V14.76H88.6244V6.53996H97.0844V14.76H104.524V21.66H97.0844Z" fill="#333333"/>
<path d="M117.766 19.92C118.846 18.16 120.246 16.78 121.966 15.78C123.726 14.78 125.726 14.28 127.966 14.28V23.1H125.746C123.106 23.1 121.106 23.72 119.746 24.96C118.426 26.2 117.766 28.36 117.766 31.44V48H109.366V14.76H117.766V19.92Z" fill="#333333"/>
<path d="M136.684 10.8C135.204 10.8 133.964 10.34 132.964 9.41996C132.004 8.45996 131.524 7.27996 131.524 5.87996C131.524 4.47996 132.004 3.31996 132.964 2.39996C133.964 1.43996 135.204 0.959961 136.684 0.959961C138.164 0.959961 139.384 1.43996 140.344 2.39996C141.344 3.31996 141.844 4.47996 141.844 5.87996C141.844 7.27996 141.344 8.45996 140.344 9.41996C139.384 10.34 138.164 10.8 136.684 10.8ZM140.824 14.76V48H132.424V14.76H140.824Z" fill="#333333"/>
<path d="M160.643 48.54C157.923 48.54 155.483 48.06 153.323 47.1C151.163 46.1 149.443 44.76 148.163 43.08C146.923 41.4 146.243 39.54 146.123 37.5H154.583C154.743 38.78 155.363 39.84 156.443 40.68C157.563 41.52 158.943 41.94 160.583 41.94C162.183 41.94 163.423 41.62 164.303 40.98C165.223 40.34 165.683 39.52 165.683 38.52C165.683 37.44 165.123 36.64 164.003 36.12C162.923 35.56 161.183 34.96 158.783 34.32C156.303 33.72 154.263 33.1 152.663 32.46C151.103 31.82 149.743 30.84 148.583 29.52C147.463 28.2 146.903 26.42 146.903 24.18C146.903 22.34 147.423 20.66 148.463 19.14C149.543 17.62 151.063 16.42 153.023 15.54C155.023 14.66 157.363 14.22 160.043 14.22C164.003 14.22 167.163 15.22 169.523 17.22C171.883 19.18 173.183 21.84 173.423 25.2H165.383C165.263 23.88 164.703 22.84 163.703 22.08C162.743 21.28 161.443 20.88 159.803 20.88C158.283 20.88 157.103 21.16 156.263 21.72C155.463 22.28 155.063 23.06 155.063 24.06C155.063 25.18 155.623 26.04 156.743 26.64C157.863 27.2 159.603 27.78 161.963 28.38C164.363 28.98 166.343 29.6 167.903 30.24C169.463 30.88 170.803 31.88 171.923 33.24C173.083 34.56 173.683 36.32 173.723 38.52C173.723 40.44 173.183 42.16 172.103 43.68C171.063 45.2 169.543 46.4 167.543 47.28C165.583 48.12 163.283 48.54 160.643 48.54Z" fill="#333333"/>
<path d="M189.198 21.66V37.74C189.198 38.86 189.458 39.68 189.978 40.2C190.538 40.68 191.458 40.92 192.738 40.92H196.638V48H191.358C184.278 48 180.738 44.56 180.738 37.68V21.66H176.778V14.76H180.738V6.53996H189.198V14.76H196.638V21.66H189.198Z" fill="#333333"/>
<path d="M232.38 30.66C232.38 31.86 232.3 32.94 232.14 33.9H207.84C208.04 36.3 208.88 38.18 210.36 39.54C211.84 40.9 213.66 41.58 215.82 41.58C218.94 41.58 221.16 40.24 222.48 37.56H231.54C230.58 40.76 228.74 43.4 226.02 45.48C223.3 47.52 219.96 48.54 216 48.54C212.8 48.54 209.92 47.84 207.36 46.44C204.84 45 202.86 42.98 201.42 40.38C200.02 37.78 199.32 34.78 199.32 31.38C199.32 27.94 200.02 24.92 201.42 22.32C202.82 19.72 204.78 17.72 207.3 16.32C209.82 14.92 212.72 14.22 216 14.22C219.16 14.22 221.98 14.9 224.46 16.26C226.98 17.62 228.92 19.56 230.28 22.08C231.68 24.56 232.38 27.42 232.38 30.66ZM223.68 28.26C223.64 26.1 222.86 24.38 221.34 23.1C219.82 21.78 217.96 21.12 215.76 21.12C213.68 21.12 211.92 21.76 210.48 23.04C209.08 24.28 208.22 26.02 207.9 28.26H223.68Z" fill="#333333"/>
<path d="M245.711 19.56C246.791 18.04 248.271 16.78 250.151 15.78C252.071 14.74 254.251 14.22 256.691 14.22C259.531 14.22 262.091 14.92 264.371 16.32C266.691 17.72 268.511 19.72 269.831 22.32C271.191 24.88 271.871 27.86 271.871 31.26C271.871 34.66 271.191 37.68 269.831 40.32C268.511 42.92 266.691 44.94 264.371 46.38C262.091 47.82 259.531 48.54 256.691 48.54C254.251 48.54 252.091 48.04 250.211 47.04C248.371 46.04 246.871 44.78 245.711 43.26V63.84H237.311V14.76H245.711V19.56ZM263.291 31.26C263.291 29.26 262.871 27.54 262.031 26.1C261.231 24.62 260.151 23.5 258.791 22.74C257.471 21.98 256.031 21.6 254.471 21.6C252.951 21.6 251.511 22 250.151 22.8C248.831 23.56 247.751 24.68 246.911 26.16C246.111 27.64 245.711 29.38 245.711 31.38C245.711 33.38 246.111 35.12 246.911 36.6C247.751 38.08 248.831 39.22 250.151 40.02C251.511 40.78 252.951 41.16 254.471 41.16C256.031 41.16 257.471 40.76 258.791 39.96C260.151 39.16 261.231 38.02 262.031 36.54C262.871 35.06 263.291 33.3 263.291 31.26Z" fill="#333333"/>
</svg>
