<svg width="179" height="62" viewBox="0 0 179 62" fill="none" xmlns="http://www.w3.org/2000/svg">
<g clip-path="url(#clip0_756_602)">
<path d="M0 0.01C9.23 1.51 14.6 2.7 19.73 6.85C24.9 11.03 29.86 18.24 38.11 31.94C48.45 49.1 67.13 60.66 88.54 61.01H89.04H89.2H89.29C89.34 61.01 89.39 61.01 89.44 61.01C89.47 61.01 89.51 61.01 89.54 61.01H90.04C111.45 60.65 130.13 49.09 140.47 31.93C148.72 18.23 153.68 11.02 158.85 6.84C163.98 2.69 169.35 1.5 178.58 0" fill="white"/>
<path d="M0 0.01C9.23 1.51 14.6 2.7 19.73 6.85C24.9 11.03 29.86 18.24 38.11 31.94C48.45 49.1 67.13 60.66 88.54 61.01H89.04H89.2H89.29C89.34 61.01 89.39 61.01 89.44 61.01C89.47 61.01 89.51 61.01 89.54 61.01H90.04C111.45 60.65 130.13 49.09 140.47 31.93C148.72 18.23 153.68 11.02 158.85 6.84C163.98 2.69 169.35 1.5 178.58 0" stroke="#F5F5F5"/>
</g>
<defs>
<clipPath id="clip0_756_602">
<rect width="178.74" height="61.99" fill="white"/>
</clipPath>
</defs>
</svg>
