<svg width="188" height="62" viewBox="0 0 188 62" fill="none" xmlns="http://www.w3.org/2000/svg">
<path fill-rule="evenodd" clip-rule="evenodd" d="M187.58 0.48999C169.08 3.48999 164.57 5.28999 148.08 32.65C137.75 49.8 116.01 61.31 94.5801 61.48C94.5001 61.48 94.4101 61.48 94.3301 61.48C94.3001 61.48 94.2701 61.48 94.2401 61.48C94.1901 61.48 94.1401 61.48 94.0801 61.48C72.6501 61.3 50.9101 49.79 40.5801 32.64C24.0901 5.29999 18.5801 3.48999 0.0800781 0.48999" fill="white"/>
<path d="M187.58 0.48999C169.08 3.48999 164.57 5.28999 148.08 32.65C137.75 49.8 116.01 61.31 94.5801 61.48C94.5001 61.48 94.4101 61.48 94.3301 61.48C94.3001 61.48 94.2701 61.48 94.2401 61.48C94.1901 61.48 94.1401 61.48 94.0801 61.48C72.6501 61.3 50.9101 49.79 40.5801 32.64C24.0901 5.29999 18.5801 3.48999 0.0800781 0.48999" stroke="#F5F5F5" stroke-miterlimit="10"/>
</svg>
