<svg width="22" height="22" viewBox="0 0 22 22" fill="none" xmlns="http://www.w3.org/2000/svg">
<path d="M21 4.14999V6.85001C21 9.10001 20.1 10 17.85 10H15.15C12.9 10 12 9.10001 12 6.85001V4.14999C12 1.89999 12.9 1 15.15 1H17.85C20.1 1 21 1.89999 21 4.14999Z" stroke="#222222" stroke-linecap="round" stroke-linejoin="round"/>
<path d="M10 15.15V17.85C10 20.1 9.1 21 6.85 21H4.15C1.9 21 1 20.1 1 17.85V15.15C1 12.9 1.9 12 4.15 12H6.85C9.1 12 10 12.9 10 15.15Z" stroke="#222222" stroke-linecap="round" stroke-linejoin="round"/>
<path d="M16.3801 10.0001V12.6201C16.3801 15.3101 15.3101 16.3801 12.6201 16.3801H10.0001V15.1501C10.0001 12.9001 9.10011 12.0001 6.85011 12.0001H5.62012V9.38013C5.62012 6.69013 6.69011 5.62012 9.38011 5.62012H12.0001V6.85013C12.0001 9.10013 12.9001 10.0001 15.1501 10.0001H16.3801Z" stroke="#222222" stroke-linecap="round" stroke-linejoin="round"/>
</svg>
