<svg width="22" height="21" viewBox="0 0 22 21" fill="none" xmlns="http://www.w3.org/2000/svg">
<path d="M9 15.42H5.21C1.84 15.42 1 14.58 1 11.21V5.21C1 1.84 1.84 1 5.21 1H15.74C19.11 1 19.95 1.84 19.95 5.21" stroke="#222222" stroke-linecap="round" stroke-linejoin="round"/>
<path d="M9 19.9399V15.4199" stroke="#222222" stroke-linecap="round" stroke-linejoin="round"/>
<path d="M1 11.4199H9" stroke="#222222" stroke-linecap="round" stroke-linejoin="round"/>
<path d="M5.74023 19.9399H9.00023" stroke="#222222" stroke-linecap="round" stroke-linejoin="round"/>
<path d="M21.0003 11.2699V16.9799C21.0003 19.3499 20.4103 19.9399 18.0403 19.9399H14.4903C12.1203 19.9399 11.5303 19.3499 11.5303 16.9799V11.2699C11.5303 8.89994 12.1203 8.30994 14.4903 8.30994H18.0403C20.4103 8.30994 21.0003 8.89994 21.0003 11.2699Z" stroke="#222222" stroke-linecap="round" stroke-linejoin="round"/>
<path d="M16.2445 16.72H16.2535" stroke="#222222" stroke-width="2" stroke-linecap="round" stroke-linejoin="round"/>
</svg>
